<svg viewBox="0 0 38 39" fill="none" xmlns="http://www.w3.org/2000/svg">
<g clip-path="url(#clip0_104_2244)">
<path d="M11.7138 18.4279C12.2829 18.4279 12.8319 18.4279 13.4042 18.4279C13.4042 18.111 13.4042 17.8111 13.4042 17.4909C13.672 17.4909 13.9169 17.4909 14.1711 17.4909C14.1711 16.6715 14.1711 15.8735 14.1711 15.0652C13.6468 15.0652 13.1333 15.0652 12.6006 15.0652C12.6006 14.8979 12.6006 14.7282 12.6006 14.5437C12.237 14.5437 11.8923 14.5437 11.5246 14.5437C11.5246 13.7442 11.5246 12.9465 11.5246 12.1405C11.1912 12.1405 10.8808 12.1405 10.5152 12.1405C10.5068 11.787 10.5067 11.4203 10.4849 11.0549C10.4772 10.9261 10.5222 10.8505 10.6098 10.7815C10.6256 10.7691 10.6399 10.7407 10.6536 10.7416C10.8914 10.7562 11.1289 10.7774 11.3669 10.7896C11.4243 10.7925 11.4872 10.7487 11.5403 10.7606C11.6728 10.7903 11.74 10.8642 11.7215 11.0289C11.6986 11.2324 11.716 11.4407 11.716 11.6778C12.3401 11.6778 12.9533 11.6778 13.5956 11.6778C13.5956 11.9198 13.5954 12.132 13.5957 12.3442C13.596 12.6095 13.5962 12.6107 13.8613 12.6122C14.1427 12.6136 14.4241 12.6125 14.7303 12.6125C14.7303 12.9568 14.7421 13.3002 14.7263 13.6423C14.7149 13.8902 14.7505 14.0807 14.9652 14.2473C15.1862 14.4188 15.354 14.6614 15.5589 14.8576C15.6292 14.925 15.7393 14.9766 15.8344 14.9826C16.1012 14.9993 16.3696 14.9884 16.6631 14.9884C16.6631 14.7751 16.6819 14.5675 16.6577 14.3653C16.6342 14.1686 16.7379 14.1073 16.88 14.109C17.1482 14.1123 17.416 14.1473 17.6843 14.1602C17.7551 14.1635 17.8274 14.134 17.9124 14.1169C17.9124 12.8414 17.9124 11.5491 17.9124 10.2319C18.0693 10.2216 18.2189 10.2117 18.3925 10.2003C18.3925 9.75077 18.3928 9.30393 18.3924 8.8571C18.3922 8.66108 18.5842 8.50664 18.7747 8.53297C18.8549 8.54407 18.9407 8.50306 19.0241 8.50273C19.1188 8.50234 19.2399 8.48754 19.3021 8.53943C19.3874 8.61064 19.4752 8.73649 19.4798 8.8427C19.4992 9.28984 19.488 9.73838 19.488 10.2059C19.665 10.2059 19.8095 10.2059 19.9828 10.2059C19.9828 11.5285 19.9828 12.8317 19.9828 14.1393C20.386 14.1393 20.7601 14.1393 21.1708 14.1393C21.1708 14.3921 21.1708 14.675 21.1708 14.9855C21.5268 14.9855 21.8466 14.9929 22.1655 14.9793C22.2316 14.9765 22.3027 14.9043 22.3577 14.8494C22.6092 14.5977 22.8593 14.3443 23.1006 14.0823C23.1429 14.0365 23.1551 13.9469 23.1559 13.8772C23.1608 13.4639 23.1583 13.0505 23.1583 12.6158C23.5393 12.6158 23.8982 12.6158 24.2881 12.6158C24.2881 12.3021 24.2881 12.009 24.2881 11.6909C24.9266 11.6909 25.5339 11.6909 26.1665 11.6909C26.1665 11.4395 26.1654 11.2134 26.1668 10.9874C26.168 10.7895 26.2335 10.7571 26.4223 10.7778C26.6318 10.8007 26.8458 10.7829 27.0577 10.7782C27.1471 10.7762 27.2362 10.7624 27.3716 10.7495C27.4364 11.1993 27.4226 11.6597 27.371 12.1313C27.0456 12.1313 26.7355 12.1313 26.3956 12.1313C26.3956 12.9354 26.3956 13.7268 26.3956 14.5317C26.0272 14.5317 25.6886 14.5317 25.3257 14.5317C25.3162 14.7111 25.3073 14.8788 25.2978 15.0588C24.76 15.0588 24.2395 15.0588 23.7017 15.0588C23.7017 15.8705 23.7017 16.6685 23.7017 17.4875C23.9493 17.4875 24.1928 17.4875 24.4563 17.4875C24.4563 17.8069 24.4563 18.1062 24.4563 18.4172C25.7086 18.4172 26.9406 18.4172 28.1895 18.4172C28.1895 18.5969 28.1895 18.7666 28.1895 18.9711C28.6243 18.9711 29.0431 18.9749 29.4616 18.9688C29.594 18.9669 29.8212 19.2112 29.8028 19.3459C29.7866 19.4651 29.7696 19.5882 29.7814 19.7065C29.7951 19.8445 29.7475 19.9206 29.6331 19.9816C29.5954 20.0017 29.5835 20.0732 29.5651 20.1104C29.1199 20.1104 28.6798 20.1104 28.2197 20.1104C28.2125 20.2589 28.2058 20.3991 28.1984 20.5518C26.9475 20.5518 25.7084 20.5518 24.4506 20.5518C24.4506 20.8708 24.4506 21.1767 24.4506 21.4871C24.1999 21.4871 23.9683 21.4871 23.709 21.4871C23.709 22.2304 23.709 22.9971 23.709 23.7808C24.2318 23.7808 24.7589 23.7808 25.3084 23.7808C25.3084 23.9595 25.3084 24.1278 25.3084 24.3208C25.6813 24.3208 26.0324 24.3208 26.3992 24.3208C26.3992 25.1522 26.3992 25.9587 26.3992 26.782C26.7254 26.782 27.0367 26.782 27.3678 26.782C27.4359 27.2356 27.4362 27.6759 27.371 28.1165C27.3661 28.15 27.3092 28.207 27.29 28.2016C27.0408 28.1316 26.7949 28.1677 26.5461 28.2029C26.4439 28.2174 26.3368 28.1949 26.1945 28.1872C26.1945 27.8478 26.1945 27.4956 26.1945 27.127C25.5442 27.127 24.9305 27.127 24.2965 27.127C24.2965 26.8106 24.2965 26.5099 24.2965 26.1943C23.9174 26.1943 23.5581 26.1943 23.1648 26.1943C23.1648 25.8032 23.1695 25.4261 23.1607 25.0494C23.159 24.9768 23.1211 24.8886 23.0714 24.8364C22.8294 24.582 22.5803 24.3345 22.3273 24.0918C22.2838 24.0501 22.2092 24.025 22.1483 24.0237C21.8409 24.0169 21.5334 24.0205 21.1834 24.0205C21.1834 24.3887 21.1834 24.7543 21.1834 25.0938C20.7676 25.0938 20.3941 25.0938 19.9662 25.0938C19.9662 26.411 19.9662 27.751 19.9662 29.0862C19.7742 29.0862 19.6368 29.0862 19.4902 29.0862C19.4902 29.4616 19.4915 29.8337 19.4897 30.2057C19.4887 30.4134 19.3201 30.5443 19.1253 30.5161C19.0336 30.5029 18.9353 30.5331 18.8407 30.5485C18.5532 30.5955 18.3905 30.4475 18.3904 30.1357C18.3902 29.7908 18.3903 29.4459 18.3903 29.0876C18.2305 29.0876 18.0856 29.0876 17.9207 29.0876C17.9207 27.7712 17.9207 26.4428 17.9207 25.1009C17.5008 25.1009 17.0978 25.1009 16.6677 25.1009C16.6677 24.7467 16.6677 24.3918 16.6677 24.0187C16.3274 24.0187 16.0137 24.0116 15.7007 24.0244C15.6338 24.0271 15.5604 24.0921 15.5061 24.1456C15.2619 24.3861 15.0208 24.6299 14.786 24.88C14.7477 24.9207 14.7319 24.9985 14.7311 25.0595C14.7262 25.431 14.7287 25.8025 14.7287 26.1846C14.3418 26.1846 13.9825 26.1846 13.5999 26.1846C13.5999 26.4875 13.5999 26.7809 13.5999 27.1136C12.9656 27.1136 12.354 27.1136 11.7081 27.1136C11.7081 27.4955 11.7081 27.8383 11.7081 28.1798C11.3091 28.1798 10.9456 28.1798 10.5429 28.1798C10.4693 27.7518 10.4839 27.2851 10.5368 26.7984C10.8715 26.7984 11.1767 26.7984 11.5045 26.7984C11.5045 25.9731 11.5045 25.1665 11.5045 24.3334C11.8719 24.3334 12.2173 24.3334 12.5834 24.3334C12.5923 24.1452 12.6 23.9821 12.6087 23.7997C13.1235 23.7997 13.6356 23.7997 14.1621 23.7997C14.1621 23.0105 14.1621 22.2408 14.1621 21.4709C13.921 21.4818 13.6847 21.4926 13.4152 21.5049C13.4152 21.2026 13.4152 20.8872 13.4152 20.5527C12.1789 20.5527 10.9603 20.5527 9.72624 20.5527C9.72624 20.4045 9.72624 20.275 9.72624 20.1206C9.2916 20.1206 8.87203 20.1241 8.45263 20.1169C8.38826 20.1158 8.31831 20.0754 8.2626 20.0358C8.21086 19.999 8.15596 19.9457 8.13597 19.8875C8.10385 19.7939 8.07123 19.6845 8.08902 19.5921C8.12621 19.3988 8.01444 19.1355 8.30115 19.0402C8.31021 19.0372 8.30229 18.9799 8.30229 18.9708C8.74997 18.9708 9.18279 18.9741 9.61534 18.9647C9.64995 18.9639 9.70619 18.8782 9.71177 18.8272C9.72574 18.6996 9.71638 18.5692 9.71638 18.4278C10.3953 18.4278 11.0444 18.4278 11.7138 18.4279ZM17.1839 22.6387C17.2744 22.6815 17.3646 22.7607 17.4554 22.7614C18.4348 22.7693 19.4144 22.7685 20.3938 22.7582C20.5008 22.7571 20.6259 22.7063 20.7099 22.6367C20.8934 22.4847 21.0707 22.3185 21.2211 22.1328C21.3035 22.031 21.4676 22.0017 21.4578 21.8011C21.4368 21.3735 21.4513 20.9442 21.4513 20.5002C21.3519 20.5143 21.2521 20.5364 21.1514 20.5411C20.9676 20.5498 20.766 20.5989 20.6029 20.5399C20.3045 20.4321 20.4242 20.6714 20.4172 20.7579C20.3911 21.0805 20.491 21.4181 20.2822 21.7309C19.4055 21.7309 18.5155 21.7309 17.6623 21.7309C17.6023 21.6585 17.5541 21.6107 17.5192 21.5541C17.4975 21.5188 17.4878 21.4705 17.4868 21.4277C17.4803 21.1554 17.4797 20.8831 17.4716 20.6109C17.4705 20.5739 17.4392 20.5063 17.4209 20.5059C17.0775 20.4996 16.7339 20.5013 16.414 20.5013C16.414 20.9261 16.4317 21.3109 16.4067 21.6928C16.3939 21.8889 16.4661 21.9753 16.6062 22.0823C16.8085 22.2367 16.9793 22.4348 17.1839 22.6387ZM17.4803 19.2383C17.7838 19.2383 18.0874 19.2383 18.3667 19.2383C18.3667 18.9674 18.3707 18.7354 18.3639 18.5038C18.3622 18.4459 18.3405 18.3739 18.3025 18.3344C18.1247 18.1493 17.9388 17.9724 17.7541 17.7944C17.6535 17.6975 17.5628 17.5521 17.4445 17.5205C17.2146 17.4591 16.9674 17.4705 16.7294 17.4369C16.4641 17.3994 16.2607 17.5062 16.0816 17.6918C16.0071 17.769 15.9181 17.8339 15.8546 17.9194C15.6951 18.1343 15.4039 18.2595 15.4335 18.6059C15.4518 18.8196 15.4369 19.0362 15.4369 19.2314C15.7866 19.2314 16.0861 19.2314 16.3812 19.2314C16.4319 18.9865 16.3067 18.7251 16.5634 18.543C16.7015 18.4451 16.848 18.4655 16.9882 18.4254C17.0419 18.41 17.111 18.4521 17.2067 18.4767C17.21 18.4822 17.2325 18.5602 17.2613 18.5628C17.4238 18.5772 17.4404 18.6855 17.4432 18.8164C17.446 18.9467 17.457 19.0769 17.4803 19.2383ZM19.4863 19.194C19.5141 19.2069 19.5418 19.2307 19.5696 19.2309C19.8606 19.2337 20.1517 19.2326 20.4338 19.2326C20.4911 19.0319 20.4103 18.8466 20.5298 18.6635C20.6374 18.4987 20.7913 18.4633 20.9357 18.4222C21.0417 18.3919 21.186 18.4318 21.2914 18.4856C21.61 18.6484 21.4696 18.9866 21.512 19.2247C21.8342 19.2247 22.1285 19.2247 22.4231 19.2247C22.4231 18.9899 22.4011 18.7491 22.4308 18.5152C22.4506 18.3593 22.3544 18.2924 22.2848 18.2156C22.1125 18.0254 21.9283 17.8436 21.7309 17.6816C21.6062 17.5793 21.4561 17.4747 21.3051 17.4497C21.0698 17.4107 20.8237 17.4305 20.5828 17.442C20.4897 17.4465 20.3765 17.4708 20.3109 17.5308C20.1369 17.69 19.9963 17.8887 19.8194 18.0439C19.5914 18.2438 19.4341 18.4565 19.4876 18.7879C19.5069 18.9078 19.4841 19.0349 19.4863 19.194ZM18.6065 30.4383L18.6163 30.4449C18.6163 30.4449 18.6154 30.431 18.6065 30.4383Z" fill="currentColor"/>
<path d="M21.2944 3.24087C21.6493 3.23699 21.9841 3.23359 22.3189 3.22888C22.4101 3.22759 22.6532 3.4918 22.6468 3.58676C22.6324 3.79736 22.619 4.00803 22.6082 4.17183C22.4977 4.24754 22.4279 4.29534 22.3581 4.34315C22.3666 4.35977 22.3751 4.3764 22.3836 4.39302C21.7528 4.39302 21.1219 4.39058 20.4911 4.39868C20.4504 4.39921 20.3809 4.47778 20.3759 4.52572C20.3567 4.70892 20.3423 4.89588 20.3575 5.07865C20.3695 5.2226 20.3766 5.31536 20.1953 5.307C19.9792 5.29703 19.7624 5.30465 19.5115 5.30465C19.5115 5.40115 19.5121 5.50827 19.5114 5.61539C19.5077 6.16133 19.5065 6.70732 19.4988 7.2532C19.4948 7.53531 19.4119 7.61526 19.1323 7.67035C19.0504 7.68648 18.9767 7.74625 18.8976 7.78686C18.8818 7.73696 18.8702 7.70015 18.8526 7.64424C18.8123 7.68945 18.7837 7.72158 18.7393 7.77148C18.7284 7.70433 18.7207 7.65663 18.7104 7.5929C18.6615 7.61924 18.6185 7.6424 18.5859 7.65996C18.2657 7.31836 18.4211 6.89574 18.3996 6.50627C18.378 6.11384 18.3949 5.71916 18.3949 5.31771C18.1206 5.31771 17.8521 5.31771 17.5466 5.31771C17.5466 5.05293 17.539 4.79634 17.55 4.54059C17.555 4.42369 17.529 4.3791 17.4118 4.38009C16.8515 4.38486 16.2912 4.38298 15.731 4.3866C15.6749 4.38697 15.6189 4.40856 15.5471 4.4236C15.5437 4.37195 15.54 4.31567 15.5351 4.24224C15.4878 4.26797 15.4462 4.29057 15.4076 4.31156C15.2269 4.10344 15.1831 3.86036 15.2455 3.60823C15.2697 3.51035 15.3697 3.43232 15.4354 3.34542C15.5764 3.15882 15.7747 3.24839 15.9466 3.24473C16.475 3.23348 17.0038 3.24063 17.5559 3.24063C17.5559 2.99011 17.5634 2.75506 17.5529 2.52086C17.547 2.38882 17.5902 2.35206 17.7134 2.35728C17.9291 2.36641 18.1454 2.35983 18.3709 2.35983C18.38 2.31332 18.3944 2.27471 18.3943 2.23615C18.3919 1.62845 18.3873 1.02075 18.3848 0.413038C18.3846 0.374748 18.3847 0.320759 18.4071 0.300801C18.5011 0.216968 18.5968 0.129734 18.7059 0.0714177C18.7639 0.0404004 18.8503 0.0659193 18.9239 0.0659193C18.9281 0.0864522 18.9323 0.106985 18.9365 0.127518C18.9615 0.092465 18.9864 0.057412 19.015 0.0170898C19.1293 0.0765148 19.2452 0.125298 19.3486 0.194037C19.4404 0.255026 19.5126 0.324115 19.5099 0.469251C19.4984 1.09683 19.505 1.72477 19.505 2.37189C19.8012 2.37189 20.0747 2.37189 20.3628 2.37189C20.3628 2.67562 20.3628 2.94423 20.3628 3.24086C20.6762 3.24086 20.9752 3.24086 21.2944 3.24087Z" fill="currentColor"/>
<path d="M19.5036 37.9626C19.5018 38.156 19.4988 38.3287 19.4985 38.5014C19.4982 38.6992 19.3167 38.8755 19.118 38.8807C19.0828 38.8817 19.0487 38.932 19.004 38.9675C18.9844 38.9281 18.9642 38.8876 18.9408 38.8405C18.9185 38.8779 18.8982 38.912 18.8932 38.9204C18.8087 38.9046 18.736 38.891 18.6531 38.8755C18.5896 38.8004 18.5115 38.7096 18.4354 38.617C18.4161 38.5934 18.3899 38.5639 18.3898 38.5371C18.389 37.9569 18.3915 37.3767 18.393 36.7965C18.3938 36.4895 18.3935 36.4882 18.1297 36.4856C17.9822 36.4841 17.8347 36.4853 17.6873 36.4903C17.6509 36.4916 17.6152 36.5123 17.5516 36.533C17.5516 36.2024 17.5516 35.8917 17.5516 35.5562C16.8718 35.5562 16.2158 35.5562 15.5797 35.5562C15.4906 35.4741 15.4008 35.3913 15.2726 35.2732C15.2641 35.1537 15.259 34.9733 15.2367 34.7951C15.2067 34.5554 15.4766 34.5645 15.5268 34.4114C16.1977 34.4114 16.8633 34.4114 17.5352 34.4114C17.5352 34.1697 17.547 33.9326 17.5313 33.6975C17.5199 33.5288 17.6263 33.4729 17.7352 33.4708C17.9384 33.4668 18.1423 33.5028 18.3724 33.5247C18.3791 33.4595 18.3913 33.3952 18.3915 33.3309C18.3928 32.8056 18.3876 32.2802 18.3934 31.755C18.3962 31.5025 18.6369 31.3361 18.894 31.344C19.0353 31.3484 19.1617 31.3704 19.2917 31.4235C19.3785 31.459 19.5081 31.6118 19.5078 31.7097C19.5059 32.2832 19.5067 32.8566 19.5077 33.4301C19.5077 33.4486 19.5195 33.4672 19.5291 33.4952C19.7955 33.4952 20.0607 33.4952 20.3512 33.4952C20.3512 33.7975 20.3512 34.0919 20.3512 34.3971C20.3777 34.4043 20.4082 34.4199 20.4387 34.4198C21.0677 34.418 21.6968 34.4148 22.3259 34.4109C22.4041 34.4104 22.6286 34.6295 22.6328 34.7262C22.6416 34.931 22.6892 35.1431 22.5682 35.3312C22.5394 35.3758 22.4833 35.4017 22.4397 35.4363C22.4271 35.4248 22.4146 35.4134 22.402 35.402C22.3919 35.4522 22.3817 35.5025 22.3713 35.5538C21.7096 35.5538 21.0547 35.5538 20.3582 35.5538C20.3582 35.8169 20.3511 36.0732 20.3611 36.3288C20.3664 36.4657 20.366 36.5154 20.1948 36.4906C19.9816 36.4599 19.7583 36.5035 19.5036 36.5169C19.5036 36.9803 19.5036 37.4611 19.5036 37.9626Z" fill="currentColor"/>
<path d="M35.0948 20.9188C35.0073 20.9285 34.9349 20.942 34.8274 20.962C34.8267 20.9685 34.8167 21.0181 34.8164 21.0678C34.8125 21.6411 34.8116 22.2144 34.8066 22.7877C34.8041 23.0801 34.5355 23.2776 34.2561 23.2638C34.0604 23.2541 33.9206 23.1909 33.8238 23.0353C33.7702 22.9491 33.733 22.8361 33.7312 22.7343C33.7217 22.2023 33.7259 21.6701 33.7254 21.1379C33.7253 21.07 33.7254 21.0022 33.7254 20.9236C33.4416 20.9236 33.1775 20.9236 32.8823 20.9236C32.8823 20.6797 32.8823 20.413 32.8823 20.1416C32.2351 20.1416 31.6192 20.1416 30.9877 20.1416C30.9861 20.1093 30.9833 20.0521 30.9805 19.9937C30.8306 20.019 30.6896 19.7996 30.6955 19.6688C30.7087 19.3756 30.6968 19.0873 31.0627 18.945C31.0688 18.946 31.1319 18.9641 31.1952 18.9644C31.6981 18.9671 32.201 18.9655 32.7039 18.9677C32.8119 18.9681 32.875 18.9584 32.8614 18.8085C32.841 18.5828 32.8561 18.3537 32.8561 18.0924C33.1472 18.0924 33.4238 18.0924 33.7261 18.0924C33.7261 18.01 33.7261 17.9094 33.7261 17.8089C33.7264 17.2975 33.7249 16.786 33.7277 16.2746C33.7293 15.9825 33.8009 15.9496 34.0724 15.8166C34.3393 15.6858 34.5336 15.7723 34.7022 15.9457C34.7796 16.0254 34.8063 16.1857 34.8084 16.3103C34.8181 16.8693 34.8105 17.4287 34.81 17.988C34.81 18.0282 34.8177 18.0684 34.8208 18.0994C35.0904 18.0994 35.3507 18.0994 35.6568 18.0994C35.7737 18.3356 35.6528 18.6463 35.7117 18.9491C35.7155 18.951 35.7328 18.9665 35.7499 18.9663C36.3717 18.9592 36.9938 18.9384 37.615 18.9543C37.7186 18.957 37.8779 19.1007 37.9078 19.2096C37.9727 19.4457 38.0332 19.7094 37.8452 19.9316C37.8095 19.9739 37.7538 19.9983 37.6848 20.0468C37.6866 20.0632 37.6921 20.112 37.6951 20.1387C37.0331 20.1387 36.3787 20.1387 35.6908 20.1387C35.6908 20.3995 35.6908 20.6727 35.6908 20.9537C35.4748 20.9421 35.2924 20.9324 35.0948 20.9188Z" fill="currentColor"/>
<path d="M5.10798 18.4266C5.10214 18.6096 5.09241 18.7729 5.08211 18.9459C5.71011 18.9459 6.32163 18.9459 6.9298 18.9459C7.09468 19.0984 7.24061 19.2555 7.22124 19.5488C7.20388 19.8119 7.05798 19.9627 6.90286 20.1275C6.32949 20.1275 5.72401 20.1275 5.09088 20.1275C5.09088 20.3967 5.09088 20.6703 5.09088 20.9379C4.80131 20.9379 4.5393 20.9379 4.25905 20.9379C4.25905 21.5554 4.25943 22.1755 4.25883 22.7956C4.25864 22.9868 4.10564 23.1291 3.9471 23.2167C3.8045 23.2955 3.70336 23.2832 3.57733 23.218C3.55683 23.2074 3.51198 23.2468 3.46518 23.2695C3.45751 23.2217 3.4514 23.1835 3.44499 23.1435C3.40651 23.157 3.36622 23.171 3.31117 23.1902C3.26266 23.0445 3.18145 22.9094 3.17828 22.7724C3.16408 22.1585 3.1721 21.544 3.1721 20.9244C2.89796 20.9244 2.6366 20.9244 2.34508 20.9244C2.34508 20.6751 2.34508 20.4098 2.34508 20.1473C1.6546 20.1473 0.993106 20.1473 0.320888 20.1473C0.326745 20.1245 0.339461 20.0751 0.352685 20.0236C0.145913 20.0633 0.0140894 19.8758 0.0583776 19.6611C0.0832769 19.5403 0.0390859 19.4045 0.0234375 19.2499C0.112263 19.1588 0.21899 19.0494 0.324655 18.9411C0.38275 18.9497 0.446616 18.9671 0.510546 18.9674C1.06063 18.9695 1.61076 18.965 2.16078 18.9713C2.29233 18.9728 2.33939 18.9274 2.33577 18.7941C2.32948 18.5618 2.33402 18.3293 2.33402 18.1018C2.6243 18.1018 2.87648 18.1018 3.15557 18.1018C3.16134 18.0404 3.17357 17.9686 3.17394 17.8968C3.17689 17.3298 3.17792 16.7628 3.17878 16.1959C3.17912 15.9693 3.35604 15.7924 3.57944 15.7777C3.83652 15.7607 4.06484 15.8044 4.2142 16.0455C4.24188 16.0902 4.25745 16.1509 4.2577 16.2044C4.26065 16.8263 4.25959 17.4482 4.25959 18.0938C4.53362 18.0938 4.79047 18.0938 5.08761 18.0938C5.09174 18.1722 5.09792 18.2896 5.10798 18.4266Z" fill="currentColor"/>
<path d="M22.8086 32.9249C22.8139 32.7843 22.8282 32.6588 22.8378 32.5329C22.8587 32.2594 23.0107 32.1373 23.2802 32.1404C23.6071 32.1441 23.9343 32.1231 24.2613 32.1139C24.3051 32.1127 24.349 32.1177 24.4156 32.121C24.4156 31.7165 24.4229 31.3129 24.4119 30.9099C24.4077 30.7543 24.455 30.6997 24.603 30.7012C25.0857 30.7062 25.5684 30.7061 26.0511 30.7014C26.1628 30.7003 26.2051 30.7344 26.2049 30.8543C26.202 32.3018 26.2037 33.7494 26.2021 35.197C26.2019 35.4083 25.9611 35.6169 25.753 35.6138C25.4538 35.6095 25.1544 35.6176 24.8552 35.6237C24.6224 35.6285 24.4188 35.4202 24.4163 35.1715C24.4108 34.6059 24.3993 34.0403 24.4019 33.4747C24.4025 33.3432 24.3615 33.2776 24.2417 33.2763C23.8689 33.2724 23.4961 33.2749 23.1138 33.2749C23.1132 33.2775 23.1216 33.2443 23.13 33.2111C23.1171 33.2237 23.1042 33.2363 23.0913 33.2489C22.9993 33.1458 22.9074 33.0428 22.8086 32.9249Z" fill="currentColor"/>
<path d="M26.1059 8.20343C25.5447 8.19837 24.9985 8.19837 24.418 8.19837C24.418 7.73952 24.418 7.27642 24.418 6.79101C23.9616 6.71063 23.538 6.73956 23.1054 6.77795C23.0827 6.75302 23.0417 6.71683 23.0111 6.67294C22.9329 6.56059 22.8062 6.47922 22.8298 6.30485C22.8537 6.12765 22.7487 5.92993 22.9125 5.77573C23.017 5.6774 23.1044 5.57213 23.2785 5.58078C23.6444 5.59895 24.0118 5.5863 24.4016 5.5863C24.4016 5.01788 24.4078 4.46781 24.3988 3.91801C24.3947 3.66207 24.4874 3.46371 24.705 3.36314C24.8295 3.30563 24.9866 3.31027 25.129 3.31009C25.3356 3.30983 25.542 3.33404 25.7488 3.34134C25.9833 3.34961 26.1984 3.54757 26.1986 3.7855C26.1994 5.22802 26.1957 6.67055 26.1898 8.11306C26.1897 8.14497 26.1449 8.17668 26.1059 8.20343Z" fill="currentColor"/>
<path d="M11.9398 35.5228C11.8796 35.4758 11.7892 35.4409 11.7656 35.379C11.7214 35.2632 11.6973 35.1317 11.6973 35.0067C11.6968 33.6657 11.7026 32.3246 11.7068 30.9836C11.7076 30.7019 11.7079 30.7042 11.988 30.7052C12.4762 30.707 12.9644 30.7057 13.4726 30.7057C13.4726 31.181 13.4726 31.6538 13.4726 32.1004C13.9101 32.1004 14.329 32.0786 14.7434 32.1133C14.8714 32.1241 14.9873 32.2886 15.0937 32.371C15.0681 32.7179 15.2175 33.1095 14.7136 33.2934C14.3673 33.2934 13.9323 33.2934 13.481 33.2934C13.481 33.7166 13.4841 34.1367 13.4798 34.5566C13.4774 34.7972 13.5007 35.0484 13.4403 35.2743C13.4024 35.4157 13.2498 35.5649 13.1131 35.6263C12.9773 35.6872 12.7969 35.6417 12.6361 35.6442C12.4411 35.6471 12.246 35.6561 12.0512 35.6507C12.0185 35.6498 11.9873 35.5893 11.9564 35.5496C11.964 35.5479 11.9705 35.5529 11.977 35.5579C11.9646 35.5462 11.9522 35.5345 11.9398 35.5228Z" fill="currentColor"/>
<path d="M11.7056 6.55525C11.71 5.63334 11.7131 4.73209 11.7133 3.83084C11.7134 3.54954 11.9601 3.30271 12.2749 3.31211C12.5359 3.31989 12.7976 3.30742 13.0588 3.2984C13.2092 3.29322 13.4794 3.60511 13.4793 3.79047C13.4789 4.37674 13.4791 4.963 13.4791 5.57681C13.8868 5.57681 14.2824 5.58033 14.6778 5.57514C14.8444 5.57295 15.0605 5.80356 15.0785 5.97045C15.098 6.15141 15.127 6.3252 15.0346 6.49197C15.009 6.53812 14.9803 6.58467 14.9441 6.6218C14.8999 6.66718 14.8463 6.70284 14.7858 6.75151C14.3841 6.75151 13.9521 6.75151 13.4737 6.75151C13.4737 7.2364 13.4737 7.71871 13.4737 8.19535C12.8659 8.19535 12.3044 8.19535 11.7031 8.19535C11.7031 7.65616 11.7031 7.11604 11.7056 6.55525Z" fill="currentColor"/>
<path d="M32.8642 7.6849C32.7257 7.68338 32.6033 7.67543 32.4808 7.67501C31.2542 7.67075 30.0276 7.66615 28.8009 7.66626C28.6378 7.66628 28.4747 7.69199 28.2736 7.70902C28.2612 7.43886 28.2415 7.13083 28.2343 6.82249C28.2263 6.47751 28.238 6.13192 28.2249 5.78725C28.2172 5.58479 28.3506 5.54405 28.4831 5.53809C28.6934 5.52862 28.9053 5.55513 29.1367 5.5675C29.1367 5.03365 29.1409 4.50394 29.1345 3.97436C29.1321 3.7744 29.1575 3.60511 29.3325 3.47599C29.4465 3.3919 29.5313 3.34672 29.6892 3.37926C29.9053 3.42377 29.9745 3.43427 30.123 3.56881C30.2435 3.67798 30.2648 3.80119 30.2647 3.94709C30.2637 4.78047 30.2642 5.61384 30.2642 6.45153C30.4855 6.43946 30.7141 6.38045 30.9222 6.42441C31.5361 6.55412 32.1491 6.4865 32.7632 6.47454C32.9328 6.47124 33.2189 6.77462 33.2173 6.95358C33.2152 7.18862 33.2263 7.42628 32.9451 7.52611C32.9103 7.53846 32.9013 7.62813 32.8642 7.6849Z" fill="currentColor"/>
<path d="M29.1658 35.28C29.1562 35.0347 29.1421 34.8079 29.1399 34.5809C29.1358 34.1632 29.1387 33.7454 29.1387 33.3182C28.8472 33.3366 28.5776 33.3536 28.2739 33.3727C28.2229 32.7122 28.2279 32.0249 28.2644 31.3374C28.4202 31.3521 28.5281 31.3709 28.636 31.3711C29.957 31.3742 31.2779 31.3808 32.5988 31.3702C32.8711 31.3681 33.0275 31.517 33.1619 31.7123C33.2824 31.8874 33.2017 32.2505 33.0758 32.4052C32.9324 32.5813 32.765 32.58 32.572 32.5749C32.0906 32.562 31.6089 32.5621 31.1273 32.5644C30.9887 32.5651 30.8502 32.5912 30.7161 32.5921C30.5697 32.5921 30.4233 32.5921 30.2567 32.5921C30.2567 33.3787 30.257 34.179 30.2565 34.9793C30.2563 35.3795 30.0896 35.6157 29.7209 35.6783C29.5357 35.7097 29.3988 35.5577 29.2648 35.4427C29.2226 35.4064 29.199 35.3471 29.1658 35.28Z" fill="currentColor"/>
<path d="M9.66255 7.42652C9.65925 7.51879 9.65608 7.59039 9.65238 7.67382C8.13661 7.67382 6.62524 7.67382 5.17119 7.67382C5.08478 7.60395 5.03389 7.5651 4.98548 7.52322C4.84369 7.40057 4.77172 7.25642 4.76412 7.05251C4.75405 6.78251 4.91654 6.64215 5.07688 6.48862C5.0912 6.47492 5.12396 6.47919 5.14814 6.47926C5.71592 6.48107 6.28372 6.48661 6.85145 6.48197C6.92758 6.48134 7.00768 6.43823 7.07794 6.39942C7.14102 6.36458 7.17893 6.50747 7.27564 6.3982C7.32505 6.34236 7.52633 6.42931 7.68349 6.45587C7.68349 6.11929 7.68311 5.77913 7.68357 5.43896C7.68429 4.91403 7.68059 4.38901 7.68929 3.86422C7.69238 3.67815 7.72865 3.49532 7.97054 3.48369C7.98228 3.48313 7.98793 3.43791 8.00418 3.4296C8.04765 3.40737 8.09534 3.39391 8.14136 3.37697C8.14778 3.39303 8.1542 3.40909 8.16063 3.42515C8.1742 3.38424 8.18778 3.34334 8.21066 3.27441C8.25523 3.33791 8.28355 3.37826 8.31357 3.42103C8.34084 3.39496 8.36789 3.36909 8.38555 3.35221C8.48824 3.42352 8.58953 3.48244 8.67756 3.55779C8.79434 3.65777 8.78211 3.80207 8.78145 3.94237C8.77894 4.47402 8.78044 5.00568 8.78044 5.53538C9.00397 5.54608 9.23883 5.60938 9.44474 5.55538C9.78053 5.46732 9.65691 5.71289 9.65949 5.83164C9.6709 6.35614 9.66336 6.88108 9.66255 7.42652Z" fill="currentColor"/>
<path d="M7.32593 31.3703C8.08139 31.3623 8.81673 31.3526 9.55207 31.3516C9.58551 31.3515 9.64721 31.4291 9.64825 31.4718C9.66064 31.9818 9.66564 32.4921 9.66861 33.0024C9.66935 33.129 9.65586 33.2557 9.65114 33.3418C9.35955 33.3418 9.09205 33.3418 8.7795 33.3418C8.7795 33.435 8.77946 33.553 8.77951 33.671C8.77971 34.1616 8.78183 34.6522 8.77951 35.1427C8.77787 35.4905 8.48283 35.7096 8.15777 35.6178C8.07524 35.5944 7.98391 35.6042 7.93535 35.6012C7.85821 35.4876 7.79114 35.4004 7.73723 35.3052C7.70559 35.2494 7.67759 35.181 7.67739 35.1182C7.67475 34.2974 7.67745 33.4765 7.6784 32.6557C7.67843 32.6304 7.67406 32.6051 7.67212 32.584C7.54385 32.5947 7.43002 32.6043 7.29666 32.6155C6.58875 32.5056 5.85813 32.5665 5.11083 32.5873C5.10388 32.575 5.08653 32.4998 5.05156 32.4897C4.72552 32.396 4.78056 32.1289 4.76279 31.8787C4.74398 31.6139 4.97712 31.5395 5.08148 31.3698C5.08985 31.3562 5.13077 31.3618 5.15656 31.3619C5.87297 31.3645 6.58939 31.3674 7.32593 31.3703Z" fill="currentColor"/>
<path d="M32.5509 15.1306C32.4575 15.1433 32.4244 15.1432 32.3415 15.0583C32.1627 14.8752 32.1592 14.6839 32.1634 14.4652C32.1682 14.2144 32.1645 13.9635 32.1645 13.69C31.7851 13.69 31.3865 13.69 30.9324 13.69C30.8718 13.5977 30.7662 13.4668 30.6931 13.3188C30.5583 13.0461 30.7083 12.587 30.9666 12.4728C31.0222 12.4482 31.1033 12.4916 31.1728 12.4926C31.4208 12.4963 31.6689 12.4988 31.9168 12.4939C31.9971 12.4923 32.0769 12.4665 32.166 12.4501C32.166 12.153 32.1753 11.8222 32.1621 11.4923C32.1553 11.3218 32.2583 11.2358 32.3602 11.1507C32.4594 11.0678 32.5781 11.0096 32.7002 10.9331C32.7192 10.9847 32.7346 11.0267 32.7772 11.1427C32.8002 11.0524 32.8139 10.9987 32.8172 10.9858C32.9581 11.072 33.0671 11.1256 33.1611 11.1995C33.2678 11.2835 33.3071 11.3994 33.3011 11.5466C33.2885 11.8546 33.2973 12.1636 33.2973 12.4932C33.6201 12.4932 33.937 12.5353 34.2371 12.4803C34.4888 12.4341 34.5932 12.6054 34.7174 12.7252C34.7899 12.795 34.7723 12.9718 34.782 13.1015C34.7965 13.2958 34.7346 13.454 34.5591 13.5562C34.5257 13.5756 34.5158 13.6377 34.4991 13.6718C34.1072 13.6718 33.7189 13.6718 33.3073 13.6718C33.3073 13.9842 33.3082 14.2788 33.3071 14.5733C33.306 14.8731 33.1605 15.0947 32.891 15.2076C32.8745 15.2145 32.8481 15.2023 32.8354 15.2119C32.7892 15.2463 32.747 15.2862 32.7032 15.324C32.6571 15.2621 32.6109 15.2002 32.5509 15.1306Z" fill="currentColor"/>
<path d="M32.8216 23.798C32.8398 23.7711 32.8455 23.7383 32.8537 23.6919C33.1135 23.8839 33.3606 24.0552 33.3086 24.4514C33.2742 24.7131 33.3021 24.9835 33.3021 25.2761C33.6739 25.2761 34.0241 25.2527 34.3684 25.2893C34.4831 25.3015 34.6024 25.452 34.6847 25.566C34.8531 25.7994 34.7733 26.1948 34.5622 26.3702C34.4577 26.4569 34.351 26.4653 34.2307 26.4643C33.9252 26.4618 33.6196 26.4635 33.3062 26.4635C33.3062 26.79 33.311 27.1041 33.3047 27.4179C33.2998 27.6606 33.0921 27.8883 32.851 27.9495C32.8148 27.9587 32.7923 28.0254 32.7464 28.0891C32.5848 27.9631 32.419 27.8503 32.2747 27.7133C32.2173 27.6589 32.1833 27.552 32.1805 27.4675C32.1697 27.15 32.1762 26.8319 32.1762 26.4884C31.7883 26.4884 31.3885 26.4884 31.0178 26.4884C30.9469 26.4404 30.8772 26.4137 30.8379 26.3624C30.7468 26.2436 30.628 26.1456 30.6567 25.9527C30.6933 25.7066 30.6743 25.4478 30.9297 25.3044C30.9556 25.2899 30.9842 25.2688 31.0109 25.2697C31.2904 25.2787 31.5696 25.2977 31.8491 25.3002C31.9566 25.3011 32.0645 25.2669 32.1632 25.2503C32.1632 24.9415 32.1693 24.6258 32.1614 24.3105C32.1548 24.0481 32.2832 23.8534 32.4953 23.7756C32.5807 23.7444 32.6143 23.6686 32.6928 23.6514C32.731 23.6976 32.77 23.7448 32.8216 23.798Z" fill="currentColor"/>
<path d="M4.06205 13.6661C3.89594 13.6733 3.74769 13.6804 3.58947 13.688C3.59071 13.6697 3.59406 13.6202 3.59741 13.5707C3.58248 13.5845 3.56756 13.5984 3.55263 13.6122C3.46763 13.5267 3.35538 13.4552 3.30519 13.3517C3.2537 13.2456 3.25833 13.1086 3.24668 12.9843C3.23221 12.8299 3.48728 12.4671 3.61877 12.4633C3.73035 12.4601 3.84297 12.493 3.95444 12.4891C4.20256 12.4803 4.45017 12.457 4.69822 12.4445C4.72256 12.4432 4.74852 12.4759 4.78878 12.503C4.78878 12.198 4.80442 11.91 4.78454 11.6246C4.76322 11.3185 4.96762 11.1871 5.16473 11.0551C5.23867 11.0056 5.32487 10.9475 5.44986 10.9885C5.60333 11.0389 5.92098 11.3505 5.92071 11.5117C5.92017 11.8293 5.92055 12.1469 5.92055 12.4606C6.2964 12.4606 6.66689 12.4617 7.03736 12.4599C7.13217 12.4594 7.4046 12.7483 7.40586 12.8501C7.40697 12.9404 7.40435 13.0343 7.42709 13.1199C7.48578 13.341 7.31791 13.4417 7.21481 13.5779C7.18612 13.6158 7.15644 13.6529 7.13551 13.6797C6.73537 13.6797 6.33946 13.6797 5.92419 13.6797C5.92419 13.9449 5.90022 14.2129 5.92995 14.4744C5.97192 14.8436 5.75521 15.0322 5.51242 15.2174C5.46461 15.2539 5.41686 15.2905 5.3608 15.3333C5.34894 15.2959 5.33231 15.2434 5.33164 15.2413C5.20238 15.1875 5.09193 15.1683 5.01735 15.1045C4.8837 14.9903 4.77755 14.8543 4.78615 14.6474C4.79915 14.3343 4.78954 14.0202 4.78954 13.6661C4.55824 13.6661 4.31909 13.6661 4.06205 13.6661Z" fill="currentColor"/>
<path d="M5.05116 27.8139C4.87038 27.7743 4.79582 27.6444 4.793 27.4689C4.7878 27.1462 4.79152 26.8233 4.79152 26.4992C4.41044 26.4992 4.02505 26.5166 3.64292 26.4879C3.53914 26.4801 3.44924 26.3275 3.34563 26.2521C3.22356 26.1633 3.2741 26.0361 3.26387 25.9233C3.23995 25.6597 3.31829 25.4462 3.56106 25.3216C3.58945 25.307 3.62175 25.2946 3.65292 25.2926C3.99266 25.2712 4.33246 25.2507 4.67246 25.2349C4.70535 25.2333 4.73971 25.2652 4.7888 25.289C4.7888 24.9741 4.8096 24.6742 4.78323 24.3788C4.7541 24.0526 4.96089 23.901 5.16386 23.7369C5.17418 23.7286 5.2233 23.7712 5.25459 23.7903C5.27768 23.7521 5.30633 23.7047 5.35075 23.6313C5.37943 23.7078 5.39743 23.7558 5.41505 23.8028C5.43733 23.7655 5.46005 23.7274 5.47693 23.6992C5.55528 23.7618 5.61759 23.837 5.69648 23.8696C5.88969 23.9496 5.9201 24.1066 5.91944 24.2894C5.91828 24.6124 5.91912 24.9354 5.91912 25.2786C6.32504 25.2786 6.7054 25.2786 7.08678 25.2786C7.5862 25.6672 7.5377 26.0753 7.08101 26.4723C6.70792 26.4723 6.32187 26.4723 5.92317 26.4723C5.92317 26.7839 5.92393 27.0922 5.92289 27.4004C5.92226 27.5855 5.89645 27.7471 5.67609 27.7993C5.60697 27.8157 5.5545 27.9031 5.49238 27.9554C5.36523 28.0625 5.28955 28.0415 5.24622 27.9248C5.17538 27.9028 5.12853 27.8883 5.08986 27.8542C5.09798 27.8226 5.09791 27.8106 5.09785 27.7986C5.08229 27.8037 5.06673 27.8088 5.05116 27.8139Z" fill="currentColor"/>
<path d="M6.60067 28.9876C6.76926 28.9876 6.91795 28.9876 7.06665 28.9876C7.07108 28.9653 7.0755 28.9431 7.07993 28.9209C7.10238 28.9564 7.11732 29.0117 7.14847 29.0242C7.42267 29.1345 7.42669 29.356 7.41006 29.6104C7.39807 29.794 7.36552 29.9313 7.18272 30.0035C7.15166 30.0158 7.15023 30.1077 7.14119 30.1407C6.84778 30.1407 6.57171 30.1388 6.29569 30.1411C5.82748 30.1452 5.3593 30.1526 4.89109 30.157C4.76165 30.1582 4.48303 29.7948 4.49608 29.6615C4.50609 29.5592 4.46824 29.4458 4.49795 29.3531C4.53257 29.2451 4.61264 29.1502 4.68273 29.0575C4.71903 29.0095 4.77638 28.9783 4.78041 28.9751C5.40159 28.9794 5.99119 28.9835 6.60067 28.9876Z" fill="currentColor"/>
<path d="M4.49338 9.4402C4.49191 9.20556 4.5705 9.02771 4.77599 8.93401C4.83137 8.90876 4.89633 8.8956 4.95713 8.89473C5.64693 8.88486 6.33677 8.87795 7.02661 8.87159C7.15486 8.8704 7.39276 9.14434 7.4083 9.29969C7.43662 9.58277 7.45124 9.85749 7.13488 9.99792C7.12166 10.0038 7.12388 10.0466 7.1182 10.0758C6.33962 10.0758 5.57115 10.0758 4.79917 10.0758C4.65944 9.91109 4.43685 9.75269 4.49338 9.4402Z" fill="currentColor"/>
<path d="M31.6222 28.9875C32.1394 28.9881 32.6378 28.9881 33.1362 28.9881C33.1335 28.9753 33.1307 28.9625 33.128 28.9497C33.1909 28.9944 33.2535 29.0397 33.3169 29.0836C33.6028 29.2813 33.5509 29.8705 33.2883 30.0442C33.1913 30.1084 33.1157 30.1489 32.9955 30.1463C32.3812 30.1328 31.7666 30.1336 31.1521 30.1314C30.9548 30.1308 30.6707 29.9639 30.631 29.7849C30.6029 29.6583 30.6034 29.5088 30.6424 29.387C30.6814 29.2652 30.8052 29.1742 30.8539 29.0534C30.9212 28.8859 31.0226 28.9749 31.1208 28.98C31.2814 28.9884 31.4425 28.9852 31.6222 28.9875Z" fill="currentColor"/>
<path d="M32.2029 10.043C31.7802 10.0544 31.3775 10.0666 30.9604 10.0792C30.9612 10.0966 30.9592 10.054 30.9572 10.0114C30.799 9.97029 30.6254 9.75386 30.631 9.5856C30.6387 9.35651 30.637 9.11762 30.8522 8.96849C30.9154 8.92467 30.9918 8.87258 31.0622 8.87256C31.6907 8.87241 32.3196 8.90003 32.9474 8.8821C33.1939 8.87506 33.3221 9.02224 33.4539 9.16705C33.5788 9.30424 33.4719 9.78357 33.3386 9.9183C33.2216 10.0365 33.1056 10.063 32.9459 10.0481C32.7068 10.0257 32.4641 10.0433 32.2029 10.043Z" fill="currentColor"/>
</g>
</svg>
