<svg viewBox="0 0 41 38" fill="currentColor" xmlns="http://www.w3.org/2000/svg">
<path d="M6.30769 3.16667V0H9.46154V3.16667H12.6154V6.33333H15.7692V9.5H18.9231V12.6667H22.0769V9.5H25.2308V6.33333H28.3846V3.16667H31.5385V0H34.6923V3.16667H37.8462V6.33333H41V9.5H37.8462V12.6667H34.6923V15.8333H31.5385V22.1667H34.6923V25.3333H37.8462V28.5H41V31.6667H37.8462V34.8333H34.6923V38H31.5385V34.8333H28.3846V31.6667H25.2308V28.5H22.0769V25.3333H18.9231V28.5H15.7692V31.6667H12.6154V34.8333H9.46154V38H6.30769V34.8333H3.15385V31.6667H0V28.5H3.15385V25.3333H6.30769V22.1667H9.46154V15.8333H6.30769V12.6667H3.15385V9.5H0V6.33333H3.15385V3.16667H6.30769Z" fill="currentColor"/>
</svg>
