<svg viewBox="0 0 26 39" fill="none" xmlns="http://www.w3.org/2000/svg">
<g clip-path="url(#clip0_104_2375)">
<path d="M24.9633 5.02137C24.9622 5.12794 24.961 5.23452 24.9403 5.35808C24.7654 5.33258 24.6708 5.40718 24.5731 5.5163C24.4473 5.65682 24.319 5.82784 24.1528 5.89332C23.9642 5.96762 23.9273 6.07333 23.9255 6.22995C23.9226 6.47995 23.9243 6.72999 23.9237 6.97955C23.9233 6.97907 23.9242 6.97981 23.9021 6.97864C23.5694 6.97747 23.2589 6.97747 22.9308 6.97747C22.9308 7.31186 22.9267 7.60687 22.9354 7.90152C22.9367 7.94331 23.0006 8.01875 23.0354 8.01867C23.3304 8.018 23.6254 8.00343 23.9426 7.99425C24.291 7.99547 24.6171 7.99547 24.9421 7.99547C24.9651 7.64284 24.9855 7.32927 25.0059 7.0157C25.0722 7.01685 25.1386 7.01801 25.2459 7.01925C25.5109 7.02043 25.7351 7.02151 25.9592 7.0226C25.9607 7.41999 25.9623 7.81738 25.9396 8.23581C25.8842 8.26017 25.8411 8.25198 25.824 8.26866C25.7185 8.37123 25.6233 8.48388 25.516 8.58451C25.4026 8.6909 25.2917 8.80845 25.157 8.88247C25.0328 8.9507 25.0029 9.0281 25.0027 9.15372C25.0023 9.41041 24.9856 9.66708 24.9755 9.92376C24.9705 10.0507 24.898 10.0853 24.7741 10.0807C24.5546 10.0724 24.3344 10.0835 24.115 10.0752C23.9735 10.0699 23.9167 10.117 23.9227 10.2576C23.9313 10.4621 23.9133 10.6679 23.9274 10.8718C23.9396 11.0488 23.8668 11.0956 23.6958 11.0847C23.4927 11.0717 23.2875 11.0895 23.084 11.079C22.9263 11.0709 22.8819 11.1318 22.8837 11.2772C22.8911 11.8688 22.8889 12.4605 22.8902 13.0522C22.8902 13.0522 22.8867 13.0469 22.8726 13.0456C22.836 13.0444 22.8134 13.0444 22.772 13.0412C22.5014 13.027 22.2496 13.0094 21.998 13.0126C21.9622 13.0131 21.9045 13.112 21.8977 13.1698C21.8847 13.2801 21.895 13.369 21.7632 13.4448C21.6402 13.5156 21.5631 13.661 21.4484 13.7741C21.3023 13.8818 21.1738 13.989 21.0253 14.0958C20.9554 14.1429 20.8724 14.1846 20.8621 14.2391C20.8402 14.3547 20.8561 14.477 20.8558 14.6118C20.8555 14.6473 20.8559 14.6675 20.8555 14.7077C20.8866 14.8363 20.9185 14.945 20.9724 15.0541C21.1999 15.0539 21.4055 15.0535 21.6306 15.0537C21.7024 15.0528 21.7545 15.0511 21.8067 15.0494C22.451 15.0572 23.0953 15.0649 23.7707 15.0737C23.8091 15.0789 23.8165 15.0832 23.8269 15.0985C23.857 15.1217 23.8841 15.1339 23.9111 15.146C23.9136 15.4346 23.9161 15.7233 23.8936 16.0338C23.5643 16.0557 23.26 16.0557 22.9773 16.0557C22.8225 16.5038 22.4456 16.6996 22.1328 16.9612C21.7452 17.2853 21.2863 16.9812 20.8541 17.156C20.8541 17.452 20.8541 17.7685 20.8465 18.094C20.8315 18.1062 20.8242 18.1095 20.7944 18.1112C20.662 18.1091 20.5522 18.1082 20.4425 18.1081C19.8159 18.1075 19.8192 18.1075 19.8141 18.7065C19.8106 19.1224 19.9246 19.161 19.3381 19.1564C18.7723 19.152 18.7723 19.1554 18.7793 19.7257C18.7814 19.8546 18.7842 19.9632 18.7765 20.0838C18.7079 20.1181 18.6499 20.1403 18.5698 20.1614C18.3107 20.1604 18.0736 20.1605 17.8257 20.1512C17.8049 20.2256 17.7947 20.3093 17.7784 20.4072C17.6581 20.5391 17.5345 20.6496 17.432 20.7761C17.2959 20.9441 17.1658 21.1117 16.9363 21.1668C16.9084 21.1735 16.8655 21.1894 16.8608 21.2083C16.8182 21.3796 16.6787 21.3444 16.5576 21.346C16.4086 21.348 16.2596 21.3464 16.1107 21.3464C15.8046 21.3464 15.8128 21.3467 15.8011 21.6391C15.7958 21.7701 15.7504 21.8996 15.7198 22.0092C15.7163 21.3857 15.7163 20.7828 15.7163 20.162C16.0719 20.162 16.3909 20.162 16.7066 20.162C16.7066 19.8148 16.7066 19.4861 16.7208 19.1473C16.7551 19.1254 16.7751 19.1136 16.817 19.106C17.0923 19.106 17.3456 19.1017 17.6153 19.1031C17.6584 19.0818 17.6853 19.055 17.7212 19.0111C17.7301 18.4243 17.73 17.8547 17.7375 17.2697C17.7698 17.1928 17.7943 17.1312 17.8383 17.0757C18.1574 17.0817 18.4572 17.0817 18.764 17.0817C18.764 16.7248 18.764 16.4111 18.7763 16.089C18.8163 16.0699 18.8441 16.0593 18.8938 16.0525C19.1962 16.0564 19.4767 16.0564 19.7536 16.0564C19.7668 16.0109 19.7783 15.9898 19.7783 15.9688C19.7779 14.678 19.7767 13.3872 19.797 12.0927C20.137 12.089 20.4554 12.089 20.7818 12.089C20.7818 11.723 20.7818 11.4007 20.7818 11.0763C20.4431 11.0763 20.1199 11.0763 19.7727 11.0763C19.7727 11.4238 19.7727 11.7498 19.7562 12.0676C19.7037 12.0635 19.6675 12.0675 19.6108 12.0644C19.4451 12.0624 19.3 12.0674 19.1358 12.0664C19.0365 12.0646 18.9565 12.0687 18.8626 12.0658C18.8278 12.0839 18.8067 12.1089 18.7809 12.1549C18.7754 12.4255 18.7734 12.6752 18.7739 12.9249C18.7759 13.9535 18.7786 14.9822 18.7725 16.0193C18.7545 16.0405 18.7451 16.0533 18.714 16.0612C18.3815 16.0562 18.0709 16.0562 17.7544 16.0562C17.7544 16.4086 17.7544 16.7256 17.7329 17.0491C17.5339 17.0607 17.3566 17.0659 17.1579 17.0662C17.0138 17.0613 16.891 17.0613 16.7537 17.0613C16.7537 17.7455 16.7537 18.4065 16.7448 19.0866C16.4099 19.1144 16.0838 19.1231 15.7437 19.1163C15.7245 18.7854 15.7193 18.4699 15.7144 18.1356C15.4048 18.1105 15.0948 18.1025 14.7848 18.1022C14.7686 18.1021 14.7523 18.1668 14.732 18.2223C14.728 19.2097 14.728 20.1761 14.728 21.172C14.3872 21.172 14.0692 21.172 13.7259 21.172C13.7259 21.5074 13.7259 21.8139 13.7259 22.1273C13.5384 22.1382 13.3762 22.1476 13.1951 22.1503C13.0606 22.147 12.9449 22.1504 12.818 22.1468C12.7981 22.1415 12.7894 22.1432 12.7641 22.1482C12.7458 22.1724 12.744 22.1933 12.7382 22.2351C12.7359 22.5462 12.7376 22.8362 12.7223 23.1336C12.6228 23.1522 12.5403 23.1634 12.4359 23.1711C12.2056 23.1675 11.9971 23.1675 11.7468 23.1675C11.7468 23.5448 11.7468 23.8827 11.7249 24.2194C11.4435 24.2184 11.1838 24.2117 10.9249 24.2228C10.8481 24.2261 10.7107 24.2746 10.708 24.31C10.6887 24.5619 10.4958 24.6998 10.3269 24.8241C10.1393 24.9621 9.98856 25.1859 9.68137 25.1393C9.45411 25.1048 9.21678 25.1325 9.04161 25.1325C8.9546 25.3166 8.89158 25.45 8.82575 25.5893C9.00521 25.7165 9.01822 25.7898 8.88951 26.0325C8.87311 26.0634 8.87931 26.1056 8.87299 26.1406C8.87093 26.1388 8.87618 26.1408 8.85385 26.1386C8.57469 26.1247 8.31784 26.1062 8.06108 26.1073C8.01555 26.1075 7.93675 26.1853 7.93082 26.2338C7.90342 26.4577 7.88459 26.684 7.88609 26.9092C7.88711 27.0626 7.82761 27.1012 7.67937 27.1009C7.42511 27.1003 7.17081 27.1202 6.88642 27.1328C6.88642 27.4767 6.88642 27.7849 6.88244 28.1129C6.87773 28.2266 6.877 28.3205 6.8674 28.4109C6.85852 28.4074 6.83943 28.4064 6.83276 28.3983C6.8145 28.3808 6.80112 28.3761 6.77006 28.3788C6.70668 28.4357 6.65704 28.4883 6.6123 28.5446C6.55073 28.6221 6.50221 28.7115 6.43108 28.779C6.34046 28.865 6.23283 28.9343 6.12268 29.0155C6.10046 29.0288 6.09179 29.04 6.07069 29.0537C6.03301 29.053 6.01149 29.0525 5.97963 29.042C5.94575 29.0866 5.92219 29.1412 5.88695 29.2079C5.82756 29.475 5.59303 29.587 5.40772 29.6903C5.18533 29.8144 4.97999 29.9303 4.84217 30.1497C4.81886 30.1489 4.80551 30.1489 4.79217 30.1498C4.78672 29.4964 4.78127 28.8429 4.80111 28.1683C5.09902 28.1454 5.37195 28.15 5.64405 28.1377C5.71276 28.1346 5.77884 28.0772 5.84612 28.0448C5.84612 25.7806 5.84612 23.5165 5.8711 21.2317C6.00711 21.1919 6.11813 21.1727 6.22915 21.1536C6.40328 21.1459 6.5774 21.1382 6.77239 21.1512C6.80882 21.2151 6.8244 21.2582 6.83998 21.3014C6.84223 21.7745 6.84449 22.2477 6.82905 22.7551C6.80562 22.8341 6.79563 22.8787 6.79485 22.9234C6.78984 23.2105 6.79699 23.2172 7.09375 23.2179C7.29003 23.2183 7.48661 23.2239 7.68243 23.2147C7.75098 23.2115 7.81766 23.1712 7.8852 23.1478C7.88545 22.6377 7.8857 22.1277 7.90861 21.5935C7.96124 21.4979 8.01633 21.4264 8.01619 21.355C8.01586 21.1821 7.97747 21.0094 7.97626 20.8364C7.97115 20.1068 7.97598 19.3772 7.97101 18.6476C7.97051 18.574 7.92849 18.5008 7.90573 18.4273C7.90573 18.3299 7.90573 18.2324 7.90573 18.117C8.22432 18.117 8.54191 18.117 8.88799 18.117C8.88799 18.4338 8.88799 18.7564 8.88799 19.1023C9.22649 19.1023 9.53788 19.1023 9.87689 19.1023C9.87689 19.4563 9.87689 19.7871 9.87689 20.1339C10.1917 20.1339 10.4785 20.1339 10.7834 20.1339C10.7834 18.4617 10.7834 16.7861 10.7834 15.0875C11.1069 15.0875 11.4163 15.0875 11.7531 15.0875C11.7531 15.7334 11.7531 16.3906 11.7531 17.0664C12.0803 17.0664 12.381 17.0664 12.7082 17.0664C12.7082 15.7436 12.7082 14.4253 12.7082 13.082C13.0516 13.082 13.3698 13.082 13.7205 13.082C13.7205 13.7214 13.7205 14.3763 13.7205 15.0476C14.0551 15.0476 14.3582 15.0476 14.6809 15.0476C14.6809 13.7455 14.6809 12.4422 14.6809 11.1101C15.0305 11.1101 15.3626 11.1101 15.7231 11.1101C15.7231 10.3865 15.7231 9.69113 15.7231 8.98319C16.0707 8.98319 16.3891 8.98319 16.7386 8.98319C16.7386 10.3495 16.7386 11.7055 16.7386 13.0734C17.0358 13.0734 17.302 13.072 17.5683 13.074C17.7259 13.0751 17.7367 12.9806 17.7364 12.8612C17.7347 12.1086 17.7373 11.356 17.7385 10.6034C17.7398 9.81282 17.7459 9.02219 17.739 8.23167C17.7374 8.04339 17.8012 7.97326 17.9969 7.98337C18.2394 7.9959 18.4832 7.98637 18.7628 7.98637C18.7628 8.31829 18.7628 8.64078 18.7628 8.97343C19.1174 8.97343 19.4356 8.97343 19.78 8.97343C19.78 8.88507 19.7799 8.80408 19.78 8.72309C19.7822 7.59042 19.7838 6.45774 19.787 5.32507C19.788 4.94419 19.7614 5.00975 20.1476 4.99756C20.38 4.99311 20.5715 4.98805 20.7631 4.98299C20.7828 5.23894 20.8026 5.49489 20.8235 5.7872C20.8511 5.88441 20.8776 5.94525 20.9041 6.0061C21.1726 6.01041 21.441 6.01473 21.7463 6.0155C21.7974 5.9691 21.8117 5.92624 21.8259 5.88337C21.834 5.35251 21.8413 4.82164 21.8507 4.2908C21.8523 4.20038 21.8628 4.11011 21.903 4.00502C22.1994 3.98887 22.4622 3.99084 22.7247 3.98346C22.7829 3.98183 22.8401 3.94719 22.8978 3.92775C22.9007 3.13429 22.9035 2.34084 22.9069 1.51022C22.9167 1.01305 22.926 0.553038 22.9352 0.0930253C22.9352 0.0930253 22.9333 0.0909998 22.9554 0.0937655C23.2615 0.0923487 23.5453 0.0881667 23.8292 0.0839844C23.8625 0.13848 23.9222 0.191916 23.9246 0.247653C23.9348 0.485244 23.9281 0.723515 23.9272 0.992717C23.926 1.03179 23.9251 1.03968 23.922 1.06897C23.9209 1.34051 23.9347 1.5914 23.9192 1.84057C23.907 2.03456 23.9588 2.11481 24.1758 2.1C24.4332 2.08245 24.693 2.09873 24.9518 2.10035C24.9577 2.39401 24.9636 2.68767 24.9709 3.01487C24.9779 3.06847 24.9834 3.08854 24.9787 3.12156C24.9807 3.23071 24.9931 3.3269 25.0051 3.44435C24.9935 3.95275 24.9821 4.4399 24.9669 4.94258C24.9631 4.9792 24.9632 5.00029 24.9633 5.02137ZM21.7701 7.96742C21.7804 7.67425 21.7958 7.38106 21.7944 7.08794C21.7943 7.05218 21.7061 6.98867 21.656 6.9861C21.4371 6.97486 21.2167 6.97336 20.9981 6.98736C20.9474 6.9906 20.8629 7.06683 20.8605 7.11268C20.8473 7.36974 20.8489 7.628 20.8596 7.8853C20.8615 7.93325 20.9281 8.01879 20.965 8.01883C21.2215 8.01914 21.478 8.00147 21.7701 7.96742Z" fill="currentColor"/>
<path d="M17.8368 20.1607C18.0739 20.1606 18.311 20.1605 18.5813 20.1755C18.6384 20.2352 18.6825 20.2795 18.683 20.3243C18.6855 20.5513 18.6608 20.7797 18.6804 21.0048C18.6875 21.087 18.7837 21.2222 18.8506 21.229C19.1427 21.2589 19.4392 21.2589 19.7337 21.2539C20.1635 21.2465 20.5932 21.2115 21.0228 21.2132C21.7707 21.2162 21.643 21.0888 21.6617 21.8398C21.6661 22.0152 21.6055 22.085 21.4183 22.0825C21.2624 22.0803 21.1059 22.1171 20.9496 22.1366C20.9012 22.1656 20.8529 22.1946 20.7839 22.2455C20.7723 22.3411 20.7814 22.4149 20.7905 22.4887C20.7941 22.6571 20.7977 22.8256 20.8003 23.0258C20.7957 23.0652 20.7922 23.0728 20.7679 23.0805C19.5768 23.0809 18.4064 23.0798 17.2361 23.0844C17.1527 23.0847 17.0695 23.1266 16.9861 23.1492C16.9206 23.1546 16.855 23.16 16.7556 23.1625C16.6922 23.1795 16.6378 23.1984 16.6369 23.2193C16.6275 23.456 16.6235 23.6929 16.6241 23.9298C16.6244 24.017 16.5986 24.1291 16.7508 24.1309C16.8629 24.1339 16.9749 24.1369 17.1129 24.16C17.1653 24.1936 17.1914 24.2184 17.218 24.2189C17.7531 24.2292 18.2884 24.2437 18.8235 24.2402C18.9668 24.2393 19.1098 24.1818 19.253 24.1503C19.303 24.1474 19.3531 24.1444 19.4221 24.162C19.5397 24.2413 19.6383 24.2999 19.7369 24.3586C19.7369 24.3586 19.7455 24.3792 19.7253 24.4007C19.7158 24.5392 19.7264 24.6562 19.7371 24.7731C19.7407 24.8497 19.7443 24.9262 19.719 25.022C19.5724 25.0415 19.451 25.024 19.3373 25.0452C18.5859 25.1856 18.6264 24.9109 18.6441 25.7166C18.6485 25.9154 18.5685 25.9926 18.3801 26C17.9857 26.0154 17.5912 26.0423 17.1967 26.043C16.8374 26.0436 16.4782 26.004 16.1189 26.0039C15.6937 26.0038 15.6191 26.0853 15.6192 26.4797C15.6192 26.6543 15.6077 26.83 15.6256 27.0029C15.6321 27.0664 15.705 27.1724 15.7532 27.1755C16.2246 27.2049 16.6971 27.227 17.1694 27.2282C17.3484 27.2287 17.463 27.3063 17.5283 27.4353C17.5917 27.5603 17.5774 27.6934 17.4312 27.7923C17.3608 27.8398 17.3234 27.9327 17.2489 28.0059C16.9105 28.0061 16.5944 28.0056 16.274 27.9873C16.064 27.9035 15.8585 27.8402 15.6449 28.0055C14.8326 28.0066 14.0425 28.0051 13.2524 28.01C13.1765 28.0105 13.1009 28.0502 13.0252 28.0717C12.9742 28.0774 12.9233 28.083 12.8358 28.0881C12.7823 28.1225 12.7654 28.1575 12.7485 28.1925C12.7485 28.1925 12.7402 28.189 12.7169 28.1896C12.6675 28.2037 12.619 28.217 12.6189 28.2306C12.6172 28.4746 12.617 28.7189 12.6294 28.9625C12.6311 28.9953 12.7022 29.0248 12.7412 29.0558C12.7412 29.0558 12.7401 29.056 12.7405 29.0735C12.7744 29.1236 12.8066 29.1829 12.8417 29.1846C13.0489 29.1947 13.2567 29.1924 13.4644 29.1925C14.0839 29.193 14.7035 29.1908 15.3231 29.1934C15.5919 29.1946 15.6651 29.3049 15.5596 29.5275C15.5378 29.5733 15.5288 29.6276 15.5257 29.6786C15.5062 30.004 15.4948 30.0155 15.1497 30.0155C13.8008 30.0155 12.4519 30.0141 11.1029 30.018C11.019 30.0182 10.9353 30.0589 10.8447 30.0944C10.8293 30.1369 10.8206 30.1658 10.7979 30.2054C10.7283 30.4832 10.6726 30.7503 10.5949 31.0176C10.0034 31.0178 9.43399 31.0155 8.86466 31.0204C8.78613 31.021 8.70793 31.0573 8.62958 31.077C8.56668 31.0822 8.50378 31.0874 8.4106 31.0692C7.93075 31.036 7.48119 31.0264 7.03101 30.9954C7.03035 30.7849 7.04151 30.5949 7.02698 30.4067C7.01333 30.23 7.08762 30.1895 7.25732 30.193C7.72686 30.2029 8.19681 30.2004 8.66643 30.1927C8.7351 30.1916 8.80283 30.1357 8.87752 30.0986C8.88405 30.0921 8.90044 30.101 8.92039 30.0986C8.96442 30.0471 9.00893 29.9982 9.00943 29.9488C9.01459 29.4408 9.01473 28.9327 9.00919 28.4247C9.00867 28.377 8.9598 28.3297 8.93112 28.2638C8.99842 28.2024 9.06572 28.1272 9.13796 28.1225C9.37712 28.1068 9.61806 28.1165 9.889 28.1165C9.889 27.7719 9.889 27.4639 9.889 27.1406C10.1196 27.1257 10.3202 27.1128 10.5357 27.1062C10.6304 27.091 10.7104 27.0693 10.7954 27.027C10.8048 26.7326 10.8092 26.459 10.835 26.182C11.1512 26.1787 11.4461 26.1787 11.7403 26.1787C11.7598 25.816 11.7772 25.4935 11.8164 25.175C12.1331 25.1789 12.4279 25.1789 12.7219 25.1789C12.7219 24.499 12.7219 23.856 12.7367 23.2105C12.7614 23.2077 12.7714 23.2074 12.7942 23.2225C13.405 23.2462 14.0028 23.2565 14.6007 23.2581C14.6396 23.2582 14.6787 23.1914 14.7139 23.1357C14.7139 22.8143 14.7176 22.5131 14.742 22.203C15.0184 22.1895 15.2743 22.188 15.5299 22.1775C15.587 22.1751 15.6427 22.1407 15.7037 22.1059C15.7134 22.0705 15.7185 22.0502 15.7235 22.0299C15.7507 21.8997 15.7962 21.7702 15.8014 21.6391C15.8132 21.3468 15.805 21.3464 16.111 21.3464C16.26 21.3464 16.409 21.3481 16.5579 21.3461C16.679 21.3445 16.8186 21.3797 16.8612 21.2084C16.8659 21.1895 16.9088 21.1736 16.9367 21.1669C17.1662 21.1117 17.2962 20.9441 17.4323 20.7762C17.5348 20.6497 17.6584 20.5392 17.7927 20.3958C17.8207 20.3002 17.8288 20.2304 17.8368 20.1607Z" fill="currentColor"/>
<path d="M3.73745 34.0142C3.75124 34.2176 3.76502 34.421 3.77842 34.6623C3.78105 34.7348 3.78405 34.7694 3.78705 34.8041C3.77843 34.8692 3.76982 34.9344 3.75915 35.015C3.48613 35.015 3.22231 35.015 2.92284 35.015C2.92284 35.3359 2.92284 35.641 2.89796 35.9673C2.63172 35.9887 2.39032 35.9916 2.14902 35.988C2.03642 35.9863 1.97921 36.0166 1.97631 36.1398C1.96961 36.4244 1.94893 36.7086 1.91288 37.0001C1.64438 37.0076 1.39677 37.0038 1.14956 37.0117C1.10004 37.0133 1.05204 37.0593 1.00333 37.0848C1.00418 37.6486 1.00503 38.2124 1.00645 38.8113C1.01006 38.8675 1.0131 38.8886 1.01614 38.9098C0.921693 38.9315 0.827853 38.9685 0.732675 38.9721C0.491781 38.9811 0.250286 38.9751 0 38.9751C0 38.3087 0 37.6678 0 37.0147C0.323983 37.0147 0.634485 37.0147 0.973654 37.0147C0.973654 36.3416 0.973654 35.6799 0.973654 34.9896C1.22013 34.9896 1.438 34.9896 1.68606 35.0015C1.79069 34.9936 1.86513 34.974 1.93957 34.9543C1.94251 34.7198 1.95519 34.4849 1.94513 34.2508C1.93792 34.0829 1.99522 34.0268 2.17205 34.0305C2.68064 34.0411 3.1896 34.0351 3.72015 34.0261C3.74188 34.0165 3.73745 34.0142 3.73745 34.0142Z" fill="currentColor"/>
<path d="M22.9131 13.0525C22.89 12.4603 22.8922 11.8685 22.8848 11.2769C22.883 11.1315 22.9274 11.0707 23.0851 11.0788C23.2886 11.0892 23.4938 11.0715 23.697 11.0844C23.8679 11.0953 23.9407 11.0485 23.9285 10.8716C23.9144 10.6677 23.9325 10.4618 23.9238 10.2573C23.9178 10.1167 23.9747 10.0696 24.1161 10.075C24.3356 10.0832 24.5558 10.0722 24.7752 10.0804C24.8991 10.085 24.9717 10.0505 24.9767 9.92349C24.9867 9.66681 25.0034 9.41014 25.0038 9.15345C25.004 9.02783 25.034 8.95043 25.1582 8.8822C25.2929 8.80818 25.4038 8.69063 25.5172 8.58425C25.6245 8.48361 25.7196 8.37096 25.8251 8.26839C25.8423 8.25171 25.8853 8.2599 25.9351 8.25635C25.9538 9.1723 25.9538 10.0885 25.9538 11.0276C25.631 11.0276 25.3132 11.0276 24.9697 11.0276C24.9697 11.3639 24.9697 11.6785 24.9697 12.0458C24.6351 12.0458 24.3253 12.0458 23.9784 12.0494C23.935 12.0798 23.9286 12.1066 23.9222 12.1333C23.9084 12.4252 23.8946 12.7172 23.8788 13.0531C23.5651 13.0531 23.25 13.0531 22.9131 13.0525Z" fill="currentColor"/>
<path d="M10.8015 32.1118C10.8015 32.4353 10.8015 32.7587 10.8015 33.1028C9.1713 33.1028 7.52558 33.1028 5.86328 33.1028C5.86328 32.7981 5.86328 32.4838 5.86328 32.1197C7.4847 32.1197 9.10017 32.1197 10.7492 32.1195C10.7914 32.1174 10.8 32.1156 10.8065 32.1145C10.8044 32.1152 10.8015 32.1118 10.8015 32.1118Z" fill="currentColor"/>
<path d="M18.7809 19.7053C18.773 19.1553 18.7731 19.1518 19.3389 19.1563C19.9254 19.1609 19.8114 19.1223 19.8149 18.7064C19.8199 18.1074 19.8167 18.1073 20.4432 18.1079C20.553 18.1081 20.6628 18.109 20.7977 18.1308C20.8278 18.2444 20.8327 18.3368 20.8376 18.4292C20.8327 18.6124 20.8278 18.7956 20.8222 19.0147C20.8493 19.0793 20.877 19.1079 20.9126 19.1519C20.9948 19.1793 21.0691 19.2012 21.1434 19.2016C21.7226 19.2044 22.3018 19.203 22.8809 19.203C22.884 19.2666 22.8871 19.3303 22.8676 19.4173C22.8273 19.5783 22.7975 19.7157 22.7954 19.8535C22.7935 19.9803 22.7494 20.0246 22.6167 20.027C22.0922 20.0362 21.568 20.063 21.0435 20.0687C20.3522 20.0763 19.6608 20.0702 18.9694 20.0503C18.9482 19.8997 19.0473 19.7036 18.7809 19.7053Z" fill="currentColor"/>
<path d="M20.8555 18.0849C20.8555 17.7685 20.8555 17.452 20.8555 17.156C21.2877 16.9812 21.7466 17.2852 22.1342 16.9611C22.447 16.6996 22.8238 16.5037 22.9787 16.0557C23.2614 16.0557 23.5657 16.0557 23.8913 16.0547C23.9126 16.3787 23.9126 16.7037 23.9126 17.0558C23.5747 17.0558 23.2495 17.0558 22.8993 17.0558C22.8993 17.4126 22.8993 17.7428 22.8993 18.099C22.7661 18.099 22.6581 18.099 22.5105 18.0988C22.4049 18.1026 22.339 18.1068 22.273 18.111C21.8469 18.1079 21.4209 18.1048 20.9581 18.1006C20.8994 18.0947 20.8774 18.0898 20.8555 18.0849Z" fill="currentColor"/>
<path d="M3.78025 25.4994C3.78008 25.4214 3.77991 25.3434 3.80817 25.247C4.14769 25.227 4.45877 25.2253 4.76985 25.2236C4.77832 25.8747 4.78801 26.5258 4.79471 27.177C4.79759 27.4574 4.79429 27.7378 4.783 28.0378C4.7722 28.0573 4.77187 28.06 4.77187 28.06C4.51881 28.0655 4.26575 28.0709 3.98469 28.0586C3.89743 28.0293 3.83816 28.0179 3.7789 28.0065C3.77521 27.4431 3.77152 26.8797 3.78415 26.281C3.79373 25.9969 3.78699 25.7482 3.78025 25.4994Z" fill="currentColor"/>
<path d="M6.86712 28.4108C6.87445 28.968 6.8729 29.5219 6.85637 30.0885C6.77548 30.0987 6.70959 30.0963 6.60333 30.0934C6.38838 30.0965 6.21379 30.0998 6.0392 30.1032C5.88381 30.0598 5.8263 30.1225 5.82911 30.2715C5.83406 30.5341 5.8305 30.7968 5.8305 31.0725C5.46743 31.0898 5.13059 31.1058 4.76011 31.1379C4.4726 31.1414 4.21872 31.1289 3.96484 31.1163C4.23045 31.1043 4.49606 31.0923 4.79744 31.0605C4.83942 30.7438 4.84564 30.4467 4.85186 30.1497C4.97971 29.9302 5.18506 29.8144 5.40745 29.6903C5.59276 29.5869 5.82728 29.475 5.90072 29.2013C5.94753 29.139 5.96861 29.0955 5.98969 29.0519C6.01122 29.0524 6.03274 29.0529 6.08149 29.0506C6.12229 29.0388 6.13014 29.0265 6.13226 29.0107C6.23256 28.9342 6.34019 28.8649 6.43081 28.7789C6.50194 28.7114 6.55046 28.622 6.61202 28.5446C6.65676 28.4883 6.70641 28.4356 6.7763 28.3877C6.79874 28.394 6.81681 28.4067 6.81681 28.4067L6.83916 28.4063C6.83916 28.4063 6.85825 28.4074 6.86712 28.4108Z" fill="currentColor"/>
<path d="M13.6873 31.2011C13.6922 31.2496 13.6971 31.2981 13.7017 31.3847C13.6967 31.6221 13.6919 31.8214 13.6649 32.02C12.7077 32.0213 11.7728 32.0233 10.8379 32.0254C10.8388 31.7313 10.8398 31.4372 10.8464 31.1255C10.8521 31.1078 10.8529 31.1107 10.8704 31.1153C10.9234 31.1172 10.9588 31.1146 10.9943 31.112C11.8611 31.1152 12.728 31.1185 13.6185 31.1428C13.6573 31.1763 13.6723 31.1887 13.6873 31.2011Z" fill="currentColor"/>
<path d="M3.30565 31.053C3.12612 31.0529 2.94658 31.0529 2.74805 31.0529C2.74805 30.3932 2.74805 29.7399 2.74805 29.0742C3.08543 29.0742 3.41219 29.0742 3.78028 29.0742C3.78028 29.7082 3.78028 30.3416 3.75605 30.9968C3.58977 31.0301 3.44771 31.0415 3.30565 31.053Z" fill="currentColor"/>
<path d="M3.94707 31.1132C4.21989 31.1287 4.47377 31.1412 4.75008 31.1546C4.77504 31.78 4.77756 32.4046 4.75077 33.0486C4.41967 33.069 4.11787 33.0699 3.81648 33.0494C3.80285 32.7379 3.78882 32.4478 3.77479 32.1577C3.77309 31.8236 3.77139 31.4894 3.77149 31.1335C3.77328 31.1117 3.77492 31.1154 3.77492 31.1154C3.82599 31.1137 3.87706 31.112 3.94707 31.1132Z" fill="currentColor"/>
<path d="M22.7921 13.0444C22.8147 13.0444 22.8373 13.0444 22.8765 13.0476C22.8931 13.3594 22.8931 13.6681 22.8931 14.0071C22.5852 14.0071 22.2983 14.0157 22.0124 14.0037C21.8562 13.9972 21.795 14.0486 21.7894 14.2135C21.4945 14.3132 21.4026 14.5015 21.5063 14.7557C21.5461 14.8531 21.5773 14.9538 21.6124 15.0529C21.4068 15.0534 21.2012 15.0539 20.9737 15.0342C20.9204 14.9052 20.8889 14.7965 20.8575 14.6878C20.8572 14.6675 20.8568 14.6472 20.8749 14.6081C20.9444 14.4248 20.9955 14.2605 21.0465 14.0961C21.1751 13.9889 21.3036 13.8818 21.4646 13.7803C21.7636 13.754 21.9692 13.5795 22.0357 13.3737C22.1247 13.0984 22.3239 13.1264 22.5167 13.0932C22.6613 13.0684 22.7049 13.1347 22.6941 13.2759C22.6788 13.4771 22.6902 13.6803 22.6902 13.8826C22.7242 13.8825 22.7581 13.8824 22.7921 13.8823C22.7921 13.603 22.7921 13.3237 22.7921 13.0444Z" fill="currentColor"/>
<path d="M24.9707 4.92702C24.9821 4.43987 24.9934 3.95272 25.0188 3.43296C25.0405 3.33108 25.0483 3.2618 25.0781 3.19292C25.3747 3.19154 25.6492 3.18976 25.9237 3.18799C25.9288 3.24124 25.9339 3.2945 25.9162 3.36993C25.8815 3.64519 25.8696 3.89828 25.8579 4.17267C25.8579 4.37405 25.8671 4.55488 25.852 4.73379C25.8475 4.78691 25.7791 4.87325 25.7323 4.87839C25.4798 4.90605 25.2248 4.91295 24.9707 4.92702Z" fill="currentColor"/>
<path d="M23.9241 6.97993C23.9243 6.72991 23.9227 6.47986 23.9256 6.22986C23.9274 6.07324 23.9643 5.96753 24.1529 5.89323C24.3191 5.82776 24.4474 5.65673 24.5732 5.51621C24.6709 5.40709 24.7655 5.33249 24.9368 5.37768C24.9561 5.80787 24.9594 6.23536 24.962 6.7007C24.9646 6.77324 24.9679 6.80792 24.9712 6.84261C24.9715 6.87808 24.9718 6.91356 24.9525 6.96726C24.5966 6.98364 24.2603 6.98179 23.9241 6.97993Z" fill="currentColor"/>
<path d="M18.9691 20.0699C19.6605 20.0702 20.352 20.0763 21.0433 20.0687C21.5678 20.063 22.092 20.0362 22.6165 20.027C22.7492 20.0246 22.7932 19.9803 22.7952 19.8535C22.7973 19.7157 22.8271 19.5783 22.8631 19.436C22.8813 19.6574 22.8813 19.8834 22.8813 20.1443C21.577 20.1443 20.2708 20.1443 18.922 20.1442C18.8418 20.1857 18.7752 20.2252 18.7719 20.2692C18.7609 20.4148 18.7728 20.562 18.7758 20.7086C18.7717 20.8172 18.7675 20.9258 18.7683 21.0688C18.7913 21.1082 18.8094 21.1131 18.8275 21.118C19.7225 21.1223 20.6176 21.1265 21.5126 21.1307C21.5894 21.1311 21.6662 21.1308 21.7572 21.1308C21.7572 21.4727 21.7572 21.7962 21.7572 22.152C21.5031 22.152 21.2473 22.152 20.9706 22.1442C21.106 22.1169 21.2626 22.0802 21.4185 22.0823C21.6057 22.0849 21.6663 22.0151 21.6619 21.8397C21.6432 21.0886 21.7708 21.216 21.023 21.213C20.5934 21.2113 20.1637 21.2463 19.7339 21.2537C19.4393 21.2587 19.1429 21.2587 18.8508 21.2288C18.7839 21.222 18.6877 21.0869 18.6805 21.0046C18.661 20.7795 18.6857 20.5511 18.6831 20.3241C18.6826 20.2793 18.6386 20.235 18.6035 20.1765C18.6504 20.1402 18.7085 20.118 18.795 20.0835C18.8721 20.0708 18.9206 20.0704 18.9691 20.0699Z" fill="currentColor"/>
<path d="M17.2707 28.0051C17.3231 27.9327 17.3605 27.8398 17.4308 27.7923C17.5771 27.6934 17.5914 27.5603 17.528 27.4353C17.4627 27.3063 17.348 27.2286 17.1691 27.2282C16.6968 27.227 16.2243 27.2049 15.7529 27.1755C15.7047 27.1724 15.6318 27.0664 15.6253 27.0029C15.6074 26.83 15.6189 26.6543 15.6189 26.4796C15.6188 26.0853 15.6934 26.0038 16.1186 26.0039C16.4778 26.004 16.8371 26.0436 17.1964 26.043C17.5909 26.0423 17.9853 26.0154 18.3798 26C18.5682 25.9926 18.6482 25.9154 18.6438 25.7166C18.6261 24.9109 18.5856 25.1856 19.337 25.0452C19.4507 25.024 19.5721 25.0415 19.7124 25.0403C19.7169 25.0743 19.7022 25.1367 19.68 25.1393C19.5807 25.1512 19.4793 25.146 19.3391 25.1467C19.1185 25.1464 18.9374 25.1464 18.7427 25.1464C18.7427 25.25 18.7427 25.3288 18.7427 25.4076C18.7427 25.6398 18.7427 25.872 18.7427 26.1358C17.7534 26.1358 16.8018 26.1358 15.814 26.1366C15.7701 26.1525 15.7626 26.1677 15.755 26.1828C15.755 26.4823 15.755 26.7819 15.755 27.0989C16.396 27.0989 17.0335 27.0989 17.6997 27.0989C17.6997 27.3993 17.6997 27.6831 17.6728 27.9874C17.5208 28.007 17.3958 28.0061 17.2707 28.0051Z" fill="currentColor"/>
<path d="M23.8926 14.9601C23.9065 14.6669 23.9204 14.3736 23.9352 14.062C24.2647 14.062 24.5911 14.062 24.9526 14.062C24.9526 14.3723 24.9581 14.6885 24.9447 15.0039C24.9432 15.0381 24.8331 15.0927 24.7713 15.0954C24.5047 15.1074 24.2372 15.1036 23.9465 15.0851C23.9173 15.0525 23.9116 15.0404 23.9031 15.0168C23.8977 14.9903 23.8952 14.9752 23.8926 14.9601Z" fill="currentColor"/>
<path d="M24.9578 2.07951C24.6935 2.0988 24.4336 2.08251 24.1763 2.10007C23.9592 2.11488 23.9075 2.03462 23.9196 1.84064C23.9352 1.59147 23.9213 1.34057 23.9406 1.07551C24.2636 1.05765 24.566 1.0547 24.8685 1.05176C24.8985 1.12189 24.9514 1.19108 24.9546 1.26234C24.9664 1.52739 24.9618 1.79312 24.9578 2.07951Z" fill="currentColor"/>
<path d="M10.8516 30.0807C10.9354 30.0588 11.0192 30.0181 11.1031 30.0179C12.452 30.0141 13.8009 30.0154 15.1499 30.0155C15.4949 30.0155 15.5064 30.0039 15.5259 29.6785C15.5289 29.6275 15.5379 29.5733 15.5597 29.5274C15.6653 29.3048 15.592 29.1945 15.3232 29.1933C14.7037 29.1907 14.0841 29.1929 13.4645 29.1925C13.2569 29.1923 13.049 29.1946 12.8419 29.1845C12.8067 29.1828 12.7746 29.1235 12.7411 29.073C13.275 29.0642 13.8088 29.0761 14.3427 29.0813C14.7898 29.0857 15.2369 29.0822 15.6989 29.0822C15.6989 29.4193 15.6989 29.7344 15.6989 30.0892C14.1436 30.0892 12.5905 30.0892 10.9988 30.0883C10.924 30.0852 10.8878 30.083 10.8516 30.0807Z" fill="currentColor"/>
<path d="M1.93555 36.9929C1.95056 36.7085 1.97124 36.4243 1.97794 36.1397C1.98084 36.0165 2.03805 35.9862 2.15065 35.9879C2.39195 35.9915 2.63335 35.9885 2.89627 35.9882C2.92148 36.2641 2.91759 36.5405 2.93176 36.8159C2.93955 36.9675 2.87691 37.0199 2.69007 37.006C2.41086 37.0015 2.17321 36.9972 1.93555 36.9929Z" fill="currentColor"/>
<path d="M3.81644 33.0712C4.11824 33.0703 4.42004 33.0693 4.74387 33.0693C4.76969 33.1488 4.77346 33.2272 4.75504 33.3232C4.6307 33.2994 4.56223 33.311 4.57947 33.4391C4.58947 33.5134 4.61272 33.586 4.62256 33.6603C4.65513 33.906 4.62684 33.9362 4.3737 33.9377C3.86978 33.9406 3.87484 33.9405 3.86505 33.4502C3.86312 33.3533 3.80575 33.2574 3.77395 33.1611C3.77113 33.141 3.76832 33.1209 3.78018 33.0857C3.79486 33.0707 3.81644 33.0712 3.81644 33.0712Z" fill="currentColor"/>
<path d="M17.2493 28.0058C17.3965 28.0059 17.5216 28.0069 17.6673 28.008C17.622 28.0361 17.5558 28.0882 17.4897 28.0883C16.0158 28.0899 14.542 28.0859 13.0469 28.0772C13.1013 28.0501 13.177 28.0103 13.2528 28.0099C14.0429 28.005 14.8331 28.0064 15.6671 28.006C15.9001 28.0055 16.0894 28.0052 16.2786 28.0049C16.5948 28.0054 16.9109 28.006 17.2493 28.0058Z" fill="currentColor"/>
<path d="M17.0078 23.1549C17.0698 23.1262 17.153 23.0843 17.2364 23.084C18.4067 23.0794 19.5771 23.0805 20.7723 23.0939C20.7941 23.1264 20.7911 23.1452 20.788 23.1641C19.5351 23.163 18.2821 23.162 17.0078 23.1549Z" fill="currentColor"/>
<path d="M7.89904 18.4478C7.92838 18.5006 7.97041 18.5739 7.97091 18.6475C7.97587 19.377 7.97105 20.1067 7.97616 20.8363C7.97737 21.0092 8.01576 21.182 8.01608 21.3548C8.01622 21.4262 7.96113 21.4977 7.914 21.5726C7.89538 20.5401 7.89391 19.5042 7.89904 18.4478Z" fill="currentColor"/>
<path d="M3.76745 33.1787C3.80482 33.2574 3.86219 33.3533 3.86412 33.4502C3.87391 33.9404 3.86885 33.9405 4.37277 33.9376C4.62591 33.9361 4.6542 33.906 4.62163 33.6602C4.61179 33.586 4.58854 33.5134 4.57854 33.4391C4.5613 33.3109 4.62977 33.2993 4.74926 33.3423C4.76661 33.5673 4.76661 33.7905 4.76661 34.0431C4.43077 34.0431 4.10614 34.0431 3.75978 34.0286C3.73805 34.0141 3.74248 34.0165 3.7427 34.0186C3.74924 33.7459 3.75555 33.4712 3.76745 33.1787Z" fill="currentColor"/>
<path d="M19.2309 24.1446C19.1093 24.1816 18.9663 24.2391 18.8229 24.24C18.2878 24.2435 17.7526 24.229 17.2174 24.2187C17.1908 24.2181 17.1647 24.1934 17.1328 24.1644C17.8213 24.1457 18.5153 24.1424 19.2309 24.1446Z" fill="currentColor"/>
<path d="M10.8318 32.0317C11.7726 32.023 12.7075 32.021 13.669 32.0317C13.6964 32.053 13.6972 32.0615 13.698 32.0699C13.6067 32.0805 13.5154 32.0999 13.4241 32.1003C12.5646 32.1039 11.7051 32.1042 10.8235 32.1085C10.8013 32.1115 10.8042 32.1149 10.8141 32.1032C10.8196 32.0837 10.8151 32.076 10.8106 32.0682C10.8221 32.0613 10.8272 32.0514 10.8318 32.0317Z" fill="currentColor"/>
<path d="M6.91992 30.2175C6.99014 30.1618 7.06516 30.0979 7.1411 30.0968C7.70312 30.0891 8.26532 30.0938 8.84903 30.0998C8.80243 30.1355 8.73471 30.1913 8.66603 30.1925C8.19642 30.2001 7.72647 30.2026 7.25693 30.1928C7.08723 30.1893 7.01293 30.2298 7.02658 30.4065C7.04112 30.5947 7.02995 30.7847 7.02965 30.9964C7.0293 31.019 7.02743 31.0216 7.01742 31.0297C7.0018 31.0533 6.99619 31.0687 6.99059 31.0841C6.96985 31.0204 6.93367 30.9572 6.93118 30.8928C6.92273 30.6748 6.92622 30.4565 6.91992 30.2175Z" fill="currentColor"/>
<path d="M21.6317 15.0537C21.577 14.9538 21.5458 14.8531 21.5061 14.7557C21.4023 14.5015 21.4942 14.3132 21.7835 14.2319C21.8051 14.4903 21.809 14.7488 21.8103 15.0284C21.7556 15.0511 21.7034 15.0528 21.6317 15.0537Z" fill="currentColor"/>
<path d="M22.8829 19.1832C22.301 19.2028 21.7219 19.2042 21.1427 19.2014C21.0683 19.201 20.9941 19.1791 20.9238 19.1449C20.9354 19.1176 20.943 19.1125 20.9506 19.1074C21.5185 19.1101 22.0865 19.1111 22.6545 19.1177C22.7317 19.1186 22.8086 19.1476 22.8829 19.1832Z" fill="currentColor"/>
<path d="M24.9667 4.9424C25.2246 4.9128 25.4796 4.9059 25.7321 4.87824C25.7789 4.8731 25.8473 4.78676 25.8518 4.73364C25.8669 4.55473 25.8577 4.3739 25.8711 4.17193C25.9022 4.14984 25.92 4.14963 25.9378 4.14941C25.9378 4.4277 25.9378 4.70598 25.9378 5.02176C25.6384 5.02176 25.3227 5.02176 24.9851 5.02147C24.963 5.00011 24.9629 4.97903 24.9667 4.9424Z" fill="currentColor"/>
<path d="M10.6175 31.017C10.6732 30.7499 10.7288 30.4828 10.8057 30.2076C10.8269 30.1994 10.8422 30.2002 10.8422 30.2002C10.835 30.4595 10.8277 30.7189 10.8201 31.0166C10.8311 31.0734 10.8422 31.0919 10.8534 31.1103C10.8534 31.1103 10.8526 31.1074 10.8541 31.1072C10.7856 31.1024 10.7156 31.0977 10.6305 31.0701C10.616 31.0371 10.6168 31.0271 10.6175 31.017Z" fill="currentColor"/>
<path d="M7.86399 23.1516C7.81859 23.1709 7.75191 23.2112 7.68336 23.2144C7.48754 23.2236 7.29096 23.218 7.09468 23.2176C6.79793 23.2169 6.79077 23.2102 6.79578 22.9231C6.79657 22.8784 6.80655 22.8338 6.82531 22.7759C6.84936 22.8817 6.86039 23.0008 6.87473 23.1558C7.19559 23.1558 7.51872 23.1558 7.86399 23.1516Z" fill="currentColor"/>
<path d="M12.744 29.0346C12.7033 29.0249 12.6321 28.9953 12.6305 28.9625C12.6181 28.7189 12.6183 28.4747 12.62 28.2307C12.6201 28.2171 12.6686 28.2038 12.7136 28.1885C12.737 28.4622 12.7414 28.7378 12.744 29.0346Z" fill="currentColor"/>
<path d="M16.75 24.1093C16.599 24.1289 16.6248 24.0168 16.6246 23.9296C16.624 23.6928 16.6279 23.4558 16.6374 23.2191C16.6382 23.1982 16.6926 23.1793 16.7364 23.1655C16.7501 23.477 16.7494 23.7824 16.75 24.1093Z" fill="currentColor"/>
<path d="M7.03044 31.0176C7.48097 31.026 7.93054 31.0357 8.39284 31.0612C7.95682 31.0826 7.50807 31.0882 7.04246 31.0737C7.02627 31.0429 7.02694 31.0321 7.02761 31.0214C7.02761 31.0214 7.02948 31.0188 7.03044 31.0176Z" fill="currentColor"/>
<path d="M4.77174 28.0822C4.7712 28.0597 4.77154 28.057 4.77245 28.0571C5.11885 28.0614 5.46434 28.0656 5.82836 28.0571C5.7796 28.077 5.71353 28.1343 5.64482 28.1375C5.37271 28.1498 5.09978 28.1452 4.80628 28.1473C4.78103 28.1335 4.77665 28.1191 4.77174 28.0822Z" fill="currentColor"/>
<path d="M10.5958 31.0175C10.6171 31.0273 10.6164 31.0373 10.6146 31.0624C9.96716 31.0811 9.32068 31.0848 8.65234 31.0827C8.70883 31.0571 8.78703 31.0209 8.86556 31.0202C9.43489 31.0153 10.0043 31.0177 10.5958 31.0175Z" fill="currentColor"/>
<path d="M4.76665 25.2056C4.45779 25.2251 4.14671 25.2268 3.81474 25.2287C3.81195 25.2092 3.83019 25.1722 3.84813 25.1724C4.15359 25.1747 4.45901 25.1817 4.76665 25.2056Z" fill="currentColor"/>
<path d="M4.84188 30.1497C4.84562 30.4467 4.8394 30.7438 4.82101 31.052C4.7987 30.7724 4.78857 30.4816 4.78516 30.1703C4.80522 30.1488 4.81857 30.1488 4.84188 30.1497Z" fill="currentColor"/>
<path d="M3.81661 33.0496C3.81621 33.0711 3.79463 33.0706 3.78383 33.0707C3.76934 32.7781 3.76565 32.4854 3.76844 32.1753C3.78895 32.448 3.80298 32.7381 3.81661 33.0496Z" fill="currentColor"/>
<path d="M25.9269 3.17065C25.6492 3.18975 25.3747 3.19153 25.0784 3.17901C25.0566 3.14618 25.0567 3.12764 25.0683 3.10114C25.0879 3.08814 25.0958 3.08313 25.1038 3.07811C25.1846 3.08172 25.2654 3.08533 25.384 3.08932C25.4731 3.08487 25.5245 3.08003 25.5759 3.0752C25.6939 3.10124 25.812 3.12728 25.9269 3.17065Z" fill="currentColor"/>
<path d="M3.77313 25.5166C3.78636 25.7481 3.79311 25.9969 3.78708 26.2598C3.77175 26.0273 3.76919 25.7805 3.77313 25.5166Z" fill="currentColor"/>
<path d="M25.942 4.12861C25.9202 4.14975 25.9024 4.14996 25.8712 4.15076C25.8697 3.89825 25.8815 3.64516 25.9093 3.38477C25.9321 3.62087 25.9391 3.86428 25.942 4.12861Z" fill="currentColor"/>
<path d="M19.7447 24.3436C19.6393 24.2999 19.5408 24.2413 19.4414 24.167C19.5815 24.1493 19.7767 24.0582 19.7447 24.3436Z" fill="currentColor"/>
<path d="M3.32227 31.0603C3.44736 31.0416 3.58942 31.0302 3.75227 31.0181C3.76501 31.0403 3.75696 31.0633 3.76168 31.101C3.77445 31.1158 3.77281 31.112 3.77454 31.113C3.63059 31.0985 3.48491 31.0831 3.32227 31.0603Z" fill="currentColor"/>
<path d="M19.7442 24.7574C19.7259 24.656 19.7152 24.5391 19.7198 24.4106C19.7407 24.5134 19.7463 24.6276 19.7442 24.7574Z" fill="currentColor"/>
<path d="M6.21035 21.1465C6.11818 21.1726 6.00716 21.1918 5.87695 21.2109C5.96901 21.187 6.08026 21.1632 6.21035 21.1465Z" fill="currentColor"/>
<path d="M20.7964 22.4699C20.7822 22.4148 20.7731 22.341 20.7793 22.2632C20.7969 22.3231 20.7991 22.3872 20.7964 22.4699Z" fill="currentColor"/>
<path d="M1.92446 34.9624C1.86604 34.9739 1.7916 34.9936 1.70898 35.0034C1.77002 34.9859 1.83923 34.9782 1.92446 34.9624Z" fill="currentColor"/>
<path d="M3.77734 28.0234C3.83668 28.0176 3.89595 28.0297 3.9621 28.0557C3.90508 28.0601 3.84118 28.0508 3.77734 28.0234Z" fill="currentColor"/>
<path d="M6.84534 21.2899C6.82407 21.2581 6.80849 21.215 6.79297 21.1572C6.81237 21.1879 6.8317 21.2332 6.84534 21.2899Z" fill="currentColor"/>
<path d="M23.8281 15.0986C23.8425 15.0737 23.86 15.0598 23.8917 15.0371C23.9116 15.0404 23.9173 15.0525 23.9245 15.0846C23.927 15.1124 23.928 15.1204 23.9207 15.1372C23.8853 15.1339 23.8582 15.1218 23.8281 15.0986Z" fill="currentColor"/>
<path d="M13.689 31.1853C13.6733 31.1909 13.6583 31.1776 13.6367 31.1503C13.65 31.1463 13.6698 31.1564 13.689 31.1853Z" fill="currentColor"/>
<path d="M7.01805 31.0298C7.02739 31.0324 7.02672 31.0431 7.02305 31.0696C7.02004 31.0855 7.00532 31.0914 6.99826 31.0878C6.99682 31.0688 7.00243 31.0533 7.01805 31.0298Z" fill="currentColor"/>
<path d="M9.01379 26.1255C8.97937 26.1305 8.94494 26.1355 8.89299 26.1414C8.87974 26.1053 8.87354 26.0632 8.88993 26.0323C9.01864 25.7895 9.00563 25.7163 8.82617 25.589C8.892 25.4497 8.95503 25.3164 9.04204 25.1323C9.21721 25.1323 9.45454 25.1046 9.68179 25.139C9.98899 25.1856 10.1398 24.9619 10.3273 24.8238C10.4962 24.6995 10.6891 24.5616 10.7084 24.3097C10.7112 24.2743 10.8485 24.2258 10.9253 24.2225C11.1842 24.2115 11.4439 24.2181 11.7305 24.24C11.7608 24.5539 11.764 24.8456 11.7439 25.1396C11.4168 25.1392 11.1128 25.1366 10.7901 25.1385C10.7516 25.2028 10.7174 25.2619 10.7147 25.3223C10.707 25.4962 10.7023 25.6712 10.7147 25.8446C10.7264 26.008 10.6581 26.0515 10.4979 26.0483C10.075 26.0396 9.65171 26.0417 9.22876 26.0491C9.15665 26.0503 9.08543 26.0988 9.01379 26.1255Z" fill="currentColor"/>
<path d="M8.21027 27.1009C8.12575 27.1075 8.04123 27.1141 7.93049 27.1227C7.93049 27.4318 7.93049 27.7429 7.93049 28.0889C7.58032 28.0889 7.25569 28.0889 6.90889 28.0911C6.88672 27.785 6.88672 27.4768 6.88672 27.1329C7.17111 27.1203 7.42541 27.1004 7.67967 27.101C7.82791 27.1013 7.88741 27.0627 7.88638 26.9094C7.88488 26.6841 7.90372 26.4578 7.93111 26.2339C7.93705 26.1854 8.01585 26.1077 8.06138 26.1075C8.31814 26.1064 8.57499 26.1248 8.85414 26.1387C8.87763 26.4132 8.88184 26.6855 8.87719 26.9577C8.87633 27.0082 8.83977 27.0581 8.79815 27.0847C8.77252 26.9884 8.76843 26.9156 8.76445 26.845C8.43723 26.8316 8.26228 26.9159 8.21027 27.1009ZM8.23558 26.4666C8.44019 26.2793 8.52826 26.6255 8.70548 26.564C8.76882 26.1861 8.76614 26.1828 8.39994 26.1827C8.36856 26.1827 8.33718 26.1825 8.3058 26.1827C8.03318 26.1843 7.99557 26.222 8.02488 26.4914C8.03022 26.5405 8.07537 26.5855 8.10215 26.6325C8.14112 26.5877 8.18009 26.543 8.23558 26.4666Z" fill="currentColor"/>
<path d="M23.902 6.97871C23.9213 7.30298 23.9184 7.62608 23.9179 7.97114C23.6252 8.0035 23.3303 8.01807 23.0353 8.01874C23.0005 8.01882 22.9365 7.94338 22.9353 7.90158C22.9265 7.60694 22.9307 7.31193 22.9307 6.97754C23.2588 6.97754 23.5693 6.97754 23.902 6.97871Z" fill="currentColor"/>
<path d="M21.7529 7.97828C21.4785 8.00126 21.222 8.01892 20.9655 8.01862C20.9286 8.01857 20.862 7.93303 20.8601 7.88508C20.8494 7.62778 20.8478 7.36952 20.861 7.11246C20.8634 7.06661 20.9479 6.99039 20.9986 6.98715C21.2172 6.97315 21.4376 6.97465 21.6565 6.98588C21.7066 6.98845 21.7948 7.05196 21.7949 7.08772C21.7963 7.38084 21.7809 7.67404 21.7529 7.97828Z" fill="currentColor"/>
<path d="M22.7716 13.0412C22.7904 13.3237 22.7904 13.603 22.7904 13.8823C22.7564 13.8824 22.7225 13.8825 22.6885 13.8826C22.6885 13.6803 22.6771 13.4771 22.6924 13.2759C22.7032 13.1346 22.6596 13.0684 22.5151 13.0932C22.3222 13.1264 22.123 13.0984 22.034 13.3737C21.9675 13.5795 21.7619 13.754 21.4805 13.7798C21.5627 13.661 21.6398 13.5155 21.7628 13.4448C21.8946 13.3689 21.8843 13.2801 21.8973 13.1698C21.9041 13.112 21.9618 13.013 21.9976 13.0126C22.2492 13.0094 22.501 13.027 22.7716 13.0412Z" fill="currentColor"/>
<path d="M18.9686 20.0501C18.9201 20.0701 18.8715 20.0705 18.805 20.0712C18.7842 19.9628 18.7814 19.8542 18.7793 19.7253C19.0465 19.7033 18.9474 19.8995 18.9686 20.0501Z" fill="currentColor"/>
<path d="M21.0254 14.0957C20.9943 14.2604 20.9432 14.4248 20.8744 14.5928C20.8562 14.4769 20.8403 14.3546 20.8622 14.2391C20.8725 14.1845 20.9554 14.1429 21.0254 14.0957Z" fill="currentColor"/>
<path d="M20.8555 14.7075C20.8877 14.7964 20.9191 14.9051 20.9505 15.0337C20.9186 14.9448 20.8866 14.8361 20.8555 14.7075Z" fill="currentColor"/>
<path d="M24.9785 3.12136C25.0001 3.10558 25.0114 3.10275 25.0396 3.10443C25.0565 3.12748 25.0565 3.14601 25.0562 3.17845C25.0481 3.26163 25.0404 3.3309 25.0189 3.41153C24.9929 3.3267 24.9806 3.2305 24.9785 3.12136Z" fill="currentColor"/>
<path d="M17.8269 20.1509C17.8296 20.23 17.8215 20.2998 17.7996 20.3811C17.7959 20.3089 17.806 20.2252 17.8269 20.1509Z" fill="currentColor"/>
<path d="M5.98102 29.042C5.97027 29.0955 5.94919 29.139 5.91406 29.1891C5.92358 29.1411 5.94713 29.0866 5.98102 29.042Z" fill="currentColor"/>
<path d="M6.12238 29.0156C6.13011 29.0274 6.12227 29.0406 6.09762 29.0533C6.09149 29.0417 6.10016 29.0298 6.12238 29.0156Z" fill="currentColor"/>
<path d="M6.83324 28.3992C6.83991 28.4078 6.81756 28.4083 6.81756 28.4083C6.81756 28.4083 6.79949 28.3947 6.79297 28.3852C6.8016 28.3755 6.81497 28.3805 6.83324 28.3992Z" fill="currentColor"/>
<path d="M8.92116 30.0985C8.90801 29.5083 8.91481 28.9158 8.92788 28.3027C8.96057 28.3297 9.00944 28.3769 9.00996 28.4247C9.0155 28.9327 9.01536 29.4408 9.0102 29.9488C9.0097 29.9981 8.96519 30.0471 8.92116 30.0985Z" fill="currentColor"/>
<path d="M12.7949 23.2221C13.1028 23.1985 13.4236 23.1903 13.7612 23.1735C14.0772 23.1646 14.3764 23.1643 14.6969 23.1597C14.6794 23.191 14.6403 23.2578 14.6014 23.2577C14.0035 23.2561 13.4057 23.2458 12.7949 23.2221Z" fill="currentColor"/>
<path d="M16.2746 27.987C16.0896 28.005 15.9004 28.0053 15.6895 28.005C15.8591 27.8398 16.0647 27.9032 16.2746 27.987Z" fill="currentColor"/>
<path d="M10.7898 25.1387C10.8015 25.4609 10.7945 25.7876 10.7737 26.1305C10.1923 26.1426 9.62454 26.1384 9.03516 26.13C9.08515 26.099 9.15638 26.0505 9.22849 26.0492C9.65144 26.0418 10.0747 26.0398 10.4976 26.0484C10.6579 26.0517 10.7261 26.0082 10.7144 25.8447C10.7021 25.6714 10.7067 25.4963 10.7145 25.3225C10.7172 25.262 10.7513 25.2029 10.7898 25.1387Z" fill="currentColor"/>
<path d="M8.23242 27.1054C8.26317 26.9156 8.43812 26.8312 8.76534 26.8446C8.76932 26.9153 8.77341 26.9881 8.77747 27.0807C8.60286 27.1037 8.42827 27.107 8.23242 27.1054Z" fill="currentColor"/>
<path d="M8.22836 26.4825C8.18113 26.543 8.14216 26.5877 8.10319 26.6325C8.07641 26.5855 8.03126 26.5405 8.02592 26.4914C7.99661 26.222 8.03422 26.1843 8.30685 26.1827C8.33822 26.1825 8.3696 26.1827 8.40098 26.1827C8.76718 26.1828 8.76987 26.1861 8.70652 26.564C8.5293 26.6255 8.44123 26.2793 8.22836 26.4825Z" fill="currentColor"/>
</g>
</svg>
