<svg viewBox="0 0 39 39" fill="none" xmlns="http://www.w3.org/2000/svg">
<g clip-path="url(#clip0_104_2155)">
<path d="M20.5142 10.1972C20.5117 10.1888 20.5076 10.1805 20.507 10.172C20.443 9.25667 20.443 9.25675 21.2954 9.25734C21.6786 9.25761 22.0618 9.2575 22.4819 9.27063C22.5581 9.20622 22.6302 9.12941 22.6316 9.05115C22.6415 8.51361 22.6393 7.97572 22.6328 7.43807C22.6321 7.38023 22.5789 7.32311 22.55 7.26566C22.621 7.2373 22.6914 7.18641 22.763 7.18444C23.0887 7.17548 23.4147 7.18029 23.7666 7.2083C23.9246 7.35254 24.4439 7.37879 24.5618 7.27083C24.5828 7.25157 24.5845 7.20871 24.5951 7.17676C24.6255 7.25814 24.6822 7.33944 24.6825 7.42092C24.6857 8.58857 24.681 9.75625 24.6791 10.9239C24.678 11.6051 24.6786 12.2862 24.6583 12.9946C24.6131 13.0608 24.5881 13.0997 24.5631 13.1387C24.5994 13.152 24.6358 13.1653 24.6722 13.1786C24.816 13.1931 24.9599 13.2076 25.1311 13.2385C25.1685 13.2687 25.1814 13.2781 25.1999 13.3039C25.2434 13.3628 25.2837 13.4332 25.325 13.4339C25.7908 13.4418 26.2574 13.4523 26.7219 13.4262C26.8017 13.4217 26.873 13.2487 26.9483 13.1536C26.8713 13.0905 26.7944 13.0274 26.7174 12.9642C26.7146 12.8732 26.7117 12.7823 26.728 12.6663C26.7657 12.6072 26.7845 12.5733 26.8231 12.5345C26.8631 12.4856 26.8998 12.4419 26.9005 12.3974C26.9056 12.083 26.9032 11.7684 26.9032 11.3998C27.0084 11.3998 27.1347 11.3849 27.2566 11.4032C27.4639 11.4344 27.667 11.5106 27.8745 11.5242C28.1978 11.5453 28.5233 11.5299 28.8479 11.5299C28.8521 11.7617 28.8563 11.9935 28.8362 12.2486C28.657 12.238 28.5019 12.1807 28.3471 12.1816C28.285 12.1819 28.1867 12.3035 28.174 12.3823C28.1648 12.4397 28.2567 12.5431 28.3256 12.5797C28.4088 12.624 28.5152 12.6194 28.5812 12.6307C28.6823 12.5366 28.7664 12.4583 28.8506 12.38C28.854 12.6292 28.8574 12.8784 28.8428 13.155C28.7533 13.4004 28.9205 13.4471 29.0373 13.4334C29.3307 13.3989 29.6449 13.5936 29.9212 13.3478C29.9516 13.3208 30.0181 13.3343 30.0674 13.3371C30.3737 13.3548 30.6598 13.4335 30.8963 13.6555C30.9002 13.6955 30.904 13.7355 30.8836 13.7956C30.8129 13.8851 30.7265 13.9547 30.7268 14.0237C30.7288 14.3933 30.7524 14.7628 30.7685 15.1323C30.4493 15.137 30.1301 15.1417 29.7872 15.1209C29.6487 14.9363 29.0289 14.847 28.907 14.9806C28.8734 15.0175 28.8772 15.0926 28.8638 15.1503C28.8612 15.7868 28.8586 16.4233 28.8344 17.0874C28.7823 17.1863 28.7137 17.2713 28.7311 17.3252C28.7521 17.3902 28.8404 17.4594 28.9093 17.4735C29.1293 17.5183 29.2214 17.3696 29.2628 17.1678C29.3986 17.1644 29.5344 17.161 29.6954 17.183C29.9042 17.3907 30.2516 17.3688 30.3671 17.1679C30.954 17.1639 31.5409 17.1599 32.1514 17.1806C32.2591 17.2617 32.3432 17.3181 32.4274 17.3744C32.4305 17.9248 32.4336 18.4752 32.4165 19.0654C32.3892 19.2013 32.3777 19.2973 32.3758 19.3934C32.3562 20.4346 32.3381 21.4759 32.3196 22.5171C31.1723 22.5171 30.025 22.5171 28.856 22.5171C28.856 23.1634 28.856 23.7775 28.8281 24.4159C28.6441 24.4406 28.487 24.4311 28.332 24.4458C28.2553 24.4531 28.1824 24.5049 28.0848 24.5411C27.8434 24.5428 27.6248 24.54 27.4023 24.5191C27.317 24.5133 27.2356 24.5257 27.1324 24.5428C26.9758 24.6064 26.7533 24.4117 26.6806 24.7119C26.6528 25.0746 26.6441 25.4321 26.6394 25.7897C26.6392 25.8009 26.6801 25.8127 26.7065 25.8459C26.7111 26.1039 26.7111 26.3401 26.7111 26.5954C27.1475 26.5954 27.5547 26.6006 27.9616 26.5937C28.26 26.5886 28.5582 26.5677 28.857 26.5712C28.8591 26.5998 28.8607 26.6112 28.8623 26.6225C28.8623 27.3188 28.8623 28.0151 28.8623 28.7388C28.1519 28.7388 27.4563 28.7388 26.7192 28.7388C26.7192 28.903 26.7192 29.0403 26.6939 29.2011C26.6317 29.2665 26.5947 29.3083 26.5576 29.3501C26.6077 29.3785 26.6577 29.4069 26.7077 29.4353C26.7117 29.7024 26.7157 29.9694 26.694 30.2651C26.6295 30.5023 26.5908 30.7109 26.5521 30.9194C25.9547 30.9259 25.3573 30.9324 24.7164 30.9334C24.444 30.9516 24.5284 31.1761 24.5232 31.2767C24.5109 31.5171 24.345 31.8231 24.6775 31.9864C24.6806 32.0777 24.6837 32.1689 24.6626 32.2832C24.466 32.4176 24.4232 32.962 24.5798 33.0849C24.6033 33.1033 24.6441 33.0971 24.6769 33.1022C24.6803 33.1422 24.6837 33.1821 24.6665 33.2443C24.5952 33.3432 24.5445 33.4198 24.4938 33.4965C23.8658 33.509 23.2377 33.5215 22.5955 33.4984C22.5848 33.4312 22.5882 33.3995 22.6099 33.3675C22.9184 33.2459 22.9889 33.1411 22.8923 32.9833C22.7386 32.7321 22.63 32.4716 22.7202 32.1582C22.7329 32.1141 22.6664 32.0443 22.6239 31.9808C22.5785 31.9587 22.5457 31.9422 22.5128 31.9257C21.9842 31.9273 21.4556 31.9288 20.9033 31.9052C20.8465 31.6323 20.7964 31.3855 20.7843 31.1367C20.7678 30.7955 20.79 30.4523 20.7733 30.1111C20.7691 30.0253 20.6796 29.9441 20.6293 29.8359C20.6293 29.5289 20.6371 29.2463 20.6242 28.9648C20.6207 28.8887 20.5548 28.8159 20.5176 28.7416C20.5978 28.7086 20.6781 28.647 20.7584 28.6469C22.6636 28.6443 24.5688 28.6482 26.474 28.651C26.5477 28.6511 26.6215 28.651 26.7023 28.651C26.7023 27.9684 26.7023 27.3072 26.7023 26.6129C24.7005 26.6129 22.7066 26.6129 20.6921 26.5841C20.6576 26.2074 20.6228 25.8589 20.6332 25.512C20.6828 23.8547 20.5459 22.1968 20.7132 20.5374C20.7917 19.7593 20.6943 18.9616 20.6799 18.1727C20.6614 17.1667 20.639 16.1607 20.6315 15.1545C20.6232 14.0359 20.6296 12.9171 20.6296 11.7983C20.6296 11.3472 20.6352 10.896 20.6242 10.4452C20.6221 10.3616 20.5526 10.2798 20.5142 10.1972ZM24.2366 15.0901C24.151 15.0545 24.0668 14.9933 23.9796 14.9882C23.6963 14.9714 23.4119 14.9697 23.128 14.973C22.9328 14.9752 22.7358 14.9806 22.5434 15.0111C22.2933 15.0508 22.2681 15.2232 22.3056 15.4641C22.3687 15.87 22.4062 16.2816 22.4279 16.6923C22.4328 16.785 22.3349 16.8892 22.2722 16.9786C22.2193 17.0542 22.0875 17.1316 22.0986 17.1809C22.1235 17.2917 22.1951 17.4203 22.2844 17.4795C22.5047 17.6257 22.8347 17.4657 23.0335 17.1548C23.1858 17.1603 23.3382 17.1657 23.4906 17.2109C23.5432 17.2945 23.5958 17.3781 23.6484 17.4616C23.6795 17.3735 23.7108 17.2855 23.7413 17.1972C23.7439 17.1896 23.7416 17.18 23.7873 17.1599C24.023 17.1626 24.2587 17.1653 24.4945 17.2149C24.5375 17.4158 24.3751 17.6875 24.685 17.8484C24.6812 18.1331 24.6774 18.4178 24.6351 18.7053C24.4867 18.8754 24.5062 19.1432 24.6842 19.2831C24.6809 20.2054 24.6776 21.1276 24.6408 22.0574C24.5251 22.2124 24.4094 22.3675 24.2476 22.533C23.9283 22.5296 23.6091 22.5261 23.2809 22.4833C23.1238 22.4455 22.9678 22.3974 22.8087 22.3782C22.774 22.374 22.7282 22.4734 22.6585 22.5365C22.6321 22.5515 22.6057 22.5665 22.5386 22.5836C22.5046 22.6684 22.4437 22.7523 22.4411 22.8382C22.4274 23.2878 22.453 23.7401 22.4169 24.187C22.3877 24.5477 22.5301 24.8653 22.8674 24.9075C23.2293 24.9529 23.3603 24.9691 23.4309 24.5855C23.501 24.5895 23.5711 24.5935 23.6447 24.6369C23.7231 24.7301 23.7849 24.8678 23.8828 24.9086C24.207 25.0439 24.4083 24.7069 24.6827 24.6339C24.6873 24.6326 24.6807 24.5842 24.6799 24.5235C24.6846 24.4783 24.6893 24.4332 24.7277 24.383C24.717 24.3316 24.7064 24.2801 24.6845 24.1805C24.6888 23.9486 24.6931 23.7167 24.7351 23.4842C24.7883 23.4494 24.8782 23.4241 24.8888 23.3782C24.9848 22.9638 25.1653 22.763 25.625 22.824C25.9773 22.8708 26.3496 22.7495 26.743 22.699C26.7673 22.6157 26.8397 22.4699 26.8484 22.3198C26.8927 21.5563 26.93 20.7921 26.9508 20.0275C26.9666 19.4448 26.9562 18.8612 26.9514 18.278C26.9507 18.1944 26.914 18.1114 26.8969 18.0274C26.8526 17.8095 26.7761 17.5943 26.9507 17.3879C26.9979 17.3321 27.0213 17.1848 26.9858 17.1335C26.9034 17.0144 26.7875 17.0183 26.6566 17.1575C26.0019 17.1595 25.3471 17.1615 24.6767 17.1162C24.6827 16.7595 24.6888 16.4028 24.7319 16.0457C24.8058 15.9997 24.8797 15.9536 25.015 15.8695C24.8553 15.7987 24.7748 15.763 24.6826 15.6814C24.6836 15.5129 24.6845 15.3444 24.6887 15.1341C24.65 15.0866 24.6113 15.0391 24.5727 14.9917C24.5466 15.0377 24.5205 15.0837 24.4533 15.1398C24.3834 15.1366 24.3135 15.1333 24.2366 15.0901Z" fill="currentColor"/>
<path d="M18.5101 9.4583C18.5136 9.72316 18.52 9.98801 18.52 10.2529C18.5207 13.7969 18.5206 17.341 18.4969 20.915C18.4101 21.1594 18.3395 21.3743 18.5115 21.5727C18.5148 21.7336 18.5181 21.8946 18.4979 22.0845C18.4078 22.2938 18.3428 22.4739 18.5119 22.6353C18.5143 23.3448 18.5167 24.0542 18.4962 24.7932C18.4854 24.9102 18.4975 24.9977 18.5097 25.0851C18.5097 25.5861 18.5097 26.087 18.5097 26.6145C16.5437 26.6145 14.5943 26.6145 12.622 26.5889C12.4167 26.373 12.4456 26.1297 12.4468 25.8923C12.4485 25.5476 12.4538 25.2027 12.4415 24.8585C12.439 24.7885 12.3647 24.7215 12.318 24.6295C12.2305 24.5853 12.1487 24.5479 12.0666 24.547C11.4575 24.5404 10.8484 24.541 10.2331 24.529C10.2163 24.5059 10.2031 24.4978 10.1874 24.4944C10.1874 23.8498 10.1874 23.2051 10.1874 22.5366C9.0012 22.5366 7.81955 22.5366 6.5918 22.5366C6.5918 20.7667 6.5918 19.0202 6.60646 17.2437C6.63814 17.1929 6.65516 17.1721 6.67218 17.1513C7.83181 17.1513 8.99144 17.1513 10.1692 17.1513C10.1692 16.4869 10.1692 15.8368 10.1692 15.1597C10.1065 15.1554 10.0352 15.1462 9.96387 15.1461C9.42917 15.1449 8.89438 15.1398 8.35982 15.149C8.20276 15.1517 8.13073 15.1148 8.13386 14.9322C8.1419 14.4637 8.13783 13.9948 8.13439 13.5261C8.1328 13.3091 8.21264 13.2104 8.43206 13.2146C9.00648 13.2257 9.58123 13.2184 10.1884 13.2184C10.1884 12.6543 10.1877 12.1091 10.1886 11.5638C10.1893 11.1907 10.1903 11.1936 10.5478 11.1963C11.1159 11.2006 11.684 11.2006 12.2745 11.2051C12.2968 11.2078 12.293 11.2088 12.3003 11.2327C12.3076 13.2165 12.3076 15.1762 12.3076 17.135C12.3865 17.1459 12.4191 17.1542 12.4517 17.1542C13.7134 17.1549 14.9751 17.1554 16.2368 17.1528C16.2994 17.1527 16.3619 17.1247 16.4436 17.1039C16.4795 17.0523 16.5089 17.0071 16.5111 16.9605C16.5301 16.553 16.5511 16.1454 16.5534 15.7377C16.5538 15.6633 16.4715 15.5885 16.4225 15.4903C16.4175 15.3644 16.4175 15.262 16.4175 15.1306C15.7632 15.1306 15.1346 15.1306 14.506 15.1064C14.4892 13.9005 14.4737 12.7187 14.452 11.5371C14.4506 11.4629 14.4001 11.3898 14.3667 11.2933C14.288 11.2504 14.2153 11.2141 14.1421 11.2129C13.5775 11.2036 13.0128 11.2011 12.4482 11.1724C12.4641 10.7046 12.4813 10.2608 12.4943 9.81683C12.496 9.75814 12.4959 9.68017 12.4638 9.64294C12.3328 9.49134 12.4144 9.37172 12.4976 9.24726C13.0626 9.24524 13.6276 9.2407 14.1926 9.24329C14.3075 9.24382 14.3922 9.23344 14.3943 9.05085C14.402 8.93629 14.388 8.85101 14.374 8.76572C14.3709 8.28669 14.3679 7.80765 14.3878 7.30495C14.4593 7.24949 14.5078 7.21769 14.5563 7.1859C15.1595 7.18019 15.7627 7.17448 16.3956 7.18319C16.4399 7.20621 16.4546 7.21481 16.4692 7.22342C16.481 7.60685 16.4942 7.99025 16.5037 8.37375C16.5078 8.54125 16.5042 8.70897 16.4817 8.9062C16.4071 9.0512 16.3436 9.1685 16.5064 9.24745C17.1119 9.24898 17.7174 9.25052 18.3475 9.27308C18.4181 9.34883 18.4641 9.40357 18.5101 9.4583ZM16.4249 23.9719C16.421 23.8804 16.417 23.7889 16.424 23.6488C16.4203 23.3108 16.4167 22.9728 16.4207 22.5942C16.4036 22.5783 16.3865 22.5623 16.3224 22.5357C16.2141 22.5354 16.1058 22.5328 15.9975 22.5352C15.5001 22.5463 15.0026 22.5589 14.4562 22.5621C14.4292 22.4786 14.3798 22.3953 14.3789 22.3114C14.3721 21.7125 14.3753 21.1135 14.3753 20.5194C13.6753 20.5194 13.0038 20.5194 12.3273 20.5194C12.3273 21.2199 12.3273 21.8941 12.3273 22.5938C13.0194 22.5938 13.6928 22.5938 14.4001 22.5938C14.4001 23.2451 14.4001 23.8708 14.4064 24.5467C14.9297 24.5567 15.4529 24.5672 15.9762 24.5762C16.1217 24.5787 16.2674 24.5766 16.4133 24.5766C16.4133 24.3669 16.4133 24.1916 16.4249 23.9719Z" fill="currentColor"/>
<path d="M16.4121 33.5165C15.7756 33.5195 15.139 33.5225 14.4772 33.5076C14.4231 33.4666 14.3942 33.4435 14.3654 33.4203C14.3654 32.5997 14.3654 31.7791 14.3654 30.9302C13.7595 30.9302 13.1769 30.9302 12.5704 30.9045C12.5134 30.7122 12.4561 30.5465 12.4516 30.3792C12.4363 29.8052 12.4394 29.2306 12.4355 28.6563C12.4905 28.653 12.5455 28.6498 12.6268 28.6706C12.7187 28.682 12.7844 28.6693 12.8501 28.6566C14.0496 28.6527 15.2491 28.6481 16.4486 28.6454C17.0735 28.6439 17.6984 28.6457 18.3468 28.6729C18.3871 28.8297 18.4172 28.9597 18.4182 29.0899C18.4233 29.7443 18.4177 30.3988 18.4247 31.0532C18.4256 31.1346 18.4793 31.2154 18.5086 31.2964C18.5466 31.9256 18.5466 31.9262 17.9749 31.9273C17.4927 31.9282 17.0105 31.9275 16.5034 31.9275C16.5034 32.1386 16.5034 32.3298 16.4805 32.5521C16.4425 32.8942 16.4273 33.2053 16.4121 33.5165Z" fill="currentColor"/>
<path d="M9.8852 8.34202C9.88484 8.62526 9.88274 8.88197 9.88477 9.13864C9.88641 9.34609 9.81664 9.45469 9.59678 9.45146C8.91964 9.44152 8.2421 9.43822 7.56513 9.45301C7.36706 9.45733 7.32014 9.37858 7.32156 9.19546C7.32602 8.62016 7.31284 8.04447 7.32898 7.46963C7.33547 7.23854 7.25893 7.18588 7.05702 7.19162C6.53058 7.20656 6.0035 7.19498 5.47691 7.2062C5.2727 7.21055 5.1796 7.0973 5.17731 6.91118C5.16782 6.14124 5.16313 5.37098 5.17517 4.60117C5.17806 4.41636 5.28825 4.28017 5.49657 4.28225C6.11528 4.28842 6.73404 4.28927 7.35277 4.29358C7.57543 4.29514 7.70862 4.43954 7.7106 4.68529C7.7156 5.30482 7.71762 5.92437 7.72157 6.54391C7.72184 6.58593 7.72824 6.62789 7.73379 6.69356C8.35379 6.69356 8.96213 6.702 9.57007 6.68925C9.80118 6.6844 9.88685 6.78823 9.88609 7.01431C9.88465 7.44802 9.88541 7.88174 9.8852 8.34202Z" fill="currentColor"/>
<path d="M29.1204 8.39472C29.1206 7.93475 29.1183 7.50129 29.1218 7.06788C29.1239 6.80343 29.2354 6.69327 29.4788 6.69385C30.0053 6.69509 30.5318 6.68716 31.0581 6.69758C31.2404 6.70119 31.3096 6.6451 31.3075 6.44412C31.3012 5.86046 31.3105 5.27659 31.3155 4.69282C31.3179 4.42425 31.4592 4.28146 31.7071 4.28185C32.317 4.28282 32.927 4.2868 33.5368 4.27644C33.7423 4.27295 33.8299 4.3952 33.8317 4.57027C33.8397 5.38396 33.837 6.19794 33.8203 7.0114C33.819 7.07504 33.6815 7.18742 33.6053 7.18926C32.997 7.20397 32.3883 7.19747 31.7549 7.19747C31.7454 7.32337 31.7331 7.41679 31.7321 7.51034C31.7268 8.0322 31.724 8.55408 31.7209 9.07595C31.7187 9.45452 31.7191 9.45492 31.3743 9.45477C30.7225 9.45449 30.0707 9.45033 29.4189 9.45504C29.2072 9.45657 29.1269 9.33647 29.1222 9.13774C29.1165 8.89905 29.1206 8.6601 29.1204 8.39472Z" fill="currentColor"/>
<path d="M6.62376 33.2531C6.77409 33.2538 6.90181 33.2385 7.02441 33.2584C7.27957 33.2999 7.33081 33.1798 7.32443 32.9336C7.31022 32.3854 7.32625 31.8364 7.32432 31.2877C7.32364 31.0954 7.37159 31.0133 7.58321 31.0188C8.24321 31.036 8.9041 31.0303 9.5643 31.0158C9.78983 31.0108 9.87476 31.1496 9.87736 31.3304C9.88767 32.047 9.88275 32.764 9.86909 33.4805C9.86592 33.6464 9.7944 33.7658 9.5844 33.7602C8.97507 33.7438 8.36509 33.7544 7.71814 33.7544C7.71814 33.8653 7.71839 33.9586 7.7181 34.0519C7.71647 34.5829 7.71776 35.1139 7.71182 35.6449C7.70831 35.9587 7.56787 36.093 7.28296 36.0924C6.69789 36.0911 6.11278 36.0947 5.52774 36.1014C5.36042 36.1033 5.17626 35.9557 5.17481 35.7762C5.16879 35.0329 5.1619 34.2893 5.17747 33.5463C5.18148 33.3545 5.29362 33.2188 5.52116 33.2323C5.87963 33.2534 6.23953 33.2475 6.62376 33.2531Z" fill="currentColor"/>
<path d="M33.4038 36.0924C32.8299 36.0923 32.2783 36.0949 31.7267 36.0909C31.4183 36.0887 31.3224 35.9776 31.3198 35.6397C31.3157 35.1001 31.3015 34.5602 31.3136 34.0209C31.3185 33.8007 31.2441 33.75 31.0534 33.7544C30.5354 33.7666 30.0171 33.7604 29.4989 33.7631C29.2647 33.7643 29.1265 33.6516 29.124 33.4036C29.117 32.7136 29.1139 32.0229 29.1407 31.3339C29.1449 31.227 29.3119 31.0411 29.4078 31.038C30.1661 31.0135 30.9254 31.0244 31.7238 31.0244C31.7238 31.3695 31.7234 31.7025 31.7239 32.0355C31.7244 32.3717 31.7335 32.7081 31.7234 33.044C31.7184 33.2122 31.7757 33.253 31.9269 33.2505C32.4449 33.2421 32.9632 33.2486 33.4814 33.2492C33.7811 33.2496 33.837 33.3107 33.8362 33.6423C33.8346 34.3147 33.8326 34.9871 33.8303 35.6595C33.8291 36.0349 33.7738 36.0936 33.4038 36.0924Z" fill="currentColor"/>
<path d="M38.99 19.9252C38.9889 20.2703 38.984 20.5889 38.9886 20.9074C38.9906 21.0442 38.9455 21.0911 38.8128 21.0908C37.3166 21.0876 35.8204 21.0885 34.3242 21.0937C34.1827 21.0942 34.135 21.0498 34.1368 20.8961C34.1446 20.1972 34.1428 19.4981 34.1422 18.7991C34.142 18.6393 34.1619 18.5412 34.3615 18.5421C35.8742 18.5487 37.387 18.5412 38.8999 18.5391C38.9153 18.539 38.9308 18.5508 38.9901 18.5748C38.9901 19.0033 38.9901 19.451 38.99 19.9252Z" fill="currentColor"/>
<path d="M3.06129 21.0885C2.11748 21.0881 1.19874 21.0833 0.280089 21.0906C0.10727 21.0919 0.0446144 21.0417 0.046937 20.852C0.055382 20.1626 0.051023 19.4729 0.0489425 18.7833C0.0484956 18.6351 0.0617298 18.5343 0.249632 18.5357C1.7194 18.5461 3.18924 18.5507 4.65901 18.5443C4.84832 18.5435 4.88027 18.6097 4.87783 18.7872C4.8685 19.4678 4.86653 20.1487 4.87483 20.8294C4.87716 21.02 4.83804 21.0957 4.63971 21.0902C4.12226 21.0761 3.6042 21.0872 3.06129 21.0885Z" fill="currentColor"/>
<path d="M18.3892 0.850845C18.3894 0.629909 18.3899 0.435365 18.3896 0.240822C18.3893 0.078557 18.4602 -0.00013629 18.6184 0.000492014C19.2769 0.00310751 19.9354 0.00159221 20.6321 0.00159221C20.6321 0.112065 20.6322 0.205099 20.6321 0.298134C20.6315 1.90753 20.6278 3.51694 20.6341 5.1263C20.6348 5.31881 20.5995 5.38462 20.4013 5.37929C19.8086 5.36335 19.2152 5.36816 18.6223 5.37936C18.4345 5.38291 18.3836 5.32134 18.3848 5.1218C18.3933 3.70699 18.3892 2.2921 18.3892 0.850845Z" fill="currentColor"/>
<path d="M18.3831 38.7599C18.3844 37.1526 18.3844 35.5693 18.3844 33.9653C19.1457 33.9653 19.8683 33.9653 20.6175 33.9653C20.6215 34.0311 20.6301 34.1067 20.6302 34.1823C20.6315 35.6874 20.6283 37.1925 20.636 38.6976C20.6371 38.9125 20.5922 38.9883 20.3704 38.9808C19.794 38.9613 19.2165 38.975 18.6394 38.9767C18.5089 38.977 18.376 38.9855 18.3831 38.7599Z" fill="currentColor"/>
<path d="M12.2988 27.4704C12.3048 27.8345 12.3108 28.1987 12.3089 28.6088C12.2994 28.6864 12.2977 28.718 12.2959 28.7496C11.6046 28.7496 10.9132 28.7496 10.1895 28.7496C10.1895 28.0348 10.1895 27.3474 10.1921 26.6232C10.1947 26.5863 10.1901 26.5641 10.2116 26.5742C10.9043 26.5863 11.5755 26.5882 12.2473 26.6031C12.2637 26.6349 12.2794 26.6536 12.2951 26.6722C12.2982 26.7127 12.3013 26.7531 12.2855 26.8288C12.2773 27.0662 12.2881 27.2683 12.2988 27.4704Z" fill="currentColor"/>
<path d="M28.8862 26.6232C28.8611 26.6113 28.8595 26.5999 28.8535 26.5475C28.8546 25.8524 28.8601 25.1984 28.8641 24.5459C28.8626 24.5475 28.8599 24.5509 28.8599 24.5509C29.4686 24.5515 30.0774 24.5581 30.6859 24.5489C30.8522 24.5464 30.9236 24.5741 30.918 24.7766C30.9029 25.3146 30.9124 25.8533 30.9104 26.3918C30.9102 26.4602 30.9 26.5285 30.8922 26.6238C30.2231 26.6238 29.5664 26.6238 28.8862 26.6232Z" fill="currentColor"/>
<path d="M10.1907 26.5642C10.1907 26.5642 10.1953 26.5864 10.1944 26.5977C9.51802 26.6091 8.84261 26.6091 8.14844 26.6091C8.14844 25.9328 8.14844 25.2652 8.14844 24.5381C8.81833 24.5381 9.48315 24.5381 10.1695 24.543C10.1911 24.5479 10.188 24.5454 10.1908 24.5704C10.1927 25.2516 10.1917 25.9079 10.1907 26.5642Z" fill="currentColor"/>
<path d="M20.505 10.2178C20.5515 10.2802 20.621 10.362 20.6231 10.4456C20.6341 10.8963 20.6285 11.3476 20.6285 11.7987C20.6285 12.9174 20.6221 14.0362 20.6304 15.1549C20.638 16.161 20.6603 17.167 20.6788 18.173C20.6932 18.9619 20.7906 19.7597 20.7121 20.5378C20.5448 22.1971 20.6817 23.8551 20.6321 25.5123C20.6217 25.8593 20.6565 26.2078 20.6676 26.5796C20.443 26.6532 20.4905 26.4837 20.4905 26.3593C20.4899 24.7303 20.4902 23.1014 20.491 21.4724C20.4928 17.7276 20.4949 13.9828 20.505 10.2178Z" fill="currentColor"/>
<path d="M28.8532 11.5073C28.5234 11.53 28.1979 11.5455 27.8745 11.5244C27.6671 11.5108 27.464 11.4345 27.2566 11.4034C27.1348 11.385 27.0085 11.4 26.9033 11.4C26.9033 11.7686 26.9056 12.0832 26.9006 12.3976C26.8999 12.442 26.8632 12.4858 26.8232 12.5099C26.8032 12.3581 26.8136 12.2251 26.8001 12.0948C26.7877 11.9754 26.7494 11.859 26.7226 11.7413C26.6906 11.1979 26.6906 11.1979 27.1851 11.1981C27.6512 11.1984 28.1176 11.2107 28.5831 11.1935C28.8003 11.1855 28.8993 11.2462 28.8532 11.5073Z" fill="currentColor"/>
<path d="M30.9023 13.6332C30.6598 13.4335 30.3738 13.3548 30.0675 13.3371C30.0181 13.3342 29.9516 13.3208 29.9212 13.3478C29.645 13.5936 29.3308 13.3989 29.0373 13.4334C28.9205 13.4471 28.7533 13.4004 28.8408 13.1797C28.9352 13.1931 29.0136 13.2227 29.0921 13.2232C29.5828 13.2265 30.0736 13.2234 30.5644 13.2222C30.9156 13.2213 30.9243 13.231 30.9023 13.6332Z" fill="currentColor"/>
<path d="M20.5072 28.7607C20.5553 28.8162 20.6213 28.889 20.6247 28.9651C20.6376 29.2466 20.6298 29.5292 20.6298 29.8611C20.6298 30.3842 20.6356 30.8577 20.6242 31.3307C20.6223 31.411 20.5465 31.4894 20.5048 31.5687C20.502 30.639 20.4992 29.7093 20.5072 28.7607Z" fill="currentColor"/>
<path d="M26.713 12.9854C26.7946 13.0274 26.8716 13.0905 26.9486 13.1537C26.8733 13.2488 26.802 13.4218 26.7222 13.4263C26.2576 13.4524 25.791 13.4419 25.3253 13.434C25.2839 13.4333 25.2436 13.3629 25.2168 13.3039C25.2695 13.2665 25.3082 13.2502 25.347 13.2338C25.7675 13.2311 26.188 13.2283 26.6393 13.2419C26.6898 13.2577 26.7094 13.257 26.7291 13.2564C26.723 13.2306 26.7169 13.2049 26.7107 13.1792C26.71 13.1216 26.7092 13.064 26.713 12.9854Z" fill="currentColor"/>
<path d="M12.2969 28.7744C12.2968 28.7182 12.2985 28.6867 12.3039 28.6316C12.3419 28.6199 12.3762 28.6317 12.4228 28.65C12.4389 29.2307 12.4357 29.8053 12.4511 30.3793C12.4556 30.5466 12.5129 30.7123 12.5468 30.8998C12.3613 30.9819 12.2977 30.9132 12.3004 30.7051C12.3088 30.0698 12.3005 29.4343 12.2969 28.7744Z" fill="currentColor"/>
<path d="M32.3359 22.5227C32.3382 21.476 32.3563 20.4347 32.3759 19.3935C32.3778 19.2974 32.3893 19.2014 32.4114 19.0898C32.4285 20.1799 32.4314 21.2855 32.4291 22.3911C32.429 22.4368 32.379 22.4825 32.3359 22.5227Z" fill="currentColor"/>
<path d="M20.4985 31.5855C20.5454 31.4891 20.6212 31.4107 20.6231 31.3304C20.6345 30.8574 20.6287 30.3839 20.6287 29.8857C20.679 29.9441 20.7684 30.0253 20.7726 30.1111C20.7894 30.4523 20.7672 30.7955 20.7837 31.1367C20.7957 31.3855 20.8459 31.6323 20.8795 31.9004C20.7526 31.8776 20.569 32.068 20.5147 31.7924C20.5582 31.7507 20.5788 31.7326 20.5995 31.7145C20.5675 31.7006 20.5356 31.6868 20.5036 31.6729C20.5002 31.6495 20.4968 31.6261 20.4985 31.5855Z" fill="currentColor"/>
<path d="M12.307 26.6556C12.2788 26.6537 12.2631 26.6351 12.266 26.5894C12.2923 26.4675 12.3057 26.3727 12.3069 26.2778C12.314 25.7363 12.3182 25.1948 12.3234 24.6533C12.3646 24.7217 12.4388 24.7887 12.4413 24.8587C12.4537 25.2029 12.4483 25.5478 12.4466 25.8925C12.4454 26.1299 12.4165 26.3732 12.5988 26.5842C12.5057 26.6161 12.4126 26.6275 12.307 26.6556Z" fill="currentColor"/>
<path d="M12.4782 9.23749C12.4144 9.37202 12.3328 9.49164 12.4638 9.64324C12.4959 9.68046 12.4961 9.75843 12.4943 9.81713C12.4813 10.2611 12.4642 10.7049 12.4293 11.1782C12.3712 11.2081 12.3321 11.2086 12.293 11.2091C12.293 11.2091 12.2969 11.2081 12.2978 11.2099C12.3018 10.6302 12.3046 10.0486 12.3083 9.46703C12.309 9.35363 12.2885 9.22261 12.4782 9.23749Z" fill="currentColor"/>
<path d="M22.5397 7.28174C22.5794 7.32353 22.6326 7.38065 22.6333 7.43849C22.6398 7.97615 22.642 8.51403 22.6321 9.05157C22.6307 9.12984 22.5586 9.20664 22.5061 9.27422C22.5037 8.98648 22.5194 8.70873 22.5239 8.43077C22.53 8.05306 22.5276 7.6752 22.5397 7.28174Z" fill="currentColor"/>
<path d="M18.5134 31.2723C18.4787 31.2156 18.425 31.1348 18.4241 31.0534C18.4171 30.399 18.4227 29.7445 18.4176 29.0901C18.4166 28.9599 18.3865 28.8299 18.3691 28.6785C18.5237 28.6034 18.5261 28.702 18.5255 28.8225C18.5212 29.631 18.5206 30.4394 18.5134 31.2723Z" fill="currentColor"/>
<path d="M22.6359 31.9868C22.6657 32.0447 22.7322 32.1144 22.7195 32.1586C22.6293 32.472 22.738 32.7325 22.8916 32.9837C22.9882 33.1414 22.9177 33.2463 22.608 33.3505C22.5738 33.2927 22.5591 33.252 22.5444 33.2112C22.5406 33.0834 22.5368 32.9555 22.5519 32.7886C22.5925 32.4953 22.6142 32.241 22.6359 31.9868Z" fill="currentColor"/>
<path d="M28.8562 12.3626C28.7669 12.4584 28.6828 12.5367 28.5817 12.6308C28.5157 12.6194 28.4093 12.624 28.326 12.5798C28.2572 12.5432 28.1652 12.4397 28.1745 12.3823C28.1872 12.3035 28.2854 12.182 28.3476 12.1817C28.5024 12.1808 28.6574 12.2381 28.8316 12.2728C28.8543 12.2974 28.8578 12.3213 28.8562 12.3626Z" fill="currentColor"/>
<path d="M30.7887 15.1392C30.7521 14.7628 30.7285 14.3933 30.7266 14.0238C30.7262 13.9547 30.8126 13.8851 30.8774 13.8149C30.8996 14.211 30.9067 14.608 30.9028 15.0048C30.9023 15.0522 30.8418 15.099 30.7887 15.1392Z" fill="currentColor"/>
<path d="M24.6816 31.9622C24.344 31.8233 24.51 31.5173 24.5222 31.2769C24.5274 31.1763 24.4431 30.9518 24.6935 30.9297C24.7055 31.2668 24.6961 31.6023 24.6816 31.9622Z" fill="currentColor"/>
<path d="M28.8879 15.1504C28.8779 15.0928 28.8741 15.0176 28.9077 14.9807C29.0296 14.8471 29.6494 14.9364 29.7648 15.116C29.4807 15.1411 29.1959 15.1457 28.8879 15.1504Z" fill="currentColor"/>
<path d="M24.6822 33.0782C24.6443 33.0973 24.6035 33.1035 24.5799 33.0851C24.4234 32.9622 24.4661 32.4178 24.6576 32.3057C24.6803 32.5546 24.6838 32.8042 24.6822 33.0782Z" fill="currentColor"/>
<path d="M29.2417 17.163C29.2216 17.3699 29.1294 17.5186 28.9095 17.4738C28.8406 17.4597 28.7523 17.3905 28.7313 17.3255C28.7139 17.2716 28.7824 17.1866 28.8303 17.1123C28.972 17.1254 29.0962 17.1416 29.2417 17.163Z" fill="currentColor"/>
<path d="M24.5715 7.17529C24.5842 7.20905 24.5825 7.25191 24.5615 7.27116C24.4437 7.37913 23.9243 7.35288 23.7891 7.21313C24.0399 7.18415 24.294 7.17882 24.5715 7.17529Z" fill="currentColor"/>
<path d="M26.5723 30.9253C26.5904 30.7113 26.6291 30.5027 26.6876 30.2896C26.7132 30.4489 26.7302 30.6138 26.7183 30.7764C26.7143 30.8309 26.6367 30.8794 26.5723 30.9253Z" fill="currentColor"/>
<path d="M22.6237 31.981C22.6146 32.2408 22.5929 32.4951 22.5575 32.765C22.538 32.512 22.5323 32.2433 22.5195 31.9502C22.5454 31.9424 22.5782 31.9589 22.6237 31.981Z" fill="currentColor"/>
<path d="M30.3435 17.163C30.2508 17.3691 29.9034 17.3909 29.7168 17.1884C29.9161 17.1647 30.1184 17.1613 30.3435 17.163Z" fill="currentColor"/>
<path d="M16.4327 33.5181C16.4274 33.2052 16.4425 32.894 16.4761 32.5762C16.4807 32.8862 16.4669 33.203 16.4327 33.5181Z" fill="currentColor"/>
<path d="M26.7163 11.7656C26.7487 11.859 26.7869 11.9754 26.7993 12.0947C26.8129 12.225 26.8024 12.3581 26.8025 12.5147C26.7838 12.5734 26.765 12.6074 26.7315 12.644C26.7147 12.3611 26.7128 12.0755 26.7163 11.7656Z" fill="currentColor"/>
<path d="M28.1074 24.5365C28.182 24.5049 28.255 24.4531 28.3316 24.4458C28.4866 24.4311 28.6437 24.4405 28.8222 24.44C28.8486 24.4644 28.8527 24.4889 28.8579 24.532C28.859 24.5508 28.8618 24.5473 28.8398 24.549C28.581 24.5459 28.3442 24.5412 28.1074 24.5365Z" fill="currentColor"/>
<path d="M12.3036 27.4504C12.2871 27.2684 12.2764 27.0662 12.28 26.8486C12.2994 27.0322 12.3044 27.2313 12.3036 27.4504Z" fill="currentColor"/>
<path d="M18.5167 21.5488C18.3393 21.3744 18.4098 21.1594 18.4918 20.9395C18.5146 21.1309 18.5184 21.3279 18.5167 21.5488Z" fill="currentColor"/>
<path d="M18.5184 22.6119C18.3438 22.4742 18.4088 22.294 18.4942 22.1084C18.5166 22.2648 18.5202 22.4266 18.5184 22.6119Z" fill="currentColor"/>
<path d="M24.5137 33.5053C24.5451 33.4202 24.5958 33.3435 24.6621 33.2642C24.6794 33.3778 24.7726 33.5528 24.5137 33.5053Z" fill="currentColor"/>
<path d="M32.4332 17.3576C32.3426 17.3181 32.2584 17.2617 32.1738 17.1859C32.2114 17.1627 32.2495 17.1589 32.3127 17.1742C32.3683 17.2187 32.3988 17.2443 32.4292 17.2698C32.4327 17.2934 32.4362 17.317 32.4332 17.3576Z" fill="currentColor"/>
<path d="M16.5047 9.22472C16.3444 9.16875 16.4079 9.05145 16.477 8.93066C16.4967 9.01743 16.4994 9.10959 16.5047 9.22472Z" fill="currentColor"/>
<path d="M26.7133 29.4153C26.6566 29.4074 26.6066 29.379 26.5566 29.3505C26.5937 29.3087 26.6307 29.2669 26.6872 29.2246C26.711 29.281 26.7155 29.3379 26.7133 29.4153Z" fill="currentColor"/>
<path d="M18.5154 25.0666C18.4979 24.9979 18.4857 24.9104 18.4918 24.8179C18.5136 24.8911 18.5172 24.9695 18.5154 25.0666Z" fill="currentColor"/>
<path d="M14.3691 8.78809C14.3886 8.85129 14.4025 8.93657 14.4014 9.02825C14.3788 8.95982 14.3712 8.88499 14.3691 8.78809Z" fill="currentColor"/>
<path d="M22.5391 33.2271C22.5603 33.2517 22.575 33.2925 22.5908 33.3507C22.5886 33.3997 22.5853 33.4313 22.5775 33.4864C22.5595 33.421 22.546 33.3321 22.5391 33.2271Z" fill="currentColor"/>
<path d="M18.5155 9.43787C18.4645 9.40369 18.4185 9.34895 18.3711 9.27721C18.5125 9.21309 18.5296 9.30114 18.5155 9.43787Z" fill="currentColor"/>
<path d="M24.6771 13.1588C24.6352 13.1656 24.5989 13.1522 24.5625 13.1389C24.5875 13.1 24.6125 13.0611 24.6522 13.019C24.6722 13.0568 24.6774 13.0977 24.6771 13.1588Z" fill="currentColor"/>
<path d="M14.539 7.18066C14.508 7.21802 14.4596 7.24981 14.3945 7.28133C14.4258 7.24574 14.4736 7.21043 14.539 7.18066Z" fill="currentColor"/>
<path d="M25.3326 13.2278C25.3072 13.2502 25.2685 13.2666 25.2131 13.2831C25.1807 13.2782 25.1678 13.2688 25.1523 13.2437C25.2044 13.2289 25.2619 13.2253 25.3326 13.2278Z" fill="currentColor"/>
<path d="M12.8328 28.6508C12.7839 28.6695 12.7182 28.6821 12.6465 28.6758C12.6989 28.6528 12.7574 28.6489 12.8328 28.6508Z" fill="currentColor"/>
<path d="M32.4368 17.2596C32.3994 17.2444 32.369 17.2189 32.332 17.1792C32.3649 17.1931 32.4043 17.2212 32.4368 17.2596Z" fill="currentColor"/>
<path d="M26.7019 13.1899C26.7165 13.2051 26.7226 13.2309 26.7287 13.2566C26.709 13.2573 26.6894 13.258 26.6621 13.2474C26.6675 13.2242 26.6805 13.2124 26.7019 13.1899Z" fill="currentColor"/>
<path d="M20.4987 31.6881C20.5367 31.6867 20.5686 31.7006 20.6006 31.7145C20.58 31.7325 20.5593 31.7506 20.521 31.7679C20.4997 31.7459 20.4963 31.7246 20.4987 31.6881Z" fill="currentColor"/>
<path d="M14.3613 33.4375C14.3952 33.4434 14.4241 33.4666 14.4548 33.5054C14.4232 33.4989 14.3897 33.4768 14.3613 33.4375Z" fill="currentColor"/>
<path d="M16.4678 7.20746C16.4555 7.21493 16.4409 7.20633 16.4199 7.18586C16.4309 7.17978 16.4482 7.18559 16.4678 7.20746Z" fill="currentColor"/>
<path d="M10.1778 24.5096C10.2031 24.4978 10.2163 24.5059 10.2205 24.5357C10.205 24.5503 10.1959 24.5478 10.1868 24.5453C10.1868 24.5453 10.1899 24.5478 10.1917 24.5487C10.1851 24.5414 10.1767 24.5331 10.1778 24.5096Z" fill="currentColor"/>
<path d="M24.7161 23.4848C24.6924 23.1949 24.6877 22.9048 24.6875 22.589C25.3496 22.5633 26.0071 22.5633 26.712 22.5633C26.712 20.7831 26.712 18.9962 26.7078 17.1845C26.7873 17.0186 26.9032 17.0147 26.9856 17.1338C27.0211 17.1851 26.9977 17.3324 26.9505 17.3881C26.7759 17.5945 26.8524 17.8097 26.8967 18.0277C26.9138 18.1117 26.9505 18.1946 26.9512 18.2783C26.956 18.8614 26.9664 19.445 26.9506 20.0278C26.9298 20.7923 26.8925 21.5566 26.8482 22.3201C26.8395 22.4701 26.7671 22.616 26.7428 22.6993C26.3494 22.7497 25.9771 22.8711 25.6248 22.8243C25.1651 22.7633 24.9846 22.9641 24.8886 23.3785C24.878 23.4244 24.7881 23.4497 24.7161 23.4848Z" fill="currentColor"/>
<path d="M24.2398 15.1101C23.9679 15.1339 23.6924 15.1392 23.4169 15.1412C23.1508 15.1431 22.8846 15.1416 22.6018 15.1416C22.6018 15.8081 22.6018 16.4577 22.6018 17.1246C22.716 17.1333 22.8309 17.1421 22.9671 17.1579C22.8344 17.4657 22.5045 17.6258 22.2841 17.4796C22.1948 17.4203 22.1233 17.2918 22.0983 17.181C22.0872 17.1316 22.219 17.0543 22.272 16.9787C22.3346 16.8893 22.4325 16.785 22.4276 16.6924C22.4059 16.2816 22.3684 15.87 22.3053 15.4642C22.2678 15.2233 22.293 15.0509 22.5431 15.0112C22.7355 14.9807 22.9325 14.9753 23.1277 14.973C23.4116 14.9698 23.696 14.9715 23.9794 14.9882C24.0665 14.9934 24.1507 15.0546 24.2398 15.1101Z" fill="currentColor"/>
<path d="M22.5579 22.5825C22.5783 23.2341 22.5783 23.8866 22.5783 24.5858C22.8484 24.5858 23.096 24.5858 23.3664 24.5921C23.3593 24.9691 23.2282 24.9529 22.8664 24.9076C22.5291 24.8653 22.3867 24.5477 22.4158 24.187C22.452 23.7401 22.4264 23.2878 22.44 22.8382C22.4426 22.7523 22.5035 22.6684 22.5579 22.5825Z" fill="currentColor"/>
<path d="M23.6426 24.6174C23.9722 24.5878 24.3036 24.5778 24.6569 24.563C24.6803 24.5845 24.6869 24.6329 24.6823 24.6341C24.4079 24.7071 24.2066 25.0442 23.8824 24.9088C23.7846 24.868 23.7227 24.7304 23.6426 24.6174Z" fill="currentColor"/>
<path d="M24.4939 17.1916C24.5495 17.1591 24.6051 17.15 24.6799 17.1504C24.6943 17.3573 24.6895 17.5547 24.6793 17.776C24.3746 17.6877 24.5369 17.4159 24.4939 17.1916Z" fill="currentColor"/>
<path d="M26.6799 24.7119C26.7038 25.0653 26.7081 25.4239 26.7068 25.8033C26.6794 25.8127 26.6385 25.8009 26.6387 25.7897C26.6434 25.4321 26.6521 25.0746 26.6799 24.7119Z" fill="currentColor"/>
<path d="M24.6921 22.5086C24.5758 22.5328 24.456 22.5329 24.3145 22.5279C24.4083 22.3676 24.524 22.2125 24.6565 22.0537C24.6784 22.1948 24.6836 22.3397 24.6921 22.5086Z" fill="currentColor"/>
<path d="M24.655 18.7041C24.6777 18.8643 24.6813 19.0259 24.6795 19.2111C24.5068 19.1434 24.4873 18.8756 24.655 18.7041Z" fill="currentColor"/>
<path d="M23.2842 22.5033C23.103 22.5274 22.9173 22.5316 22.709 22.5307C22.727 22.4737 22.7728 22.3744 22.8075 22.3785C22.9666 22.3977 23.1226 22.4458 23.2842 22.5033Z" fill="currentColor"/>
<path d="M23.4902 17.1913C23.5603 17.1677 23.6303 17.164 23.7208 17.166C23.7413 17.1803 23.7436 17.1898 23.7409 17.1974C23.7104 17.2857 23.6792 17.3737 23.6481 17.4618C23.5955 17.3783 23.5429 17.2947 23.4902 17.1913Z" fill="currentColor"/>
<path d="M24.7127 16.0459C24.6902 15.9547 24.6861 15.8632 24.6878 15.7495C24.7741 15.763 24.8546 15.7987 25.0143 15.8695C24.879 15.9536 24.8051 15.9997 24.7127 16.0459Z" fill="currentColor"/>
<path d="M24.6871 15.1551C24.6347 15.1639 24.5838 15.1519 24.5137 15.1348C24.5205 15.0837 24.5466 15.0377 24.5727 14.9917C24.6114 15.0392 24.6501 15.0867 24.6871 15.1551Z" fill="currentColor"/>
<path d="M27.4014 24.5195C27.3351 24.5416 27.2647 24.5454 27.1738 24.5439C27.2346 24.5261 27.3161 24.5137 27.4014 24.5195Z" fill="currentColor"/>
<path d="M24.7114 24.386C24.6911 24.3483 24.6876 24.3081 24.6902 24.2485C24.7069 24.2806 24.7175 24.332 24.7114 24.386Z" fill="currentColor"/>
<path d="M14.5066 15.1067C14.319 15.1542 14.3642 15.0068 14.364 14.9037C14.3618 13.7242 14.3623 12.5447 14.3675 11.3408C14.4007 11.3901 14.4512 11.4632 14.4526 11.5374C14.4743 12.719 14.4897 13.9008 14.5066 15.1067Z" fill="currentColor"/>
<path d="M16.4446 17.1042C16.4227 16.5943 16.4199 16.0786 16.4228 15.5386C16.4725 15.5888 16.5548 15.6637 16.5544 15.738C16.5521 16.1457 16.5311 16.5533 16.5121 16.9608C16.5099 17.0074 16.4805 17.0526 16.4446 17.1042Z" fill="currentColor"/>
</g>
</svg>
