<svg viewBox="0 0 39 41" fill="none" xmlns="http://www.w3.org/2000/svg">
<g clip-path="url(#clip0_104_2272)">
<path d="M6.10352 4.47493C6.10352 3.79545 6.10352 3.11596 6.10352 2.41382C6.89666 2.41382 7.67648 2.41382 8.4803 2.41382C8.4803 1.66005 8.4803 0.928542 8.4803 0.17334C10.1159 0.17334 11.7273 0.17334 13.3658 0.199802C13.3928 0.948821 13.3928 1.67138 13.3928 2.41599C14.229 2.41599 15.0295 2.41599 15.8323 2.44058C15.8347 3.16102 15.8347 3.85686 15.8347 4.59861C16.6721 4.59861 17.4725 4.59861 18.2728 4.59861C18.2729 6.65114 18.273 8.70368 18.2432 10.7813C16.5954 10.8069 14.9775 10.8075 13.3422 10.7922C13.0752 10.7757 12.8259 10.7751 12.5561 10.7684C12.4936 10.7663 12.4516 10.7701 12.3842 10.7683C11.8777 10.7588 11.3966 10.755 10.9169 10.7259C10.9135 9.96016 10.9086 9.21977 10.9071 8.45288C10.9122 7.88079 10.9058 7.335 10.92 6.78971C10.9252 6.58811 10.8436 6.54489 10.6603 6.54896C10.2175 6.55878 9.77445 6.55247 9.33151 6.55259C9.05806 6.55266 8.78461 6.5526 8.46934 6.5526C8.46934 5.84158 8.46934 5.16664 8.46934 4.47493C7.65239 4.47493 6.87795 4.47493 6.10352 4.47493Z" fill="currentColor"/>
<path d="M38.7728 24.1838C38.7702 25.4726 38.7675 26.7613 38.7253 28.0583C38.6609 28.0699 38.636 28.0731 38.6111 28.0764C37.8857 28.0764 37.1603 28.0764 36.4022 28.0764C36.4022 28.7363 36.4022 29.3837 36.4022 30.0777C35.2329 30.0777 34.0958 30.0777 32.9325 30.05C32.9051 28.8863 32.8992 27.7503 32.9068 26.6144C32.9083 26.3934 32.8458 26.3068 32.6099 26.3118C31.9923 26.3248 31.3742 26.3143 30.7564 26.3184C30.6788 26.3189 30.6014 26.35 30.4989 26.3593C29.6941 26.3516 28.9143 26.3516 28.0962 26.3516C28.0962 25.619 28.0962 24.9091 28.0962 24.1898C27.3325 24.1898 26.6073 24.1919 25.8821 24.1872C25.7882 24.1866 25.6945 24.1505 25.6007 24.1308C25.6054 23.4367 25.61 22.7426 25.6071 22.0115C25.5969 21.9654 25.5943 21.9563 25.6176 21.9498C26.3793 21.9508 27.1151 21.9451 27.8508 21.9509C28.0288 21.9524 28.0914 21.898 28.0887 21.718C28.079 21.0747 28.0839 20.4311 28.0834 19.7876C28.9033 19.7839 29.7232 19.7784 30.5431 19.777C31.677 19.7751 32.8109 19.7763 33.9767 19.8003C34.0085 20.5277 34.0085 21.2309 34.0085 21.9584C34.8234 21.9584 35.6053 21.9584 36.3903 21.9675C36.3935 21.9765 36.3987 21.9949 36.3893 22.0163C36.3677 22.0899 36.3451 22.1421 36.3449 22.1945C36.3432 22.8156 36.3444 23.4367 36.3466 24.0578C36.3467 24.0915 36.3628 24.1251 36.3778 24.1838C37.1792 24.1838 37.976 24.1838 38.7728 24.1838Z" fill="currentColor"/>
<path d="M8.47672 19.7603C9.23534 19.7641 9.99397 19.7679 10.7956 19.772C10.863 19.7761 10.8874 19.7799 10.9123 19.8081C10.9129 20.5286 10.9129 21.2248 10.9129 21.9584C11.7673 21.9584 12.5769 21.9584 13.3829 21.9779C13.3834 22.0356 13.3875 22.0737 13.3917 22.1119C13.3835 22.7865 13.3754 23.4612 13.3317 24.1579C12.4993 24.1799 11.7022 24.1799 10.8898 24.1799C10.8898 24.9313 10.8898 25.628 10.8898 26.3544C10.0742 26.3544 9.27443 26.3544 8.45686 26.3405C7.74981 26.3233 7.06041 26.3274 6.37145 26.3122C6.15629 26.3075 6.0884 26.366 6.09018 26.5849C6.09972 27.7537 6.09277 28.9226 6.09152 30.0914C5.85079 30.0852 5.61006 30.0789 5.32254 30.0724C5.21629 30.0761 5.15684 30.0802 5.09738 30.0842C4.28695 30.0842 3.47651 30.0842 2.62834 30.0842C2.62834 29.4044 2.62834 28.7481 2.62834 28.0684C1.80275 28.0684 1.01449 28.0684 0.205 28.0684C0.205 27.1023 0.205 26.1601 0.205293 25.1692C0.200859 24.9358 0.196132 24.7512 0.191406 24.5666C0.197799 24.455 0.204193 24.3435 0.242092 24.2085C0.984514 24.1854 1.69545 24.1829 2.40633 24.188C2.56547 24.1891 2.67059 24.1743 2.66178 23.973C2.63284 23.3112 2.61697 22.6489 2.598 21.978C2.59992 21.9692 2.60844 21.9532 2.63414 21.9544C3.42915 21.9555 4.19845 21.9555 5.00633 21.9555C5.00633 21.2054 5.00633 20.4913 5.00633 19.7773C5.38908 19.7755 5.77183 19.7736 6.20163 19.772C6.30812 19.7682 6.36757 19.7643 6.42701 19.7603C6.48638 19.7641 6.54576 19.7679 6.65139 19.772C6.86595 19.7682 7.03426 19.7642 7.20257 19.7603C7.33423 19.7641 7.4659 19.7679 7.64683 19.772C7.9563 19.7682 8.21651 19.7642 8.47672 19.7603Z" fill="currentColor"/>
<path d="M26.0364 0.15332C27.4197 0.157665 28.8029 0.162026 30.1861 0.166318C30.2766 0.166599 30.367 0.166355 30.4958 0.166355C30.4958 0.915118 30.4958 1.64551 30.4958 2.40402C31.2336 2.40402 31.933 2.40402 32.6763 2.4045C32.745 2.40198 32.7699 2.39897 32.7948 2.39597C32.8139 2.478 32.8487 2.55986 32.8496 2.64208C32.8562 3.2367 32.856 3.83138 32.8264 4.45082C32.1136 4.47533 31.432 4.48217 30.7508 4.47057C30.5401 4.46698 30.4496 4.51618 30.4655 4.74123C30.4846 5.01216 30.47 5.2854 30.47 5.55764C30.47 5.8806 30.47 6.20356 30.47 6.552C30.3265 6.552 30.2271 6.55199 30.1277 6.552C29.5292 6.55208 28.9306 6.55393 28.3321 6.55095C28.1908 6.55025 28.0811 6.55253 28.0854 6.74514C28.0985 7.3254 28.0981 7.90595 28.1002 8.5006C28.0915 8.53321 28.0856 8.55161 28.0541 8.57029C27.3177 8.57129 26.6068 8.58024 25.8962 8.56763C25.6874 8.56393 25.6017 8.65384 25.6015 8.83C25.6009 9.48431 25.6115 10.1386 25.6167 10.7993C25.6156 10.8057 25.6051 10.8136 25.5784 10.8128C23.9557 10.8123 22.3597 10.8124 20.7637 10.8126C20.764 9.27096 20.7641 7.72929 20.7646 6.18761C20.7648 5.67059 20.7659 5.15356 20.7959 4.61001C21.5957 4.58348 22.3661 4.58348 23.1583 4.58348C23.1583 3.82232 23.1583 3.11339 23.1583 2.40446C23.1583 2.40446 23.1562 2.4019 23.1826 2.40322C24.0048 2.40454 24.8004 2.40454 25.6043 2.40454C25.6043 1.63969 25.6043 0.907652 25.6043 0.175612C25.6043 0.175612 25.6031 0.17029 25.6247 0.169051C25.7763 0.162982 25.9064 0.158151 26.0364 0.15332Z" fill="currentColor"/>
<path d="M32.9091 6.56864C33.1316 6.56932 33.3541 6.57 33.6255 6.57113C33.8243 6.56627 33.9744 6.56097 34.1245 6.55566C34.8681 6.55566 35.6118 6.55566 36.3843 6.55566C36.3843 7.30509 36.3843 8.02608 36.3843 8.76516C37.1934 8.76516 37.9736 8.76516 38.7856 8.76516C38.7856 10.1881 38.7856 11.5925 38.7549 13.0228C38.0252 13.0491 37.3263 13.054 36.6276 13.0465C36.4488 13.0446 36.3906 13.1003 36.3886 13.2791C36.3809 13.9389 36.3567 14.5984 36.3137 15.265C35.532 15.2777 34.7752 15.2833 33.9923 15.2869C31.1737 15.2849 28.3813 15.285 25.5957 15.2603C25.605 15.1184 25.6076 15.0014 25.6101 14.8843C25.6231 14.2725 25.6361 13.6607 25.6698 13.0527C25.7319 13.0526 25.7734 13.0488 25.8382 13.0505C25.9568 13.0524 26.0521 13.0486 26.1729 13.0501C26.8093 13.0512 27.4202 13.047 28.0468 13.0446C28.0684 13.0289 28.0744 13.0113 28.0864 12.9687C28.0922 12.237 28.092 11.5303 28.1168 10.8173C28.9175 10.807 29.6933 10.8029 30.4809 10.8035C30.4927 10.8082 30.5182 10.8064 30.5445 10.8083C31.2423 10.8103 31.9139 10.8044 32.5853 10.8143C32.7806 10.8172 32.8584 10.7752 32.8594 10.5614C32.8653 9.31198 32.887 8.06263 32.9036 6.81327C32.9046 6.73172 32.9072 6.65018 32.9091 6.56864Z" fill="currentColor"/>
<path d="M2.61574 15.2704C2.61574 15.2704 2.60587 15.2548 2.6052 15.233C2.60452 15.2112 2.60562 15.1858 2.62134 15.1683C2.64462 14.5081 2.64961 13.8653 2.66159 13.2227C2.6645 13.0669 2.57948 13.0475 2.45282 13.0482C1.95599 13.0513 1.45905 13.0438 0.962335 13.0517C0.716214 13.0556 0.470505 13.0846 0.224609 13.1022C0.224609 11.6756 0.224609 10.249 0.224609 8.78677C1.0088 8.78677 1.79591 8.78677 2.62743 8.78677C2.62743 8.03184 2.62743 7.31131 2.62743 6.56445C3.79612 6.56445 4.92005 6.56445 6.06694 6.5832C6.09174 7.91852 6.09767 9.23512 6.09115 10.5517C6.09016 10.7532 6.1458 10.8188 6.35485 10.815C7.06396 10.8021 7.77342 10.8078 8.50831 10.8053C9.32409 10.8128 10.1143 10.8212 10.8988 10.851C10.8982 10.96 10.9034 11.0477 10.9011 11.1564C10.8991 11.6376 10.9047 12.0977 10.9034 12.5798C10.9009 12.6772 10.9052 12.7527 10.9005 12.8422C10.8986 12.9215 10.9055 12.987 10.9128 13.0778C10.9141 13.72 10.9027 14.3373 10.922 14.9537C10.9299 15.2099 10.8639 15.2921 10.5913 15.2905C8.72246 15.2798 6.85356 15.2865 4.9591 15.2838C4.16092 15.2768 3.38833 15.2736 2.61574 15.2704Z" fill="currentColor"/>
<path d="M23.1504 29.8625C23.1538 28.7336 23.1572 27.6048 23.1898 26.4506C24.0159 26.422 24.8128 26.4188 25.6338 26.4228C26.464 26.43 27.2702 26.43 28.0999 26.43C28.0999 27.1875 28.0999 27.9005 28.0999 28.6367C28.9054 28.6367 29.687 28.6367 30.4693 28.6604C30.4707 29.7348 30.4771 30.7856 30.467 31.8363C30.4649 32.0545 30.5346 32.1133 30.75 32.1093C31.4483 32.0963 32.147 32.1031 32.8455 32.1023C32.8455 32.7827 32.8455 33.4631 32.8455 34.1848C32.6322 34.1848 32.4152 34.1839 32.1981 34.185C31.7094 34.1873 31.2204 34.2001 30.732 34.1889C30.5305 34.1843 30.4858 34.2563 30.4882 34.44C30.4956 35.0033 30.4854 35.5668 30.4822 36.1303C30.4817 36.2103 30.4821 36.2904 30.4821 36.3856C28.859 36.3856 27.2594 36.3856 25.6191 36.3856C25.6191 35.8734 25.6191 35.3762 25.6192 34.833C25.6139 34.7105 25.6085 34.6342 25.603 34.5579C25.6077 34.5164 25.6123 34.4749 25.6168 34.3914C25.6113 34.2721 25.6059 34.1949 25.6058 34.0944C25.6062 33.9605 25.6013 33.8498 25.6019 33.7141C25.6074 33.0289 25.6074 32.3688 25.6074 31.7005C24.8114 31.7005 24.0396 31.7005 23.2537 31.6921C23.2299 31.6787 23.2202 31.6737 23.207 31.6564C23.1948 31.6286 23.1824 31.6168 23.1664 31.6088C23.1641 31.4072 23.1618 31.2057 23.1597 30.9542C23.1568 30.557 23.1536 30.2098 23.1504 29.8625Z" fill="currentColor"/>
<path d="M10.907 36.3781C10.1149 36.3781 9.32275 36.3781 8.48056 36.3781C8.48056 35.7069 8.48056 35.0209 8.48019 34.2948C8.45965 34.2405 8.43949 34.2261 8.41933 34.2117C7.76651 34.2052 7.11369 34.1984 6.46087 34.1922C6.3506 34.1911 6.24031 34.192 6.08984 34.192C6.08984 33.5061 6.08984 32.8294 6.11972 32.1273C6.9188 32.102 7.68801 32.102 8.47383 32.102C8.47383 30.9143 8.47383 29.7675 8.49989 28.6216C9.31446 28.6225 10.103 28.6225 10.9255 28.6225C10.9255 27.8914 10.9255 27.1808 10.9255 26.4482C11.1331 26.4482 11.3068 26.4498 11.4804 26.4479C12.1049 26.4408 12.7295 26.4326 13.3798 26.4248C14.2118 26.4256 15.0182 26.4264 15.8245 26.4271C15.8278 28.1521 15.8312 29.8772 15.81 31.6344C14.9947 31.6665 14.2038 31.6665 13.3998 31.6665C13.3998 32.5213 13.3998 33.3196 13.3919 34.1274C13.3787 34.1529 13.3696 34.1664 13.3302 34.1766C12.5176 34.176 11.7314 34.176 10.907 34.176C10.907 34.9354 10.907 35.6567 10.907 36.3781Z" fill="currentColor"/>
<path d="M20.7069 24.1871C20.7115 24.9144 20.7198 25.6416 20.72 26.3688C20.7215 30.3792 20.7209 34.3895 20.7211 38.3998C20.7211 38.479 20.7211 38.5582 20.7211 38.6685C19.8967 38.6685 19.0982 38.6685 18.277 38.6685C18.277 39.4592 18.277 40.2189 18.277 40.9993C16.6438 40.9993 15.0336 40.9993 13.3984 40.9993C13.3984 40.2641 13.3984 39.5246 13.3984 38.7522C14.2025 38.7522 15.0161 38.7522 15.8586 38.7522C15.8586 37.9964 15.8586 37.2727 15.8586 36.5258C16.6681 36.5258 17.4485 36.5258 18.2723 36.5258C18.2723 32.4132 18.2723 28.3243 18.3026 24.2106C19.1243 24.1863 19.9156 24.1867 20.7069 24.1871Z" fill="currentColor"/>
<path d="M4.98438 15.2877C6.85324 15.2866 8.72214 15.2798 10.5909 15.2906C10.8636 15.2921 10.9296 15.2099 10.9216 14.9537C10.9024 14.3374 10.9138 13.7201 10.9316 13.0789C10.9751 13.0506 11 13.0465 11.0504 13.0475C11.4651 13.0497 11.8543 13.0469 12.2689 13.0496C12.6502 13.0552 13.0061 13.0552 13.3884 13.0552C13.3884 13.8152 13.3884 14.5389 13.3884 15.2804C14.152 15.2804 14.8883 15.2771 15.6245 15.2854C15.6994 15.2863 15.7734 15.3572 15.8478 15.3957C15.8478 16.076 15.8478 16.7563 15.8478 17.4732C12.2122 17.4732 8.6273 17.4732 5.01692 17.4444C4.98909 16.7063 4.98673 15.997 4.98438 15.2877Z" fill="currentColor"/>
<path d="M25.5893 15.2852C28.3817 15.2851 31.1741 15.2851 33.9896 15.3123C34.012 16.049 34.0114 16.7583 34.0107 17.4677C33.4396 17.4705 32.8685 17.4755 32.2974 17.4757C29.3582 17.4765 26.4189 17.4761 23.4796 17.4761C23.3803 17.4761 23.2809 17.4761 23.1562 17.4761C23.1562 16.743 23.1562 16.0286 23.1801 15.2938C23.9991 15.2773 24.7942 15.2813 25.5893 15.2852Z" fill="currentColor"/>
<path d="M8.48144 10.8065C7.77212 10.8079 7.06266 10.8022 6.35356 10.8151C6.1445 10.819 6.08886 10.7533 6.08986 10.5518C6.09637 9.23524 6.09045 7.91864 6.09079 6.57652C6.09281 5.87588 6.09264 5.20078 6.0974 4.50039C6.87678 4.4751 7.65122 4.4751 8.46817 4.4751C8.46817 5.16681 8.46817 5.84175 8.46817 6.55277C8.78344 6.55277 9.05689 6.55283 9.33033 6.55276C9.77328 6.55264 10.2164 6.55894 10.6591 6.54913C10.8424 6.54506 10.924 6.58828 10.9188 6.78988C10.9047 7.33516 10.911 7.88096 10.8807 8.45485C10.0624 8.48315 9.27257 8.48315 8.48144 8.48315C8.48144 9.28683 8.48144 10.0467 8.48144 10.8065Z" fill="currentColor"/>
<path d="M32.8914 6.55174C32.9073 6.65014 32.9048 6.73167 32.9037 6.81323C32.8872 8.06259 32.8655 9.31193 32.8596 10.5613C32.8585 10.7752 32.7808 10.8172 32.5854 10.8143C31.914 10.8044 31.2424 10.8102 30.5468 10.7953C30.5228 10.7805 30.5142 10.7557 30.5196 10.7306C30.5202 9.99364 30.5155 9.28188 30.5145 8.55484C30.5023 8.5301 30.4863 8.52064 30.4504 8.50097C29.6549 8.48924 28.8793 8.48773 28.1036 8.48622C28.0988 7.90578 28.0991 7.32523 28.0861 6.74497C28.0817 6.55236 28.1914 6.55008 28.3328 6.55078C28.9313 6.55375 29.5298 6.55191 30.1284 6.55183C30.2278 6.55181 30.3272 6.55182 30.4707 6.55182C30.4707 6.20338 30.4707 5.88043 30.4707 5.55747C30.4707 5.28523 30.4853 5.01199 30.4661 4.74106C30.4502 4.51601 30.5407 4.4668 30.7514 4.47039C31.4326 4.482 32.1142 4.47516 32.8213 4.47564C32.8559 5.1622 32.8648 5.84855 32.8914 6.55174Z" fill="currentColor"/>
<path d="M13.3593 10.8081C14.9772 10.8075 16.595 10.8069 18.2376 10.8062C18.2623 12.2745 18.2623 13.743 18.2623 15.2508C17.6751 15.2508 17.0896 15.2508 16.4586 15.2509C16.3711 15.2588 16.3289 15.2667 16.2868 15.2745C16.1919 15.2685 16.097 15.2626 15.9556 15.2549C15.8908 15.2004 15.8571 15.1478 15.8567 15.0949C15.853 14.6603 15.8556 14.2256 15.856 13.7909C15.8563 13.5327 15.8561 13.2745 15.8561 13.0209C15.0696 13.0209 14.3266 13.0151 13.5837 13.0256C13.4228 13.0279 13.3416 12.9955 13.3549 12.8045C13.3601 12.1223 13.3597 11.4652 13.3593 10.8081Z" fill="currentColor"/>
<path d="M20.7576 10.8371C22.3597 10.8121 23.9557 10.8119 25.5822 10.8376C25.6144 11.5762 25.6161 12.2889 25.5905 13.0066C24.7653 13.0115 23.9672 13.0115 23.1482 13.0115C23.1482 13.7498 23.1482 14.4637 23.1369 15.1847C23.1122 15.2043 23.1035 15.2194 23.0996 15.2372C22.7108 15.2416 22.322 15.2459 21.8981 15.2294C21.8133 15.2186 21.7637 15.2285 21.714 15.2384C21.528 15.2422 21.3419 15.2459 21.1264 15.2337C21.0813 15.2241 21.0655 15.2304 21.0498 15.2367C20.9907 15.2402 20.9317 15.2437 20.8441 15.2283C20.7986 15.1983 20.7818 15.1872 20.765 15.176C20.7619 15.0826 20.7589 14.9892 20.7789 14.8587C20.7908 14.6668 20.7796 14.512 20.7683 14.3571C20.7638 13.3185 20.7592 12.2799 20.7545 11.2413C20.754 11.1149 20.7525 10.9884 20.7576 10.8371Z" fill="currentColor"/>
<path d="M32.851 32.0775C32.1468 32.1035 31.4481 32.0966 30.7498 32.1096C30.5344 32.1136 30.4648 32.0549 30.4668 31.8366C30.4769 30.786 30.4705 29.7352 30.4882 28.6438C30.5126 27.8577 30.5188 27.1123 30.525 26.3669C30.6025 26.35 30.6799 26.3188 30.7575 26.3183C31.3754 26.3143 31.9934 26.3247 32.611 26.3117C32.8469 26.3068 32.9095 26.3933 32.908 26.6143C32.9004 27.7502 32.9062 28.8862 32.9079 30.0472C32.8934 30.2202 32.8674 30.3681 32.8652 30.5162C32.8579 31.0282 32.8589 31.5403 32.851 32.0775Z" fill="currentColor"/>
<path d="M8.47386 28.6209C8.47386 29.7677 8.47386 30.9145 8.47386 32.1022C7.68803 32.1022 6.91883 32.1022 6.12396 32.1023C6.09395 31.4486 6.08959 30.7949 6.08789 30.1163C6.09179 28.9226 6.09874 27.7537 6.08921 26.585C6.08742 26.366 6.15531 26.3075 6.37047 26.3123C7.05943 26.3275 7.74884 26.3234 8.45204 26.3669C8.46863 27.145 8.47124 27.883 8.47386 28.6209Z" fill="currentColor"/>
<path d="M13.3857 21.9583C12.5761 21.9583 11.7665 21.9583 10.9121 21.9583C10.9121 21.2247 10.9121 20.5285 10.9372 19.8028C11.4445 19.7695 11.9268 19.7656 12.4091 19.7617C12.5408 19.7654 12.6724 19.769 12.8531 19.7729C13.1072 19.7698 13.3121 19.7664 13.5171 19.7631C13.7957 19.7671 14.0743 19.7712 14.4031 19.7755C14.6582 19.7716 14.8632 19.7675 15.0682 19.7634C15.2911 19.7663 15.514 19.7692 15.7688 19.7792C15.8096 19.801 15.8218 19.8122 15.8372 19.8201C15.8355 19.9312 15.8337 20.0423 15.832 20.198C15.8362 20.3011 15.8403 20.3596 15.8444 20.4182C15.8444 20.922 15.8444 21.4259 15.8444 21.9539C15.2947 21.9539 14.7917 21.9539 14.2403 21.954C14.1146 21.958 14.0372 21.9618 13.9598 21.9657C13.9007 21.9628 13.8416 21.9599 13.739 21.9568C13.5923 21.9572 13.489 21.9578 13.3857 21.9583Z" fill="currentColor"/>
<path d="M28.0895 19.7808C28.0841 20.431 28.0792 21.0746 28.0889 21.7179C28.0916 21.8979 28.029 21.9522 27.851 21.9508C27.1153 21.9449 26.3795 21.9507 25.5942 21.9527C25.4499 21.9567 25.3551 21.9601 25.2604 21.9635C24.5704 21.9635 23.8805 21.9635 23.168 21.9635C23.168 21.2419 23.168 20.5229 23.1982 19.8171C23.2698 19.8443 23.3111 19.8705 23.3526 19.8706C24.5003 19.8729 25.648 19.8737 26.7956 19.8691C26.8565 19.8688 26.9171 19.8192 27.0013 19.7861C27.3793 19.7724 27.7338 19.7651 28.0882 19.7578C28.0882 19.7578 28.0955 19.7741 28.0895 19.7808Z" fill="currentColor"/>
<path d="M20.7116 24.1618C19.9158 24.1868 19.1245 24.1863 18.3072 24.1854C18.2812 23.4611 18.2812 22.7372 18.2812 21.9951C19.0757 21.9951 19.8828 21.9951 20.716 21.9951C20.716 22.7084 20.716 23.4224 20.7116 24.1618Z" fill="currentColor"/>
<path d="M13.3804 26.425C13.3595 25.7045 13.3644 24.9841 13.388 24.2487C14.1442 24.2359 14.8818 24.2349 15.6192 24.2456C15.693 24.2466 15.7658 24.3186 15.8389 24.3986C15.8421 24.464 15.8456 24.4885 15.849 24.5129C15.8445 25.1341 15.84 25.7553 15.8303 26.4019C15.0188 26.4265 14.2125 26.4258 13.3804 26.425Z" fill="currentColor"/>
<path d="M10.9314 36.3828C10.9062 35.6565 10.9062 34.9352 10.9062 34.1758C11.7306 34.1758 12.5169 34.1758 13.3359 34.2012C13.3803 34.701 13.3919 35.1753 13.4035 35.6496C13.4035 35.8791 13.4035 36.1086 13.4035 36.3836C13.2355 36.3836 13.0957 36.3836 12.9094 36.3834C12.785 36.3889 12.707 36.3945 12.629 36.4001C12.5698 36.3952 12.5105 36.3903 12.4086 36.3853C12.306 36.3907 12.246 36.3963 12.1859 36.4018C11.7761 36.3971 11.3663 36.3925 10.9314 36.3828Z" fill="currentColor"/>
<path d="M25.503 24.2373C25.5532 24.3173 25.6062 24.4016 25.6074 24.4867C25.6162 25.1131 25.6147 25.7396 25.6127 26.391C24.8121 26.4191 24.0152 26.4223 23.1932 26.4257C23.168 25.7106 23.168 24.9954 23.168 24.242C23.942 24.242 24.7119 24.242 25.503 24.2373Z" fill="currentColor"/>
<path d="M2.5956 21.9868C2.6165 22.6489 2.63237 23.3112 2.66131 23.9729C2.67011 24.1743 2.56499 24.189 2.40586 24.1879C1.69498 24.1829 0.984038 24.1853 0.247104 24.185C0.215248 23.4943 0.208048 22.8037 0.207031 22.1131C0.206972 22.0726 0.256834 22.032 0.326807 21.9882C0.39483 21.9779 0.41951 21.9709 0.44419 21.9639C0.888825 21.9692 1.33346 21.9746 1.82111 21.9799C1.8894 21.9747 1.91468 21.9695 1.93996 21.9643C2.10808 21.9681 2.2762 21.9719 2.48416 21.9754C2.54787 21.9789 2.57174 21.9828 2.5956 21.9868Z" fill="currentColor"/>
<path d="M36.3398 15.258C36.3578 14.5983 36.382 13.9388 36.3897 13.279C36.3918 13.1002 36.4499 13.0445 36.6287 13.0464C37.3275 13.0539 38.0264 13.049 38.751 13.0479C38.7768 13.7718 38.7768 14.4966 38.7768 15.2594C38.0236 15.2594 37.2874 15.2594 36.5099 15.2585C36.4427 15.2641 36.4168 15.2705 36.3781 15.272C36.3654 15.2671 36.3398 15.258 36.3398 15.258Z" fill="currentColor"/>
<path d="M38.7791 24.1898C37.9776 24.1836 37.1808 24.1836 36.3795 24.1836C36.3644 24.1249 36.3483 24.0913 36.3482 24.0576C36.346 23.4365 36.3448 22.8154 36.3465 22.1942C36.3467 22.1419 36.3694 22.0897 36.4165 22.0126C36.9506 21.9844 37.4497 21.981 37.9488 21.9775C38.0437 21.9806 38.1386 21.9837 38.2803 21.9864C38.4227 21.9803 38.5183 21.9745 38.614 21.9688C38.6746 22.0006 38.7352 22.0324 38.7957 22.1118C38.798 22.4344 38.8005 22.7095 38.803 22.9846C38.7996 23.0087 38.7962 23.0329 38.7925 23.0999C38.7941 23.4918 38.7961 23.8407 38.7982 24.1896C38.7982 24.1896 38.7839 24.196 38.7791 24.1898Z" fill="currentColor"/>
<path d="M0.215701 13.1269C0.468971 13.0845 0.71468 13.0556 0.960801 13.0516C1.45751 13.0437 1.95446 13.0512 2.45128 13.0482C2.57794 13.0474 2.66296 13.0668 2.66006 13.2226C2.64808 13.8652 2.64308 14.508 2.5938 15.166C1.7754 15.1801 0.998721 15.1788 0.222045 15.1775C0.217472 14.5022 0.2129 13.8269 0.215701 13.1269Z" fill="currentColor"/>
<path d="M23.9069 19.7691C24.9307 19.7688 25.9294 19.7743 26.9533 19.7862C26.9178 19.819 26.8572 19.8687 26.7964 19.8689C25.6487 19.8735 24.501 19.8727 23.3533 19.8704C23.3119 19.8704 23.2706 19.8441 23.2207 19.8112C23.4354 19.7865 23.6586 19.7807 23.9069 19.7691Z" fill="currentColor"/>
<path d="M0.226562 15.202C0.99875 15.1788 1.77543 15.1801 2.57811 15.1836C2.60412 15.1857 2.60301 15.2112 2.60216 15.2239C1.81122 15.2332 1.02114 15.2299 0.226562 15.202Z" fill="currentColor"/>
<path d="M20.7622 14.3813C20.7796 14.5121 20.7908 14.667 20.7852 14.8362C20.7642 14.7022 20.7601 14.5538 20.7622 14.3813Z" fill="currentColor"/>
<path d="M21.7363 15.2447C21.7653 15.2289 21.815 15.219 21.8745 15.2239C21.8419 15.2428 21.7994 15.2467 21.7363 15.2447Z" fill="currentColor"/>
<path d="M20.7656 15.1954C20.7836 15.1875 20.8004 15.1986 20.8242 15.2233C20.8089 15.2293 20.7867 15.2219 20.7656 15.1954Z" fill="currentColor"/>
<path d="M21.0645 15.2425C21.0661 15.2307 21.0819 15.2244 21.1023 15.2281C21.0976 15.2414 21.088 15.2447 21.0645 15.2425Z" fill="currentColor"/>
<path d="M23.2064 31.6566C23.2009 31.6711 23.1919 31.6732 23.1702 31.6696C23.1569 31.6545 23.1562 31.645 23.1607 31.6223C23.1819 31.6171 23.1942 31.6288 23.2064 31.6566Z" fill="currentColor"/>
<path d="M23.1386 15.1851C23.1532 15.1918 23.1565 15.2057 23.1596 15.241C23.1496 15.2584 23.1399 15.2544 23.1157 15.2441C23.1052 15.2198 23.1139 15.2047 23.1386 15.1851Z" fill="currentColor"/>
<path d="M28.0541 8.57015C28.0802 9.27813 28.0807 9.98639 28.0813 10.7195C27.2762 10.7573 26.4709 10.7701 25.6417 10.7879C25.6115 10.1385 25.6009 9.48417 25.6016 8.82986C25.6018 8.6537 25.6874 8.56379 25.8963 8.56749C26.6068 8.58009 27.3178 8.57114 28.0541 8.57015Z" fill="currentColor"/>
<path d="M27.9464 19.8425C27.9425 19.8448 27.9504 19.8401 27.9464 19.8425V19.8425Z" fill="currentColor"/>
</g>
</svg>
