<svg viewBox="0 0 34 38" fill="currentColor" xmlns="http://www.w3.org/2000/svg">
<path d="M8.5 6.33333H12.75V14.7778H10.625V16.8889H8.5V25.3333H10.625V27.4444H12.75V29.5556H21.25V27.4444H23.375V25.3333H25.5V16.8889H23.375V14.7778H21.25V6.33333H25.5V8.44444H29.75V12.6667H31.875V16.8889H34V25.3333H31.875V29.5556H29.75V33.7778H25.5V35.8889H21.25V38H12.75V35.8889H8.5V33.7778H4.25V29.5556H2.125V25.3333H0V16.8889H2.125V12.6667H4.25V8.44444H8.5V6.33333Z" fill="currentColor"/>
<path d="M14.875 25.3333V0H19.125V25.3333H14.875Z" fill="currentColor"/>
</svg>
