<svg viewBox="0 0 259 357" fill="currentColor" xmlns="http://www.w3.org/2000/svg">
<path fillRule="evenodd" clipRule="evenodd" d="M15.9241 78.6835H0V158.772H7.96203V141.443H15.9241V104.911H29.5063V141.911H16.3924V192.025H2.81013V226.215H5.62025V228.089H7.49367V230.43H9.83544V232.304H11.2405V233.241H13.1139V236.051H14.9873V237.924H16.3924V249.165H69.3165V266.962H81.962V311.456H68.8481V297.873H55.7342V262.747H42.1519V310.987H55.7342V318.013H69.3165V329.722H82.4304V341.43H95.5443V356.418H163.456V341.43H176.57V329.722H189.684V318.481H203.266V311.456H216.848V262.747H203.734V297.873H190.152V311.456H177.038V266.494H189.684V248.696H242.139V237.924H243.076V236.051H244.949V234.646H246.354V232.772H249.165V229.962H251.975V227.62H253.38V225.747H255.722V192.025H242.139V141.911H229.494L229.025 104.911H242.608V141.443H250.57V158.772H259V78.6835H243.076V52.9241H229.494V39.8101H215.911V26.6962H202.797V13.1139H176.57V0H82.4304V13.1139H56.2025V26.6962H42.6203V39.8101H29.5063V52.9241H15.9241V78.6835ZM29.9747 154.089V192.025H43.0886V204.671H95.5443V192.025H108.658V154.557H95.5443V141.443H43.0886V154.089H29.9747ZM150.342 154.089V192.025H163.456V204.671H215.911V192.025H228.557V154.089H215.911V141.443H163.456V154.089H150.342ZM122.241 191.089V203.734H108.658V243.076H150.342V203.734H136.759V191.089H122.241ZM109.127 266.494H95.076V311.456H109.127V266.494ZM122.241 311.456V266.494H136.759V311.456H122.241ZM149.873 266.494L150.342 311.456H163.456V266.494H149.873Z" fill="currentColor"/>
</svg>
