<svg viewBox="0 0 33 39" fill="none" xmlns="http://www.w3.org/2000/svg">
<path d="M22.5163 20.5289C22.5525 20.4948 22.5888 20.4607 22.6578 20.4022C22.7123 20.3448 22.7506 20.3133 22.7533 20.2786C22.7989 19.6917 22.8401 19.1044 22.8822 18.5172C23.4582 18.5172 24.0341 18.5172 24.6589 18.5172C24.6589 17.9332 24.6583 17.3982 24.659 16.8631C24.6596 16.3996 24.6884 16.3683 25.1272 16.3682C27.6343 16.3676 30.1414 16.3716 32.6485 16.3623C32.9142 16.3613 33.0082 16.4451 32.9997 16.7303C32.9827 17.3019 32.9929 17.8744 32.9566 18.4758C32.3398 18.5047 31.7583 18.5043 31.1724 18.4817C31.0918 18.4365 31.0156 18.4135 30.9393 18.3906C30.9365 18.4298 30.9337 18.469 30.9303 18.5354C30.9268 18.653 30.924 18.7434 30.8994 18.8402C30.8761 19.0153 30.8744 19.1842 30.8731 19.3834C30.8732 21.2527 31.5185 23.142 31.5 25C31.4733 25.6735 30.8174 26.2776 30.8137 26.9321C30.8133 27.0003 30.8522 27.0687 30.8731 27.1672C30.8727 27.4798 32.5215 27.2153 32.5 27.5C32.4119 27.5858 32.7355 28.0915 31.5 28.5C32.9927 28.5036 31.5516 29.0258 31.5 29C31.0824 28.9625 29.6097 28.2249 29.1979 28.2171C29.1871 28.2169 29.1753 28.2722 29.1382 28.3026C28.9389 28.2971 28.7588 28.2815 28.7672 28.5643C28.541 28.7461 30.7698 28.8198 31 29C31.0011 29.3558 28.7914 29.8593 28.7703 30.1876C28.6847 30.2527 28.6194 30.3152 28.5257 30.3786C28.2113 30.3786 27.7911 31.525 27.5 31.5C27.2054 31.3755 27.0568 30.0813 26.7352 30.154C26.7342 29.5606 26.7362 28.9972 26.7565 28.43C26.7895 28.3767 26.8043 28.3273 26.8191 28.278C26.7874 28.287 26.7557 28.296 26.6955 28.3046C26.1292 28.3042 25.5915 28.3042 25.0538 28.304C24.6526 28.3039 24.6524 28.3038 24.6523 27.8925C24.6521 27.4285 24.6441 26.9643 24.6559 26.5006C24.6613 26.289 24.5942 26.2173 24.3947 26.2217C23.8775 26.2333 23.3597 26.2361 22.8426 26.2207C22.6198 26.2141 22.5686 26.3069 22.5731 26.5232C22.5837 27.0301 22.5747 27.5374 22.5504 28.048C22.3747 28.0924 22.2231 28.1636 22.0696 28.1688C21.6034 28.1844 21.1363 28.1701 20.6699 28.1802C20.6138 28.1814 20.5592 28.2611 20.5032 28.3349C20.4995 28.9935 20.4966 29.6217 20.4758 30.2531C20.4325 30.2954 20.407 30.3347 20.3532 30.3778C19.5947 30.3844 18.8647 30.3871 18.1056 30.3865C17.4994 30.3816 16.9217 30.3936 16.3451 30.3722C16.0894 30.3627 16.0409 30.4696 16.0463 30.7102C16.0585 31.2484 16.5217 31.4589 16.5 32C16.434 32.0653 16.5712 32.4365 16.5 32.5C16.3899 32.5001 16.0884 33.0232 16 33C15.8877 32.9122 16.6121 34.0576 16.5 34C16.2432 33.8681 15.6637 33.1895 15.5 33.5C14.84 33.5001 15.6357 34.0246 15 34C14.7278 33.7501 13.1567 32.7258 13 33C12.969 33.6345 12.5362 34.3804 12.5 35C12.1668 35.0103 11.3452 34.4404 11.0373 34.4215C10.8474 34.4098 13.0277 35.7142 12.9999 36C11.5269 35.9997 7.94721 35.0234 6.5 35C6.39839 34.9091 6.0999 35.0997 6 35C5.9999 34.4279 5.47575 33.0425 5.50089 32.5C5.69066 32.4361 6.22743 32.3419 6.42153 32.2776C6.82406 32.2754 7.34212 32.514 7.71591 32.5222C7.88708 32.5259 7.94221 32.457 7.94551 32.2776C7.95517 31.753 7.46011 30.5276 7.5 30C7.56835 29.9009 7.92439 30.1028 8 30C8.59005 29.9931 9.36496 30.3964 9.96605 30.3964C9.96605 29.7455 9.25303 29.1477 9.27957 28.557C9.40691 28.5566 9.19301 28.3935 9.27957 28.3561C9.47933 28.2697 10.7865 28.6191 10.9316 28.3561C10.9771 28.3501 11.0227 28.344 11.0937 28.3729C11.272 28.527 11.4205 28.602 11.538 28.3613C11.6771 28.3503 11.8163 28.3393 12.0081 28.3241C12.0081 27.6178 12.0081 26.9194 12.0404 26.187C12.1352 25.8973 12.2544 25.639 12.2437 25.3869C12.2335 25.1483 12.144 24.9266 12.3059 24.7037C12.3469 24.6472 12.325 24.5391 12.332 24.4548C12.7826 24.4477 13.2334 24.446 13.6838 24.4293C13.7805 24.4257 13.8755 24.3681 14.0043 24.3016C14.0581 24.1686 14.0936 24.0699 14.0972 23.9699C14.122 23.2956 14.1292 22.6204 14.1641 21.9467C14.1861 21.5234 14.2315 21.1041 14.0298 20.7113C14.0581 20.6669 14.0865 20.6224 14.1513 20.5956C14.2462 20.6255 14.3046 20.6476 14.3633 20.6485C15.9028 20.6719 17.4423 20.6991 18.982 20.711C19.4155 20.7144 19.8493 20.6535 20.2829 20.6555C20.8587 20.6581 21.4344 20.7086 22.01 20.7054C22.1791 20.7044 22.3475 20.5909 22.5163 20.5289Z" fill="currentColor"/>
<path d="M0.0144183 30.3791C0.00933429 28.4446 0.000606893 26.5101 6.52442e-05 24.5757C-0.000656873 21.9923 0.00478348 19.409 0.00806772 16.8257C0.00862327 16.389 0.028467 16.3695 0.441565 16.3692C0.938972 16.369 1.43638 16.3685 1.93378 16.3672C1.94167 16.3672 1.94952 16.3544 1.98532 16.3232C1.98532 16.232 1.98529 16.1161 1.98532 16.0002C1.98592 13.6007 1.98601 11.2012 1.98756 8.80166C1.98786 8.32226 2.02348 8.28749 2.47523 8.28755C2.96273 8.28761 3.45023 8.28756 3.97866 8.28756C3.97866 7.72834 3.97865 7.18138 3.97866 6.63443C3.97867 6.21858 3.99992 6.19834 4.39431 6.19983C4.90962 6.20178 5.42495 6.20031 5.96859 6.20031C5.96859 5.65206 5.96847 5.13559 5.96863 4.61913C5.96877 4.12831 5.97452 4.12328 6.42153 4.12446C6.91723 4.12577 7.41294 4.12476 7.94019 4.12476C7.94019 3.58605 7.94011 3.07024 7.94022 2.55443C7.94031 2.09573 7.96919 2.06957 8.41439 2.07264C8.92005 2.07614 9.42575 2.07345 9.96171 2.07345C9.96171 1.49592 9.97309 0.947228 9.95713 0.399441C9.94857 0.105852 10.0419 -0.00168934 10.3241 2.00223e-05C12.1331 0.0109838 13.9421 0.0115293 15.7511 0.00465815C15.9648 0.00384654 16.0372 0.0703403 16.0329 0.297459C16.0219 0.877844 16.0292 1.45862 16.0292 2.06753C16.6316 2.06753 17.1984 2.07922 17.7645 2.06208C18.0089 2.05468 18.0766 2.14284 18.0748 2.39573C18.0656 3.66025 18.0722 4.9249 18.038 6.21891C17.337 6.2586 16.6713 6.26888 15.9964 6.27095C15.9764 6.24861 15.9726 6.23258 15.9802 6.18255C15.9867 5.54887 15.9951 4.94713 15.9834 4.34584C15.9818 4.26678 15.8785 4.12404 15.8195 4.1224C15.2441 4.10633 14.6682 4.11236 14.0924 4.11837C14.0512 4.11881 14.0104 4.16851 13.943 4.18414C13.2721 4.17296 12.6277 4.17296 11.987 4.17296C11.987 5.5496 11.987 6.90409 11.987 8.27726C13.3372 8.27726 14.6648 8.27726 16.0027 8.30092C16.0246 9.01453 16.036 9.70447 16.0192 10.3971C14.653 10.4049 13.3151 10.4101 11.9481 10.411C10.0287 10.405 8.13842 10.4069 6.2482 10.3967C6.01971 10.3955 5.98245 10.4962 5.98323 10.7051C5.98917 12.3048 5.98755 13.9046 5.98737 15.5043C5.98684 20.3251 5.98597 25.1459 5.98502 29.9667C5.98493 30.3796 5.98421 30.3798 5.58393 30.38C5.16725 30.3803 4.74984 30.3959 4.33416 30.3742C4.08317 30.3611 4.02816 30.4604 4.03033 30.7081C4.04074 31.897 4.03507 33.086 4.0351 34.275C4.03511 34.3902 4.0351 34.5055 4.0351 34.6615C3.33855 34.6615 2.68094 34.6615 2.02245 34.64C2.01944 34.5897 2.0173 34.561 2.01726 34.502C2.00159 33.6061 1.98383 32.7405 1.96648 31.8445C1.96663 31.5512 1.96637 31.2882 1.96668 30.9978C1.96694 30.8603 1.96664 30.7502 1.96638 30.6125C1.98338 30.3685 1.84391 30.381 1.70763 30.3811C1.14323 30.3817 0.578823 30.38 0.0144183 30.3791Z" fill="currentColor"/>
<path d="M31.5 18C32.0815 18.0004 32.5 18 32.9473 18.5046C32.9797 18.5681 32.9908 18.6322 32.9908 18.6962C32.9933 23.2825 32.995 27.8687 32.9636 32.485C31.6351 32.5153 30.3396 32.5215 29.0442 32.5105C28.8051 32.5085 28.7278 32.5802 28.7358 32.8381C28.7556 33.4726 28.7489 34.1079 28.7529 34.7429C28.7529 34.7429 28.7374 34.7264 28.7154 34.731C27.4248 34.7341 26.1563 34.7343 24.8878 34.729C24.7312 34.7283 24.6411 34.7592 24.6454 34.9579C24.6583 35.551 24.6578 36.1445 24.6586 36.7596C24.6538 36.8106 24.6529 36.8398 24.652 36.8691C24.652 36.8691 24.6502 36.8667 24.6227 36.8649C18.4034 36.863 12.2114 36.863 5.98845 36.863C5.98845 37.3376 5.98922 37.7671 5.98817 38.1967C5.98752 38.4605 5.98407 38.7243 5.98188 38.9881C5.4943 38.9915 5.00672 38.9949 4.49166 38.9686C4.65021 38.3068 4.53922 37.7401 4.09681 37.1474C4.09681 37.394 4.11008 37.5524 4.09237 37.7068C4.07954 37.8186 4.02561 37.925 3.99 38.0339C3.99 37.6487 3.99 37.2635 3.99 36.8555C3.39942 36.8555 2.84393 36.8532 2.28846 36.8566C2.06779 36.858 1.94089 36.7788 2.02739 36.4968C2.13055 36.3617 2.22969 36.2559 2.26024 36.1311C2.33633 35.8203 2.67058 35.506 2.97117 35.5048C3.38742 35.5032 3.80383 35.4978 4.21981 35.5092C4.32227 35.512 4.42456 35.5699 4.52469 35.609C4.64796 35.6571 4.76839 35.7554 4.89093 35.757C5.83497 35.7695 6.77942 35.7523 7.72328 35.7712C7.99706 35.7767 8.32014 35.792 8.52737 35.9454C8.71935 36.0874 8.88128 36.1573 9.09799 36.1542C9.40251 36.1498 9.70743 36.1449 10.0115 36.1577C10.1153 36.162 10.2169 36.2197 10.3197 36.2521C10.4226 36.2846 10.5263 36.3449 10.6289 36.343C11.342 36.3301 12.055 36.3058 12.7678 36.28C12.8345 36.2776 12.8999 36.2393 12.9661 36.2183C13.1715 36.1532 13.3736 36.0685 13.5833 36.029C13.7897 35.99 14.0729 36.0821 14.2 35.9656C14.4548 35.7322 14.7196 35.7684 14.9965 35.7648C15.3112 35.7608 15.626 35.7685 15.9406 35.7609C16.0272 35.7588 16.1478 35.7508 16.1931 35.6928C16.3548 35.4857 16.5625 35.5001 16.7761 35.5037C16.9892 35.5072 17.2119 35.5459 17.4133 35.4939C17.6651 35.4289 17.9005 35.2896 18.1397 35.1748C18.1652 35.1626 18.1808 35.0994 18.1811 35.0597C18.1832 34.7566 18.3647 34.7212 18.5931 34.7239C19.214 34.7311 19.1467 34.7817 19.1671 34.1104C19.1769 33.7906 19.0936 33.6499 18.776 33.684C18.4782 33.7159 18.1639 33.7383 18.1569 33.262C18.1563 33.2201 18.0964 33.1794 18.0644 33.1378C17.8711 32.8872 17.8863 32.739 18.1559 32.5207C19.6378 32.5222 21.0914 32.5222 22.5842 32.5222C22.5842 31.9064 22.5842 31.3381 22.6055 30.7649C22.9078 30.4987 22.7109 30.2967 22.5308 30.102C22.885 29.9097 22.9962 29.9765 23.0736 30.3479C23.0968 30.4593 23.204 30.5747 23.3014 30.6399C23.5351 30.7966 23.5575 30.9694 23.3467 31.1601C23.3065 31.1965 23.2678 31.2532 23.2607 31.3054C23.2567 31.3353 23.3213 31.407 23.3489 31.4036C23.3984 31.3976 23.4417 31.3458 23.4904 31.319C23.5868 31.2661 23.6927 31.1668 23.7803 31.1819C23.8566 31.195 23.9422 31.3288 23.9725 31.4271C24.049 31.6756 24.2084 31.7566 24.4197 31.6245C24.4962 31.5767 24.5734 31.53 24.6509 31.5131C24.6515 31.8023 24.6596 32.0616 24.6488 32.3199C24.6408 32.5106 24.6961 32.5905 24.888 32.587C25.4457 32.5767 26.0036 32.5787 26.5613 32.5866C26.7344 32.589 26.7917 32.5203 26.7884 32.3403C26.78 31.8874 26.7853 31.4342 26.785 30.9812C26.7846 30.3801 26.7846 30.3803 27.3346 30.3801C27.436 30.38 27.5374 30.3781 27.6388 30.377C27.9247 30.3779 28.0511 30.1841 28.3892 30.185C28.5043 30.1202 28.437 30.065 28.5 30.0001C28.5008 29.6745 28.7916 29.5338 28.793 29.1488C28.7926 28.9141 28.501 28.6756 28.5 28.5001C28.4677 28.2185 28.7722 27.9936 29 28.0001C29.4623 27.9992 30.0364 28.3018 30.4443 28.3007C30.49 28.3012 30.5357 28.3017 30.6285 28.3024C30.8709 28.3281 30.8825 28.1965 30.8706 28.0448C30.8714 27.7623 30.4824 27.3325 30.5 27.0001C30.5245 26.3614 30.9256 25.9199 30.9266 25.3311C30.9269 25.1977 30.8913 25.0642 30.8722 24.9307C30.8724 23.0918 30.4834 21.3881 30.5 19.5001C30.5213 19.2904 30.495 19.1607 30.5 19.0001C30.5028 18.9096 30.4719 18.1174 30.5 18.0001C30.5908 17.9716 31.4345 18.0017 31.5 18Z" fill="currentColor"/>
<path d="M19.3851 33.2617C19.1437 33.4815 17.8707 32.8869 18.064 33.1375C18.0961 33.1791 18.156 33.2198 18.1566 33.2617C18.1635 33.738 18.4779 33.7156 18.7757 33.6837C19.0933 33.6496 19.1765 33.7903 19.1668 34.1101C19.1463 34.7814 19.2136 34.7308 18.5927 34.7236C18.3643 34.7209 18.1828 34.7563 18.1807 35.0594C18.1805 35.0991 18.1649 35.1623 18.1394 35.1745C17.9001 35.2894 17.6648 35.4286 17.4129 35.4936C17.2116 35.5456 16.9889 35.5069 16.7757 35.5034C16.5621 35.4998 16.3544 35.4854 16.1927 35.6925C16.1474 35.7505 16.0269 35.7585 15.9402 35.7606C15.6257 35.7682 15.3108 35.7605 14.9961 35.7645C14.7193 35.7681 14.4545 35.7319 14.1997 35.9653C14.0725 36.0818 13.7894 35.9897 13.5829 36.0287C13.3733 36.0683 13.1711 36.1529 12.9657 36.218C12.8996 36.239 12.8341 36.2773 12.7675 36.2797C12.0546 36.3055 11.3417 36.3299 10.6286 36.3427C10.526 36.3446 10.4223 36.2843 10.3194 36.2518C10.2165 36.2194 10.1149 36.1617 10.0112 36.1574C9.70709 36.1446 9.40217 36.1495 9.09765 36.1539C8.88094 36.157 8.71901 36.0872 8.52703 35.9451C8.3198 35.7917 7.99672 35.7764 7.72294 35.7709C6.77909 35.752 5.83463 35.7692 4.89059 35.7567C4.76805 35.7551 4.64762 35.6568 4.52435 35.6087C4.42422 35.5696 4.32193 35.5117 4.21947 35.5089C3.8035 35.4975 3.38708 35.503 2.97083 35.5045C2.67024 35.5057 2.33599 35.82 2.2599 36.1308C2.22935 36.2556 2.13022 36.3614 2.03835 36.4764C2.0096 35.9216 2.0048 35.3663 2.00926 34.7597C2.01988 34.6927 2.02124 34.677 2.0226 34.6613C2.68021 34.6613 3.33782 34.6613 4.03437 34.6613C4.03437 34.5053 4.03438 34.39 4.03437 34.2748C4.03434 33.0858 4.04001 31.8968 4.0296 30.7079C4.02743 30.4602 4.08244 30.3608 4.33343 30.374C4.74911 30.3957 5.16652 30.3801 5.5832 30.3798C5.98348 30.3796 5.9842 30.3794 5.98428 29.9664C5.98524 25.1457 5.98611 20.3249 5.98664 15.5041C5.98682 13.9043 5.98844 12.3046 5.9825 10.7049C5.98172 10.496 6.01898 10.3953 6.24747 10.3965C8.13769 10.4067 10.0845 9.96515 12 10C12.0256 10.6571 11.9694 11.7206 11.9548 12.3527C11.9273 12.3803 11.9149 12.3998 11.9025 12.4192C10.7364 12.4293 9.57032 12.4395 8.40425 12.4493C8.27425 12.4504 8.14424 12.4495 8.00416 12.4495C8.00416 14.4652 8.00416 16.4492 8.00402 18.4937C8.00233 22.4991 8.00079 26.444 7.99982 30.415C8.00006 30.5288 7.99972 30.6164 7.99939 30.704C7.97997 31.2284 7.95427 31.7527 7.9446 32.2774C7.9413 32.4568 7.88617 32.5257 7.715 32.522C7.34121 32.5138 6.96711 32.5211 6.53731 32.5217C6.37245 32.5212 6.25681 32.4976 6.15668 32.5293C6.08999 32.5504 6.04541 32.6505 5.99094 32.7152C5.99003 33.257 5.98912 33.7987 5.98808 34.3971C5.97039 34.7262 6.15444 34.6493 6.29233 34.6524C7.73681 34.6542 9.18129 34.656 10.6829 34.6582C11.0903 34.6593 11.4408 34.6524 11.7908 34.6635C11.9784 34.6694 12.0528 34.5981 12.0116 34.4012C12.024 33.7859 12.0363 33.1706 12.0952 32.5376C12.3468 32.519 12.5519 32.5182 12.757 32.5173C13.3885 32.5182 14.0199 32.5191 14.7083 32.5201C15.0309 32.5197 15.2967 32.519 15.5625 32.5184C15.6472 32.5191 15.7319 32.5197 15.8646 32.52C15.9568 32.4549 16.0009 32.3902 16.0451 32.3254C16.0466 31.7869 16.0576 31.2481 16.0454 30.71C16.04 30.4694 16.0885 30.3625 16.3442 30.372C16.9208 30.3934 18.3967 29.9658 19 30C19.0259 30.7229 19.3853 32.5715 19.3851 33.2617Z" fill="currentColor"/>
<path d="M6.01099 38.9935C5.98469 38.7241 5.98814 38.4603 5.98878 38.1964C5.98984 37.7669 5.98907 37.3373 5.98907 36.8628C12.2121 36.8628 18.404 36.8628 24.6245 36.8655C24.6488 37.4296 24.6476 37.991 24.6387 38.5522C24.6332 38.8951 24.531 38.9998 24.2204 38.9998C18.1601 38.9998 12.0998 38.9994 6.01099 38.9935Z" fill="currentColor"/>
<path d="M7 30.5C7.00155 26.5551 8.00305 22.4994 8.00811 18.5231C8.64777 18.4917 9.28394 18.4917 9.9555 18.4917C9.9555 21.788 9.9555 25.0226 9.95828 28.3129C9.96266 28.4338 9.96426 28.499 9.96586 28.5643C9.96586 29.1549 9.96586 29.7455 9.96586 30.3965C9.36477 30.3965 8.80246 30.3965 8.19004 30.3961C8.09327 30.3935 7.04665 30.5021 7 30.5Z" fill="currentColor"/>
<path d="M11.9697 12.3449C11.9694 11.721 11.9674 10.6528 11.9709 10C13.3127 9.96599 14.6522 10.4051 16.0472 10.3999C16.7549 10.3996 17.4055 10.3994 18.0561 10.3991C18.0602 10.9931 18.0577 11.5872 18.0716 12.1809C18.0771 12.4176 17.9597 12.4376 17.7845 12.4372C15.8644 12.4329 13.9444 12.4335 11.9978 12.408C11.9708 12.3705 11.9703 12.3577 11.9697 12.3449Z" fill="currentColor"/>
<path d="M28.737 34.737C28.7055 34.1007 28.7572 33.4723 28.7374 32.8379C28.7294 32.58 28.8067 32.5083 29.0458 32.5103C30.804 32.4102 32.9516 32.2021 32.9594 32.5141C32.9912 33.1385 32.9987 33.7635 32.9993 34.3885C32.9995 34.6613 32.8289 34.7211 32.6114 34.7218C31.4454 34.7252 30.2794 34.7312 29.1134 34.737C29.0121 34.7375 28.8658 34.7355 28.737 34.737Z" fill="currentColor"/>
<path d="M24.6638 36.7377C24.6591 36.1444 24.6595 35.5509 24.6466 34.9577C24.6423 34.759 24.7324 34.7282 24.889 34.7288C26.1723 34.6412 27.5767 34.0106 28.724 34.7394C28.7473 35.396 28.7411 36.0486 28.69 36.7215C27.7773 36.9339 26.0388 36.7575 24.6638 36.7377Z" fill="currentColor"/>
<path d="M18.0613 10.369C17.4634 10.8652 16.4999 10.5 16 10.5C15.5001 10.5 16.0238 9.01434 16.0054 8.28003C16.0025 8.22237 16.0066 8.20906 16.0326 8.18768C16.0926 7.9444 16.1432 7.71019 16.1601 7.47326C16.1642 7.41577 16.0572 7.34932 15.9943 7.26173C15.9919 7.16701 15.9965 7.09756 16.0211 7.03264C16.0886 7.09145 16.136 7.14572 16.1954 7.21359C16.2792 6.96877 16.2064 6.87881 15.9926 6.87307C15.9899 6.71236 15.9944 6.5764 16.0235 6.44238C16.1247 6.49915 16.2044 6.60562 16.2774 6.60065C16.8714 6.56024 17.4641 6.49899 18.0571 6.44409C18.0602 7.74243 18.0633 9.04076 18.0613 10.369Z" fill="currentColor"/>
<path d="M2 29C2.0003 29.1101 3.01883 30.8438 3 31.0002C2.99323 31.3172 1.95278 31.6045 1.96514 31.8751C1.9829 32.7407 3.58941 33.8275 3.58299 34.7232C3.49487 34.8126 1.84218 34.6506 1.77824 34.7099C1.27258 34.7143 0.766922 34.7185 0.261267 34.7232C0.0693302 34.725 -0.00327642 34.6267 0.000112893 34.4219C0.00919584 33.8732 0.00426727 33.3242 0.0330032 32.7511C0.15095 33.1889 0.240799 33.6508 0.330648 34.1127C0.447309 33.9537 0.531783 33.7735 0.553323 33.5851C0.616791 33.0301 0.425931 32.4456 0.731268 31.9162C0.757522 31.8707 0.732855 31.7901 0.727486 31.7262C0.713191 31.5561 0.685555 31.3864 0.683057 31.2162C0.677788 30.8571 0.81384 30.7202 1.15279 30.7029C1.42398 30.6891 1.72915 29.0214 2 29Z" fill="currentColor"/>
<path d="M1.96568 30.6124C1.69479 30.6614 1.42421 30.6888 1.15302 30.7026C0.814067 30.7199 0.678014 30.8568 0.683284 31.2159C0.685781 31.3861 0.713417 31.5558 0.727712 31.7259C0.733082 31.7898 0.757749 31.8704 0.731494 31.9159C0.426158 32.4453 0.617017 33.0298 0.553549 33.5848C0.532009 33.7732 0.447535 33.9534 0.330874 34.1124C0.241026 33.6505 0.151176 33.1886 0.0386057 32.7209C0.0121321 32.5396 0.00838077 32.364 0.0320782 32.1545C0.154307 31.9802 0.212874 31.8445 0.0158816 31.7421C0.0113504 31.3077 0.00681818 30.8733 0.00800382 30.4089C0.578126 30.3799 1.14253 30.3816 1.70693 30.381C1.84321 30.3809 1.98268 30.3684 1.96568 30.6124Z" fill="currentColor"/>
<path d="M22.4872 20.5219C22.3464 20.5909 22.1779 20.7045 22.0089 20.7055C21.4333 20.7087 20.8575 20.6582 20.2818 20.6556C19.8482 20.6536 19.4143 20.7145 18.9808 20.7111C17.4412 20.6991 15.9017 20.672 14.3621 20.6485C14.3034 20.6476 14.245 20.6256 14.1699 20.5916C14.2595 20.5501 14.3657 20.5134 14.4719 20.5133C17.1344 20.5115 19.7968 20.5135 22.4872 20.5219Z" fill="currentColor"/>
<path d="M3.98381 38.0635C4.0251 37.9251 4.07903 37.8186 4.09186 37.7068C4.10958 37.5524 4.0963 37.394 4.0963 37.1475C4.53871 37.7401 4.6497 38.3069 4.46312 38.9625C3.97884 39.0232 3.97252 39.0171 3.97483 38.5055C3.97546 38.3681 3.977 38.2306 3.98381 38.0635Z" fill="currentColor"/>
<path d="M18.0634 6.42049C17.6761 6.84209 16.6694 7.07512 15.999 7.0001C15.926 7.00507 16.1246 6.49951 16.0172 6.42291C15.9926 6.36053 15.9986 6.31993 16.0046 6.27932C16.995 5.79371 18.0574 5.20823 18.0301 6.24864C18.0622 6.29804 18.066 6.34729 18.0634 6.42049Z" fill="currentColor"/>
<path d="M24.5001 33.9997C26.0213 33.4704 28.5254 33.5813 28.6741 36.7444C28.588 36.7844 28.4716 36.8529 28.3546 36.8539C27.1393 36.8643 25.924 36.8639 24.6802 36.8676C24.6526 36.8395 24.4953 34.0507 24.5001 33.9997Z" fill="currentColor"/>
<path d="M14.0124 20.7319C14.231 21.1042 14.1856 21.5235 14.1636 21.9468C14.1287 22.6204 14.1215 23.2956 14.0968 23.9699C14.0931 24.07 14.0576 24.1687 14.0138 24.2753C13.9923 23.1059 13.9938 21.9292 14.0124 20.7319Z" fill="currentColor"/>
<path d="M12.3111 24.4468C12.3254 24.5393 12.3474 24.6474 12.3064 24.7038C12.1445 24.9267 12.234 25.1485 12.2441 25.387C12.2548 25.6392 12.1356 25.8975 12.0498 26.1584C12.0207 25.6936 11.9974 25.2225 12.0222 24.7542C12.028 24.644 12.1962 24.5436 12.3111 24.4468Z" fill="currentColor"/>
<path d="M22.8567 18.5107C22.8397 19.1046 22.7986 19.6919 22.753 20.2788C22.7503 20.3135 22.7119 20.345 22.6664 20.3843C22.6398 19.8431 22.6287 19.2952 22.6431 18.748C22.6452 18.6649 22.7657 18.5853 22.8567 18.5107Z" fill="currentColor"/>
<path d="M9.99257 28.5643C9.96443 28.4992 9.96283 28.4339 9.95703 28.3444C10.2637 28.3252 10.5746 28.3304 10.9086 28.3459C10.7865 28.6194 10.5189 28.4708 10.3191 28.5572C10.2326 28.5946 10.1199 28.5639 9.99257 28.5643Z" fill="currentColor"/>
<path d="M11.5123 28.3525C11.4205 28.6022 11.272 28.5271 11.1152 28.3826C11.2364 28.3527 11.3615 28.3481 11.5123 28.3525Z" fill="currentColor"/>
<path d="M0.012114 31.7695C0.214488 31.8446 0.15592 31.9803 0.039307 32.1259C0.0138915 32.0197 0.0103123 31.9083 0.012114 31.7695Z" fill="currentColor"/>
<path d="M1.80273 34.7154C1.84323 34.6505 1.90717 34.5913 1.99319 34.5322C2.01742 34.5611 2.01956 34.5898 2.02257 34.6401C2.02209 34.6774 2.02073 34.693 2.01644 34.7322C1.95107 34.7441 1.88863 34.7325 1.80273 34.7154Z" fill="currentColor"/>
<path d="M11.9546 12.353C11.9702 12.3576 11.9707 12.3704 11.9698 12.4023C11.9573 12.4247 11.9462 12.428 11.9187 12.4254C11.9147 12.4001 11.9272 12.3806 11.9546 12.353Z" fill="currentColor"/>
<path d="M24.7038 31.6243C24.627 31.6715 24.4965 31.5764 24.42 31.6243C24.2087 31.7564 24.0493 31.6753 23.9728 31.4269C23.9425 31.3286 23.8569 31.1948 23.7806 31.1816C23.693 31.1666 23.5871 31.2659 23.4907 31.3188C23.442 31.3455 23.3987 31.3973 23.3492 31.4033C23.3216 31.4067 23.257 31.3351 23.261 31.3051C23.2681 31.2529 23.3068 31.1962 23.347 31.1598C23.5578 30.9691 23.5355 30.7963 23.3017 30.6396C23.2043 30.5744 23.0971 30.459 23.0739 30.3476C22.9965 29.9762 23.6152 31.596 23.261 31.7883C23.4411 31.983 22.805 31.7621 22.5 32C22.4683 31.8747 22.5639 30.5093 22.5542 30.3784C21.85 30.3784 21.674 31.0215 21 31C21 31.8248 19.5028 31.0285 19.5 31C19.5029 30.3717 20.4678 28.1585 20.5 27.5C21.1237 27.47 21.7497 28.2986 22.3439 28.3089C22.535 28.3122 22.148 28.0838 22.1195 27.8923C22.1205 27.3852 22.5834 27.0299 22.5728 26.523C22.5683 26.3067 22.6195 26.2139 22.8424 26.2205C23.3594 26.2359 23.8773 26.2331 24.3945 26.2215C24.5939 26.2171 24.661 26.2888 24.6557 26.5004C24.6439 26.9641 24.6518 27.4283 24.652 27.8923C24.6521 28.3036 24.6523 28.3037 25.0535 28.3038C25.5912 28.304 26.5191 27.8703 27.0866 27.8923C27.1203 27.9429 27.2763 28.5488 27.0866 28.5488C27.0846 29.1121 27.0027 29.379 27 30C27.0133 30.2708 26.6388 30.506 26.5 30.5C26.0276 30.4797 25.5257 30.4014 25.0532 30.3846C24.7841 30.375 24.606 30.4552 24.6474 30.8066C24.6736 31.0285 24.7045 31.3988 24.7038 31.6243Z" fill="currentColor"/>
<path d="M20.5032 30.3784C21.177 30.3784 21.8508 30.3784 22.555 30.3784C22.5647 30.5094 22.5722 30.6112 22.5825 30.7413C22.5853 31.3378 22.5853 31.9062 22.5853 32.5219C21.0925 32.5219 19.6389 32.5219 18.1571 32.5205C18.129 31.8288 18.1291 31.1386 18.1322 30.419C18.8653 30.387 19.2216 30.0027 20 30C20.0754 29.999 20.4762 30.3795 20.5032 30.3784Z" fill="currentColor"/>
<path d="M24.6503 31.5128C24.6503 31.2569 24.6728 31.0285 24.6466 30.8066C24.6052 30.4552 24.7832 30.375 25.0524 30.3846C25.5249 30.4014 25.9973 30.4231 26.4697 30.4434C26.6085 30.4493 26.7437 30.4521 26.7334 30.2115C27.0557 30.0811 27.3385 30.2281 27.6331 30.3526C27.5368 30.3778 27.4354 30.3798 27.334 30.3798C26.784 30.38 26.7841 30.3799 26.7845 30.981C26.7848 31.434 26.7795 31.8871 26.7879 32.34C26.7912 32.5201 26.7339 32.5888 26.5608 32.5863C26.0031 32.5784 25.4451 32.5764 24.8875 32.5867C24.6956 32.5903 24.6402 32.5103 24.6482 32.3197C24.6591 32.0613 24.651 31.802 24.6503 31.5128Z" fill="currentColor"/>
<path d="M22.5511 28.0479C22.6029 28.2359 22.536 28.3123 22.3449 28.309C21.7506 28.2987 21.1561 28.3048 20.5332 28.3045C20.5599 28.261 20.6145 28.1813 20.6706 28.1801C21.137 28.17 21.6041 28.1843 22.0703 28.1687C22.2238 28.1635 22.3754 28.0923 22.5511 28.0479Z" fill="currentColor"/>
<path d="M11.9888 34.4058C12.0538 34.5984 11.9794 34.6697 11.7918 34.6637C11.4418 34.6526 11.0913 34.6596 10.7124 34.657C10.6831 34.3707 10.8475 34.4098 11.0374 34.4215C11.3453 34.4404 11.6556 34.4161 11.9888 34.4058Z" fill="currentColor"/>
<path d="M30.8533 24.9497C30.8907 25.0641 30.9263 25.1976 30.926 25.331C30.925 25.9198 30.9136 26.5086 30.8888 27.1172C30.851 27.0687 30.8121 27.0003 30.8125 26.9321C30.8162 26.2776 30.8266 25.6232 30.8533 24.9497Z" fill="currentColor"/>
<path d="M15.5603 32.4963C15.2982 32.5194 15.0324 32.5201 14.7383 32.5196C14.8451 32.2089 14.9735 32.1474 15.2303 32.2793C15.3423 32.3368 15.448 32.4085 15.5603 32.4963Z" fill="currentColor"/>
<path d="M30.4387 28.2751C30.0367 28.3015 29.6288 28.3025 29.1923 28.3025C29.1751 28.272 29.1868 28.2166 29.1977 28.2168C29.6094 28.2246 30.0211 28.2376 30.4387 28.2751Z" fill="currentColor"/>
<path d="M12.7541 32.4937C12.5533 32.5183 12.3482 32.5192 12.1152 32.5186C12.2254 32.2621 12.4818 32.2438 12.7541 32.4937Z" fill="currentColor"/>
<path d="M28.767 28.5645C28.792 28.7386 28.793 28.9141 28.7914 29.1187C28.5606 28.9978 28.5408 28.7462 28.767 28.5645Z" fill="currentColor"/>
<path d="M6.01562 32.7149C6.04586 32.6508 6.09044 32.5507 6.15713 32.5296C6.25726 32.4979 6.3729 32.5216 6.5092 32.5232C6.37093 32.5879 6.2054 32.651 6.01562 32.7149Z" fill="currentColor"/>
<path d="M30.8986 18.8403C30.9153 18.9946 30.9103 19.1552 30.8887 19.3345C30.8736 19.1843 30.8753 19.0155 30.8986 18.8403Z" fill="currentColor"/>
<path d="M6.29011 34.6311C6.15494 34.6496 5.9709 34.7265 5.9896 34.4277C6.08962 34.4708 6.1885 34.5402 6.29011 34.6311Z" fill="currentColor"/>
<path d="M8 30.4151C8.04608 30.3911 8.09273 30.3932 8.16176 30.4026C8.13626 30.5058 8.08839 30.6017 8.02004 30.7008C7.99991 30.6164 8.00024 30.5288 8 30.4151Z" fill="currentColor"/>
<path d="M30.8509 28.0469C30.8835 28.1963 30.8719 28.328 30.6523 28.3012C30.6954 28.2163 30.7627 28.1327 30.8509 28.0469Z" fill="currentColor"/>
<path d="M31.1725 18.4816C31.1114 18.5056 31.0458 18.5072 30.9557 18.5085C30.9338 18.469 30.9366 18.4298 30.9394 18.3906C31.0156 18.4135 31.0919 18.4365 31.1725 18.4816Z" fill="currentColor"/>
<path d="M28.7707 30.1875C28.7279 30.2498 28.6649 30.3147 28.5781 30.3786C28.6198 30.3151 28.6851 30.2526 28.7707 30.1875Z" fill="currentColor"/>
<path d="M16.0256 32.3281C16.0016 32.3903 15.9574 32.4551 15.8906 32.5194C15.9138 32.4562 15.9596 32.3934 16.0256 32.3281Z" fill="currentColor"/>
<path d="M26.7559 28.4299C26.7337 28.4052 26.7297 28.3767 26.7246 28.3265C26.7551 28.2958 26.7868 28.2868 26.8185 28.2778C26.8037 28.3272 26.7889 28.3766 26.7559 28.4299Z" fill="currentColor"/>
<path d="M20.5013 30.3569C20.4745 30.3795 20.4474 30.3806 20.4004 30.3777C20.4059 30.3345 20.4313 30.2953 20.4747 30.2529C20.4954 30.2784 20.4982 30.3069 20.5013 30.3569Z" fill="currentColor"/>
<path d="M15.9802 6.18277C15.3876 6.21168 14.7992 6.20107 14.211 6.20947C14.0141 6.21228 13.9445 6.15067 13.9495 5.93483C13.9622 5.37408 13.9544 4.8128 13.9622 4.22363C14.0105 4.16873 14.0513 4.11902 14.0925 4.11859C14.6682 4.11258 15.2442 4.10654 15.8196 4.12261C15.8785 4.12426 15.9819 4.267 15.9834 4.34606C15.9952 4.94735 15.9867 5.54908 15.9802 6.18277Z" fill="currentColor"/>
<path d="M1.9659 31.8448C1.95312 31.6045 1.94076 31.3339 1.94696 31.0444C1.96579 31.2885 1.96605 31.5514 1.9659 31.8448Z" fill="currentColor"/>
<path d="M16.0336 8.1881C16.0037 7.9128 15.9957 7.62943 15.995 7.31673C15.9631 6.65834 16.1056 6.78263 16.161 7.47368C16.1442 7.71061 16.0936 7.94481 16.0336 8.1881Z" fill="currentColor"/>
<path d="M16.021 7.03296C15.9958 6.99918 15.9906 6.96994 15.9926 6.91941C16.2063 6.87912 16.2791 6.96908 16.1953 7.2139C16.1359 7.14603 16.0885 7.09177 16.021 7.03296Z" fill="currentColor"/>
</svg>
