<svg viewBox="0 0 32 34" fill="none" xmlns="http://www.w3.org/2000/svg">
<g clip-path="url(#clip0_104_2502)">
<path d="M11.694 31.7391C11.694 31.7391 11.6927 31.7209 11.6911 31.6915C11.6875 31.4872 11.6855 31.3123 11.6878 31.1158C11.6898 30.9043 11.6875 30.7143 11.6895 30.5026C11.6912 30.2435 11.6886 30.0062 11.6903 29.7487C11.6931 29.6605 11.6916 29.5923 11.6901 29.5026C11.6895 29.2688 11.6785 29.056 11.6917 28.8446C11.7023 28.6742 11.629 28.6282 11.4569 28.6334C11.1277 28.6432 10.7977 28.6304 10.4685 28.6387C10.3126 28.6427 10.2599 28.5901 10.264 28.4477C10.2722 28.1649 10.2545 27.8813 10.2698 27.5991C10.2812 27.3887 10.2165 27.2935 9.97264 27.3105C9.72898 27.3275 9.48271 27.3091 9.2379 27.3161C9.0964 27.3201 9.03876 27.2727 9.04578 27.139C9.05401 26.9822 9.03562 26.8237 9.05077 26.6678C9.07214 26.4479 8.99677 26.3497 8.74213 26.3668C8.47315 26.3849 8.20129 26.3626 7.93143 26.3737C7.74972 26.3811 7.72054 26.3027 7.73182 26.1593C7.7539 25.8786 7.75595 25.5965 7.78087 25.3161C7.79695 25.1351 7.72042 25.09 7.53496 25.0919C6.89309 25.0985 6.25104 25.0895 5.60491 25.0654C5.59934 24.088 5.59192 23.1316 5.60133 22.1754C5.6033 21.9748 5.53369 21.9201 5.32785 21.9287C4.99145 21.9428 4.65378 21.9282 4.31682 21.9344C4.17698 21.9369 4.1191 21.8931 4.12333 21.759C4.13073 21.524 4.11482 21.2882 4.12843 21.0537C4.13835 20.8828 4.06544 20.8343 3.89374 20.8442C3.70065 20.8554 3.50627 20.8475 3.3132 20.8477C3.3132 20.8477 3.31272 20.8486 3.31354 20.8264C3.31414 16.7969 3.31575 12.7896 3.3086 8.78235C3.30822 8.57054 3.37391 8.517 3.59422 8.5213C4.26116 8.53432 4.92858 8.52615 5.5891 8.54762C5.58238 9.16086 5.58238 9.7527 5.58238 10.3463C6.31625 10.3463 7.01956 10.3463 7.72934 10.3463C7.72934 9.73065 7.72934 9.12856 7.75308 8.52747C8.99359 8.52759 10.2104 8.52372 11.4271 8.52898C11.6147 8.52979 11.6943 8.49657 11.694 8.29765C11.6931 7.74928 11.7284 7.20092 11.7323 6.65245C11.7335 6.47798 11.8064 6.44563 11.9728 6.44585C14.6937 6.44937 17.4146 6.44953 20.1355 6.44531C20.3104 6.44504 20.3707 6.49208 20.3677 6.65876C20.3581 7.19311 20.3689 7.72776 20.3611 8.26216C20.3589 8.4177 20.3969 8.4829 20.5837 8.48416C21.5958 8.491 22.6079 8.51049 23.62 8.52591C23.8933 8.16602 24.1598 7.84532 24.3034 8.55936C24.3001 8.82848 24.2972 9.07633 24.2781 9.33087C24.2736 9.39859 24.2853 9.45962 24.3018 9.54215C24.3065 9.81981 24.3065 10.076 24.3065 10.3331C25.0524 10.3331 25.7642 10.3331 26.4936 10.3331C26.4936 9.72017 26.4936 9.12508 26.5139 8.52711C26.699 8.52457 26.8639 8.52516 27.0288 8.5252C27.5891 8.52532 28.1495 8.52525 28.7396 8.52525C28.7396 9.20981 28.7396 9.90654 28.7389 10.623C28.7386 10.7082 28.739 10.7738 28.7388 10.8613C28.7386 11.0733 28.7389 11.2633 28.7387 11.4755C28.7385 12.5213 30.0001 13.4547 30 14.5C29.9998 14.6805 30.0002 14.8193 30 15C29.9998 15.2274 29.5001 15.2748 29.5 15.5C29.4998 15.5854 30.0002 16.4122 30 16.5C30.0016 18.1309 28.7425 19.2469 28.7447 20.8558C28.7447 20.8558 28.7413 20.85 28.72 20.8495C28.5212 20.8484 28.3434 20.8533 28.1663 20.8454C28.0241 20.839 27.9701 20.8895 27.9744 21.0226C27.9821 21.2583 27.9689 21.4946 27.9793 21.73C27.986 21.8816 27.9337 21.94 27.7642 21.9354C27.4095 21.9257 27.054 21.9406 26.6995 21.9291C26.516 21.923 26.4486 21.9681 26.4504 22.1509C26.4604 23.1336 26.4566 24.1164 26.4571 25.0982C26.4571 25.0982 26.4586 25.0984 26.4346 25.0974C25.9314 25.0961 25.4522 25.0957 24.9731 25.0955C24.2612 25.0953 24.2612 25.0953 24.2753 25.7783C24.2738 25.9103 24.2635 26.0214 24.275 26.1304C24.2937 26.309 24.2362 26.3894 24.0246 26.3745C23.7808 26.3573 23.5337 26.3813 23.2895 26.3666C23.0924 26.3548 23.0375 26.427 23.051 26.5982C23.0645 26.7704 23.0446 26.9447 23.0566 27.1171C23.0677 27.2755 22.9994 27.3225 22.8366 27.3167C22.5663 27.3071 22.2953 27.3191 22.0249 27.3121C21.882 27.3085 21.8308 27.358 21.8337 27.4905C21.8406 27.805 21.8289 28.12 21.8389 28.4343C21.8438 28.5868 21.7923 28.6436 21.6236 28.6389C21.2771 28.6292 20.93 28.6422 20.5835 28.6337C20.4226 28.6297 20.3528 28.6723 20.3614 28.8321C20.3741 29.0675 20.3671 29.3039 20.3685 29.5547C20.3714 29.5892 20.3743 29.6087 20.3728 29.6499C20.3719 30.3493 20.3754 31.027 20.3788 31.7047C20.2998 31.7177 20.2208 31.7417 20.1417 31.7421C19.4877 31.7453 18.8337 31.7442 18.1396 31.7427C18.0761 31.7445 18.0529 31.748 18.0296 31.7515C18.0033 31.8107 17.9546 31.8698 17.9541 31.9293C17.9487 32.5871 17.9507 33.245 17.9507 33.9413C16.8108 33.9413 15.67 33.9413 14.4852 33.9389C14.3361 33.9308 14.2311 33.925 14.126 33.9193C14.126 33.9193 14.1224 33.9216 14.1251 33.899C14.1277 33.1671 14.1277 32.4579 14.1277 31.7391C13.2944 31.7391 12.4942 31.7391 11.694 31.7391ZM17.8841 13.2116C17.8841 11.6984 17.8841 10.1852 17.8841 8.68092C16.6395 8.68092 15.4355 8.68092 14.2169 8.68092C14.2169 10.2299 14.2169 11.7601 14.2169 13.2844C14.0043 13.2844 13.8074 13.2844 13.5922 13.2844C13.5922 13.1125 13.5922 12.9582 13.5922 12.813C12.4881 12.813 11.4032 12.813 10.2937 12.813C10.2937 13.1577 10.2937 13.4758 10.2937 13.8154C10.0451 13.8154 9.82147 13.8154 9.5803 13.8154C9.5803 14.1892 9.5803 14.5402 9.5803 14.9118C9.15166 14.9118 8.74107 14.9118 8.33234 14.9118C8.33234 15.52 8.33234 16.1066 8.33234 16.7197C8.75657 16.7197 9.16606 16.7197 9.60612 16.7197C9.60612 17.2541 9.60612 17.7622 9.60612 18.2932C10.2568 18.2932 10.876 18.2932 11.5297 18.2932C11.5297 18.8628 11.5297 19.4091 11.5297 19.9692C11.9593 19.9692 12.3538 19.9692 12.7789 19.9692C12.7789 20.5291 12.7789 21.0744 12.7789 21.6394C13.2783 21.6394 13.747 21.6394 14.2331 21.6394C14.2331 22.8687 14.2331 24.0771 14.2331 25.2885C15.4557 25.2885 16.66 25.2885 17.8918 25.2885C17.8918 24.0648 17.8918 22.8581 17.8918 21.6231C18.3953 21.6231 18.8718 21.6231 19.376 21.6231C19.376 21.0549 19.376 20.5152 19.376 19.9491C19.8046 19.9491 20.2053 19.9491 20.6333 19.9491C20.6333 19.3829 20.6333 18.8437 20.6333 18.28C21.2654 18.28 21.8694 18.28 22.4924 18.28C22.4924 17.7476 22.4924 17.24 22.4924 16.7082C22.9304 16.7082 23.3488 16.7082 23.7749 16.7082C23.7749 16.0913 23.7749 15.4993 23.7749 14.8886C23.338 14.8886 22.9195 14.8886 22.4782 14.8886C22.4782 14.5132 22.4782 14.1564 22.4782 13.7796C22.2382 13.7796 22.022 13.7796 21.7895 13.7796C21.7895 13.446 21.7895 13.1336 21.7895 12.8119C20.6857 12.8119 19.599 12.8119 18.4819 12.8119C18.4819 12.9772 18.4819 13.1368 18.4819 13.3213C18.2613 13.2974 18.0735 13.2771 17.8841 13.2116Z" fill="currentColor"/>
<path d="M28.7401 10.6035C28.7401 9.90675 28.7401 9.21002 28.7401 8.52546C28.1499 8.52546 27.5896 8.52553 27.0293 8.52541C26.8644 8.52538 26.6995 8.52478 26.4914 8.5251C25.7336 8.52994 25.019 8.53412 24.3043 8.5383C24.0764 8.53421 23.8484 8.52959 23.6205 8.52612C22.6084 8.5107 21.5963 8.49121 20.5842 8.48437C20.3974 8.48311 20.3594 8.41791 20.3616 8.26238C20.3694 7.72797 20.3585 7.19332 20.3682 6.65897C20.3712 6.49229 20.3109 6.44525 20.1359 6.44552C17.4151 6.44974 14.6942 6.44958 11.9733 6.44606C11.8069 6.44584 11.734 6.47819 11.7328 6.65266C11.7289 7.20113 11.6936 7.74949 11.6945 8.29786C11.6948 8.49678 11.6152 8.53 11.4276 8.52919C10.2109 8.52393 8.99407 8.5278 7.72975 8.52842C6.9869 8.52759 6.2916 8.52702 5.5963 8.52644C4.92906 8.52636 4.26164 8.53453 3.5947 8.52151C3.37439 8.51721 4.99962 9.28819 5 9.5C5.32187 13.6278 11.8485 20.1349 3.30074 20.8243C3.27836 20.8475 3.27009 20.8508 3.26182 20.8542C2.4899 20.8542 1.71799 20.8542 0.918424 20.8542C0.913897 20.7623 0.909842 20.68 0.906183 20.5594C0.902207 17.0391 0.896952 13.5572 0.894536 10.0753C0.894221 9.62074 0.908491 9.16617 0.925701 8.70777C0.92894 8.69099 0.922482 8.67805 0.907883 8.6443C0.904666 7.88403 0.909589 7.14457 0.939221 6.40485C1.64759 6.40416 2.33138 6.39647 3.01482 6.4077C3.2214 6.41109 3.27152 6.34614 3.26777 6.16496C3.25674 5.63128 3.27133 5.09713 3.26055 4.56344C3.2569 4.38291 3.30655 4.32089 3.5132 4.31962C4.20337 4.31538 4.89338 4.28894 5.58345 4.271C5.58345 4.271 5.5926 4.26998 5.59553 4.29542C5.58175 4.93972 5.57007 5.55874 5.5451 6.1773C5.53809 6.35101 5.59335 6.40715 5.78583 6.40652C7.67764 6.40033 9.56949 6.40074 11.4613 6.40572C11.6395 6.40619 11.6927 6.35381 11.6908 6.19036C11.6835 5.5541 11.6898 4.91771 11.7096 4.28121C11.8446 4.28055 11.9611 4.2796 12.0776 4.2796C13.5393 4.27952 15.0011 4.2782 16.4628 4.2814C16.6383 4.28179 16.8139 4.32003 16.9891 4.31791C17.3974 4.31296 17.8055 4.28689 18.2138 4.28244C18.9324 4.27462 19.6512 4.27656 20.3685 4.27477C20.3685 4.27477 20.368 4.27258 20.3676 4.29513C20.3666 4.93022 20.3738 5.54291 20.3609 6.15523C20.3568 6.34977 20.4164 6.40823 20.629 6.40738C22.5707 6.39965 24.5125 6.40203 26.4538 6.41973C26.3111 6.62038 25.8987 6.68771 25.6658 6.59647C25.5381 6.5464 25.3839 6.53574 25.2423 6.53847C24.7332 6.5483 24.2244 6.58231 23.7154 6.58593C23.3247 6.58871 22.9337 6.5472 22.5429 6.54787C22.1266 6.54858 21.7104 6.5841 21.294 6.58938C20.6846 6.59709 20.6846 6.59138 20.5598 7.15604C20.5328 7.27813 20.5001 7.39944 20.481 7.52259C20.4732 7.57293 20.4809 7.63347 20.5051 7.67846C20.5768 7.81219 20.6603 7.9405 20.7597 8.10478C20.8503 8.09056 20.9827 8.07783 21.1094 8.04551C21.1539 8.03418 21.2026 7.979 21.2142 7.93571C21.2216 7.90773 21.1719 7.85684 21.1357 7.8309C21.0904 7.79843 21.0202 7.79183 20.9828 7.75481C20.9094 7.68223 20.8512 7.59633 20.7867 7.51594C20.9043 7.47878 21.0226 7.40922 21.1393 7.41138C21.3637 7.41554 21.5866 7.47384 21.8115 7.48486C22.0981 7.4989 22.3867 7.48019 22.6734 7.49397C22.747 7.49751 22.8458 7.55441 22.8829 7.61387C22.9854 7.77846 23.0476 7.96522 23.1547 8.12658C23.196 8.18869 23.312 8.22691 23.3999 8.23938C23.6235 8.2711 23.8505 8.28314 24.0763 8.30097C24.17 8.30837 24.2977 8.34724 24.3501 8.30599C24.4218 8.24954 24.4652 8.13152 24.4695 8.03787C24.4781 7.84827 24.5622 7.7668 24.7649 7.77012C25.0861 7.77539 25.4076 7.76591 25.7286 7.77533C25.8143 7.77784 25.9314 7.80243 25.9779 7.85774C26.2195 8.1458 26.5265 8.24824 26.9078 8.19909C26.9796 8.18984 27.0581 8.22994 27.1309 8.22326C27.3192 8.20599 27.5369 8.22383 27.6877 8.14092C28.1492 7.88729 28.7019 8.04734 28.8403 8.53501C28.9033 8.75693 28.8765 9.00088 28.8905 9.25692C28.8735 9.67523 28.8595 10.0716 28.8353 10.4674C28.8325 10.5143 28.7732 10.5582 28.7401 10.6035Z" fill="currentColor"/>
<path d="M20.3685 4.27432C19.6498 4.27647 18.9311 4.27452 18.2124 4.28235C17.8041 4.28679 17.3961 4.31286 16.9877 4.31781C16.8125 4.31994 16.6369 4.28169 16.4614 4.2813C14.9997 4.2781 13.5379 4.27942 12.0762 4.2795C11.9597 4.27951 11.8432 4.28045 11.7073 4.28031C11.6878 4.27967 11.686 4.27802 11.6907 4.25629C11.6916 3.57205 11.6876 2.90955 11.6836 2.24704C11.6836 2.24704 11.6954 2.23427 11.7181 2.22593C12.5308 2.21758 13.3207 2.21758 14.1104 2.21758C14.1104 1.53214 14.1104 0.874074 14.1104 0.216012C14.1141 0.19683 14.1179 0.177648 14.1465 0.141843C15.4066 0.126827 16.6417 0.128434 17.8825 0.139273C17.9081 0.157034 17.9281 0.165563 17.948 0.174092C17.951 0.749667 17.9529 1.32525 17.9582 1.90081C17.9591 2.00029 17.9745 2.09966 18.0231 2.20798C18.0853 2.2124 18.1076 2.20793 18.1532 2.20853C18.9046 2.21582 19.6326 2.21806 20.3607 2.22029C20.3634 2.56048 20.3661 2.90066 20.3663 3.28416C20.3653 3.6431 20.3669 3.95871 20.3685 4.27432Z" fill="currentColor"/>
<path d="M28.3379 11.6549C28.3376 11.4648 28.4798 10.7136 28.4983 10.4998C28.6227 10.3906 29.0546 10.6782 29.0772 10.5767C29.1282 10.3479 29.1525 10.1306 29.2511 9.898C29.3692 9.61923 29.516 9.60095 29.7511 9.61349C29.8676 9.61971 29.9834 9.64631 30.0996 9.64675C30.177 9.64704 30.3071 9.63656 30.3233 9.59801C30.4181 9.37279 29.6378 8.53576 29.6457 8.30209C29.6645 7.74412 29.5293 7.45242 29.523 6.8933C29.5195 6.57701 30.572 6.5837 30.1623 6.42657C30.1581 6.42496 30.159 6.41188 30.1812 6.40361C30.5445 6.27311 30.8957 6.09573 31.1295 6.46881C31.1327 6.83695 31.1298 7.1862 31.1052 7.53555C31.0289 7.57666 30.9273 7.6179 30.9276 7.65863C30.9288 7.87346 30.9495 8.08893 30.9802 8.30209C30.985 8.33523 31.0759 8.35765 31.1324 8.40667C31.1408 10.525 31.1471 12.6216 31.1452 14.7182C31.1442 15.9115 31.1296 17.1048 31.1019 18.2986C31.0177 18.4175 30.9463 18.5339 30.8986 18.6582C30.8943 18.6693 31.0441 18.7316 31.1224 18.7702C31.1235 19.4467 31.1246 20.1233 31.099 20.8227C30.6151 20.8436 30.158 20.8417 29.6953 20.8218C29.5195 20.7868 29.3476 20.7782 29.1798 20.7492C29.0976 20.735 29.0229 20.6829 28.9447 20.648C29.0197 20.6042 29.0892 20.5383 29.1706 20.5211C29.3891 20.475 29.6133 20.4533 29.8335 20.4133C29.8746 20.4059 29.9427 20.3532 29.9386 20.3306C29.8914 20.0674 30.138 19.9582 30.2556 19.7817C30.3232 19.6803 30.3655 19.5643 30.4192 19.4549C30.4673 19.357 30.555 19.2599 30.557 19.1613C30.5698 18.5416 30.5483 17.921 30.5701 17.3017C30.5804 17.0093 30.5218 16.75 30.3521 16.5103C30.3239 16.4704 30.2495 16.4137 30.2282 16.4237C30.1781 16.4471 30.1196 16.5031 30.1137 16.5512C30.0976 16.6829 30.1365 16.8259 30.096 16.9479C30.0674 17.0339 29.9446 17.1541 29.8637 17.1542C29.0326 17.1558 29.0008 17.1196 28.9903 16.3345C28.9902 16.3267 28.9898 16.3188 28.9904 16.311C29.0021 16.1381 28.923 16.0263 28.7381 15.9852C28.7378 15.9196 28.7374 15.8539 28.7574 15.7641C28.8822 15.5294 28.8623 15.2016 28.7381 15.0884C28.7377 14.9296 28.7374 14.7708 28.7565 14.587C28.8135 14.4811 28.8831 14.4004 28.8838 14.3192C28.8917 13.4311 28.892 12.543 28.8822 11.655C28.8815 11.5874 28.3881 11.722 28.3379 11.6549ZM30.9593 6.8933C30.9591 6.91171 30.9589 6.93012 30.9586 6.94853C30.9669 6.9486 30.9822 6.94868 30.9822 6.94868C30.9838 6.93036 30.9839 6.91194 30.9593 6.8933Z" fill="currentColor"/>
<path d="M5.58101 4.25185C5.12601 4.77666 4.26929 4.44821 3.51202 4.3195C3.30537 4.32077 3.99635 4.31947 4 4.5C4.01079 5.03369 3.98897 5.96632 4 6.5C4.00375 6.68117 3.22022 6.41097 3.01364 6.40757C2.33028 6.59599 1.63408 7.19995 0.931976 6.38532C0.8997 5.05387 0.897434 3.74158 0.898693 2.42929C0.898765 2.35439 0.927664 2.27952 0.965 2.21034C1.18693 2.21222 1.387 2.20839 1.60857 2.20906C1.71786 2.21074 1.80567 2.20792 1.91547 2.21188C2.0913 2.21417 2.24512 2.20968 2.42235 2.20958C3.47794 2.21245 4.51014 2.21092 5.54234 2.20939C5.55425 2.43555 5.57357 2.66162 5.57652 2.88788C5.58238 3.33614 5.5792 3.7845 5.58101 4.25185Z" fill="currentColor"/>
<path d="M31.1242 6.44992C30.818 6.4343 30.5119 6.41868 30.1651 6.40323C30.1018 6.404 30.0792 6.4046 30.0329 6.40441C29.7546 6.40433 29.4999 6.40503 29.223 6.40493C29.0689 6.40411 28.9369 6.40411 28.7923 6.40411C28.7743 6.04031 28.7461 5.68245 28.7425 5.32436C28.7398 5.05438 28.7686 4.78412 28.7845 4.49413C28.801 4.34129 28.7164 4.32191 28.5997 4.32329C28.2904 4.32694 27.9811 4.32476 27.648 4.32467C27.2372 4.42324 26.8504 4.8719 26.4825 4.25284C26.4796 4.20013 26.4742 4.16542 26.4688 4.13071C26.4743 3.5129 26.4799 2.8951 26.5146 2.25408C28.0668 2.22651 29.59 2.22214 31.1131 2.21777C31.1131 2.21777 31.1174 2.23548 31.1269 2.26273C31.1384 2.46236 31.1426 2.63475 31.1419 2.80713C31.1366 4.02139 31.1302 5.23566 31.1242 6.44992Z" fill="currentColor"/>
<path d="M11.6885 4.28063C11.6883 4.91777 11.682 5.55417 11.6893 6.19042C11.6912 6.35388 11.638 6.40625 11.4598 6.40578C9.56794 6.40081 7.67609 6.4004 5.78428 6.40658C5.5918 6.40721 5.53654 6.35108 5.54355 6.17737C5.56852 5.55881 5.5802 4.93978 5.59675 4.29891C5.59659 4.27689 5.62073 4.27286 5.65559 4.27487C7.68889 4.27732 9.68732 4.27775 11.6858 4.27819C11.6858 4.27819 11.6876 4.27983 11.6885 4.28063Z" fill="currentColor"/>
<path d="M5.60882 25.0868C6.35513 22.8439 6.90623 24.6671 7.53471 25.0922C7.72018 25.0903 7.79671 25.1354 7.78062 25.3164C7.75571 25.5968 7.75366 25.8789 7.73158 26.1595C7.7203 26.303 7.74947 26.3814 7.93119 26.3739C8.20104 26.3628 8.47291 26.3851 8.74188 26.3671C8.99653 26.35 9.07189 26.4482 9.05053 26.668C9.03537 26.824 9.05376 26.9825 9.04554 27.1393C9.03852 27.2729 9.09616 27.3204 9.23766 27.3163C9.48246 27.3093 9.72874 27.3278 9.97239 27.3108C10.2162 27.2937 10.281 27.389 10.2696 27.5993C10.2542 27.8816 10.2719 28.1652 10.2638 28.448C10.2597 28.5904 10.3124 28.643 10.4682 28.639C10.7975 28.6306 11.1274 28.6435 11.4566 28.6337C11.6288 28.6285 11.7021 28.6745 11.6914 28.8449C11.6782 29.0563 11.6893 29.2691 11.6704 29.5C11.6122 29.5222 11.5734 29.5258 11.5111 29.525C10.2392 29.5178 8.99062 29.5149 7.74205 29.512C7.74205 29.512 7.74171 29.4966 7.73971 29.4709C7.7377 28.7254 7.7377 28.0057 7.7377 27.2764C7.00986 27.2764 6.3009 27.2764 5.59194 27.2764C5.58487 27.2671 5.5778 27.2578 5.57174 27.2358C5.57276 27.2231 5.59286 27.2188 5.6017 27.2144C5.60454 27.1972 5.59854 27.1843 5.58657 27.15C5.57425 26.4804 5.5679 25.8323 5.56614 25.1747C5.57072 25.1652 5.55962 25.147 5.56715 25.134C5.57312 25.1113 5.57155 25.1016 5.57979 25.0913C5.58961 25.0908 5.60882 25.0868 5.60882 25.0868Z" fill="currentColor"/>
<path d="M20.3672 29.5401C20.3658 29.3041 20.3727 29.0678 20.3601 28.8324C20.3515 28.6726 20.4212 28.63 20.5822 28.634C20.9287 28.6425 21.2758 28.6295 21.6222 28.6392C21.791 28.6439 21.8424 28.5871 21.8375 28.4346C21.8275 28.1202 21.8392 27.8053 21.8323 27.4908C21.8294 27.3583 21.8806 27.3087 22.0235 27.3124C22.2939 27.3194 22.565 27.3074 22.8352 27.317C22.998 27.3228 23.0664 27.2758 23.0553 27.1174C23.0433 26.945 23.0632 26.7707 23.0496 26.5985C23.0361 26.4273 23.0911 26.3551 23.2881 26.3669C23.5324 26.3816 23.7794 26.3576 24.0233 26.3748C24.2349 26.3897 24.2924 26.3093 24.2736 26.1307C24.2622 26.0216 24.002 24.6328 24.0233 24.5C24.0802 24.4273 24.4106 25.6583 24.4188 25.6046C24.4581 25.3447 24.5772 25.2387 24.8601 25.2377C25.179 25.2365 25.4981 25.2318 25.8169 25.2395C26.0604 24.6371 26.2888 24.3515 26.4503 25.3064C26.4598 25.9597 26.4653 26.5911 26.4572 27.24C25.7318 27.2576 25.0198 27.2576 24.2919 27.2576C24.2919 27.3979 24.2926 27.4909 24.2918 27.5838C24.2864 28.2185 24.2806 28.8532 24.275 29.4879C23.2242 29.5017 22.1733 29.5155 21.076 29.5269C20.8087 29.5297 20.5879 29.5349 20.3672 29.5401Z" fill="currentColor"/>
<path d="M26.4564 25.0994C26.4554 24.1166 26.4592 23.1338 26.4493 22.1511C26.4474 21.9683 26.5148 21.9232 26.6983 21.9292C27.0528 21.9408 27.4083 21.9259 27.763 21.9356C27.9325 21.9402 27.9848 21.8818 27.9781 21.7302C27.9677 21.4947 27.9809 21.2584 27.9732 21.0227C27.9689 20.8896 28.0229 20.8391 28.1651 20.8455C28.353 20.2249 28.5292 20.0429 28.7217 20.8515C28.7478 22.2431 28.7497 23.6324 28.7253 25.0487C28.3396 25.0827 27.9803 25.0897 27.5978 25.0912C27.2018 25.0903 26.8291 25.0948 26.4564 25.0994Z" fill="currentColor"/>
<path d="M28.7388 16.0073C28.9242 16.0263 29.0034 16.1381 28.9916 16.311C28.9911 16.3188 28.9914 16.3266 28.9916 16.3345C29.0021 17.1196 29.0339 17.1558 29.8649 17.1542C29.9458 17.1541 30.0686 17.0339 30.0972 16.9479C30.1378 16.8259 30.0988 16.6829 30.1149 16.5511C30.1208 16.5031 30.1793 16.4471 30.2294 16.4237C30.2507 16.4137 30.3251 16.4704 30.3533 16.5103C30.523 16.75 30.5816 17.0093 30.5713 17.3017C30.5496 17.921 30.571 18.5416 30.5582 19.1613C30.5562 19.2599 30.4685 19.357 30.4205 19.4549C30.3667 19.5643 30.3244 19.6803 30.2568 19.7817C30.1392 19.9582 29.8926 20.0674 29.9399 20.3306C29.9439 20.3531 29.8758 20.4059 29.8347 20.4133C29.6146 20.4533 29.3903 20.475 29.1719 20.5211C29.0904 20.5383 29.0209 20.6042 28.946 20.648C29.0241 20.6829 29.0988 20.735 29.181 20.7492C29.3489 20.7782 29.5207 20.7868 29.6731 20.8256C29.3821 20.8513 29.109 20.8554 28.8359 20.8594C28.8157 20.8584 28.7955 20.8573 28.76 20.8561C26.7292 19.2515 28.5444 17.6372 28.7388 16.0073Z" fill="currentColor"/>
<path d="M31.1019 18.2988C31.1245 18.4268 31.1281 18.5553 31.1375 18.7045C31.1404 18.733 31.1373 18.7407 31.1283 18.7594C31.0441 18.7319 30.8943 18.6696 30.8985 18.6584C30.9462 18.5342 31.0177 18.4178 31.1019 18.2988Z" fill="currentColor"/>
<path d="M3.41089 25.0652C3.39234 25.067 3.37379 25.0688 3.34064 25.0704C3.32605 25.0702 3.32894 25.0565 3.32283 25.0524C3.31673 25.0484 3.32173 25.0257 3.33759 25.0166C3.3726 25.0267 3.39174 25.046 3.41089 25.0652Z" fill="currentColor"/>
<path d="M17.8828 0.139115C17.8974 0.130498 17.9176 0.131113 17.9533 0.13527C17.9688 0.138813 17.9637 0.158956 17.956 0.166444C17.9284 0.165405 17.9084 0.156876 17.8828 0.139115Z" fill="currentColor"/>
<path d="M3.43329 25.0721C3.39122 25.0456 3.37207 25.0264 3.3413 25.0054C3.32419 23.6331 3.31872 22.2625 3.3125 20.8699C3.43831 20.2548 3.6662 20.5927 3.89305 20.8442C4.06474 20.8342 4.13766 20.8828 4.12774 21.0537C4.11413 21.2881 5.0074 20.765 5 21C4.99577 21.1342 4.86016 21.5025 5 21.5C5.33695 21.4939 5.1636 21.0138 5.5 20.9997C5.70585 20.9911 6.00197 21.7991 6 21.9997C5.9906 22.9559 5.59864 24.088 5.60422 25.0654C5.60837 25.0865 5.58916 25.0905 5.57934 25.091C4.86509 25.0875 4.16065 25.0834 3.43329 25.0721Z" fill="currentColor"/>
<path d="M29.8033 6.01947C29.8259 6.01886 30.1014 6.40404 30.141 6.40382C30 5.99988 30.8373 6.07313 30.5 6.49988C30.9097 6.65701 30.5126 6.9129 30.5162 7.22919C30.5224 7.7883 30.5712 8.34794 30.5524 8.90591C30.5445 9.13959 30.4186 9.37284 30.3238 9.59806C30.3075 9.63661 30.1774 9.64709 30.1 9.6468C29.9838 9.64636 29.868 9.61976 29.7515 9.61354C29.5165 9.601 29.3696 9.61928 29.2515 9.89804C29.153 10.1306 29.1287 10.3479 29.0777 10.5768C29.0551 10.6782 28.8808 10.7504 28.757 10.8378C28.7382 10.774 28.7379 10.7084 28.7382 10.6232C28.772 10.5582 28.4971 10.0469 28.5 10C28.5242 9.60416 28.8723 9.67521 28.9089 9.25474C29.1968 9.21265 29.282 9.07678 29.2486 8.83678C29.227 8.68212 29.2413 8.52268 29.2462 8.36557C29.2481 8.30432 29.2461 8.20965 29.2839 8.1882C29.4985 8.06647 29.6183 7.80594 29.8033 7.73191C30.0682 7.62586 30.0441 7.48728 30.0607 7.30121C30.0817 7.0642 29.9732 7.00129 29.7368 7.01243C29.4164 7.02751 29.0946 7.01915 28.7734 7.01525C28.4877 7.01178 28.3921 6.89935 28.4592 6.6401C28.5022 6.4744 28.4819 6.34025 28.345 6.21039C28.278 6.1468 28.2688 6.03175 28.229 5.94169C28.1815 5.83429 28.1517 5.71137 28.0749 5.62565C27.8544 5.37953 27.5323 5.19749 27.6148 4.79598C27.656 4.5951 27.7396 4.46705 27.964 4.47014C28.2372 4.47391 28.727 3.98443 29 4C28.9852 4.27013 28.7394 5.05443 28.7422 5.32441C28.7458 5.68249 28.9821 5.63608 29 5.99988C29.1447 5.99988 29.2767 5.99988 29.4312 6.01947C29.5067 6.08808 29.3465 6.57623 29.4056 6.58365C29.5634 6.60349 29.7294 6.60849 29.8849 6.58213C29.9514 6.57088 29.7467 6.08125 29.8033 6.01947Z" fill="currentColor"/>
<path d="M28.7383 11.4756C28.7891 11.5206 28.8823 11.5873 28.883 11.6549C28.8928 12.5429 28.8925 13.431 28.8847 14.3191C28.8839 14.4003 28.8144 14.481 28.7578 14.5653C28.7385 13.545 28.7381 12.5213 28.7383 11.4756Z" fill="currentColor"/>
<path d="M26.4618 25.1323C26.4619 25.1786 26.4581 25.2141 26.4502 25.267C26.2363 25.2688 26.0268 25.2445 25.8168 25.2394C25.4981 25.2317 25.179 25.2364 24.86 25.2376C24.5771 25.2386 24.4581 25.3446 24.4187 25.6045C24.4106 25.6582 24.3505 25.7051 24.2947 25.7558C24.2598 25.0955 24.2598 25.0954 24.9717 25.0957C25.4508 25.0959 25.93 25.0963 26.4332 25.0976C26.4572 25.0986 26.4578 25.1214 26.4618 25.1323Z" fill="currentColor"/>
<path d="M28.7383 15.1104C28.8631 15.2017 28.883 15.5294 28.7587 15.7444C28.7385 15.5433 28.7381 15.3378 28.7383 15.1104Z" fill="currentColor"/>
<path d="M24.2783 9.33105C24.2996 9.37933 24.3047 9.43429 24.3035 9.50504C24.2855 9.4598 24.2738 9.39877 24.2783 9.33105Z" fill="currentColor"/>
<path d="M29 4.49981C28.7258 4.5041 28.2368 4.47369 27.9637 4.46992C27.7393 4.46683 28.6822 4.54043 28.6409 4.74131C28.5585 5.14282 28.2795 5.25389 28.5 5.5C28.5768 5.58572 29.4525 5.8926 29.5 6C29.5398 6.09006 29.433 6.43642 29.5 6.5C29.6369 6.62986 29.0429 6.3343 29 6.5C28.9329 6.75925 28.4874 7.01155 28.7731 7.01503C29.0943 7.01893 29.4161 7.02729 29.7365 7.0122C29.9729 7.00107 30.0814 7.06398 30.0604 7.30099C30.0438 7.48705 30.7649 7.89396 30.5 8C30.315 8.07403 29.7146 8.37824 29.5 8.49998C29.4622 8.52143 29.2478 8.3041 29.2459 8.36535C29.241 8.52246 29.4785 9.34515 29.5 9.49981C29.5334 9.73981 29.061 9.87714 28.7731 9.89714C28.7395 9.66535 28.9018 8.75669 28.8388 8.53477C28.7004 8.0471 28.313 8.28114 27.8516 8.53477C27.7007 8.61768 27.3177 8.20575 27.1294 8.22302C27.0566 8.2297 26.9781 8.1896 26.9063 8.19885C26.5249 8.248 26.218 8.14556 25.9763 7.8575C25.9299 7.80218 25.8128 7.7776 25.7271 7.77509C25.4061 7.76567 25.3212 8.00507 25 7.99981C24.7973 7.99648 24.5086 7.81021 24.5 7.99981C24.4957 8.09346 24.4203 8.2493 24.3485 8.30575C24.2962 8.347 24.1685 8.30813 24.0747 8.30073C23.8489 8.2829 23.622 8.27086 23.3984 8.23914C23.3105 8.22667 23.1945 8.18845 23.1532 8.12634C23.0461 7.96498 22.9838 7.77822 22.8814 7.61363C22.8443 7.55417 22.7455 7.49727 22.6718 7.49373C22.3851 7.47995 22.0966 7.49866 21.8099 7.48462C21.5851 7.4736 21.3622 7.4153 21.1378 7.41114C21.0211 7.40898 20.9028 7.47854 20.7852 7.5157C20.8497 7.59609 20.9079 7.68199 20.9813 7.75457C21.0187 7.79159 21.0889 7.79819 21.1342 7.83066C21.1704 7.8566 21.2201 7.90749 21.2126 7.93547C21.2011 7.97876 21.1523 8.03394 21.1079 8.04527C20.9812 8.07759 20.8488 8.09032 20.7582 8.10454C20.6588 7.94026 20.5753 7.81195 20.5035 7.67822C20.4794 7.63323 20.4717 7.57269 20.4795 7.52234C20.4986 7.3992 20.5313 7.27789 20.5582 7.1558C20.683 6.59114 20.6831 6.59685 21.2925 6.58913C21.7089 6.58386 21.5837 6.00052 22 5.99981C22.3908 5.99914 22.6093 6.00259 23 5.99981C23.5091 5.99618 24.4909 6.00963 25 5.99981C25.1416 5.99707 25.3722 5.94974 25.5 5.99981C25.7328 6.09105 25.8571 6.22246 26 5.99981C26.0017 5.54964 25.981 5.41296 26 4.99981C26.0705 4.87028 26.6193 4.87213 26.6445 4.74131C26.6799 4.55734 26.7718 4.45858 26.9745 4.4662C27.0947 4.47072 27.2146 4.30113 27.332 4.32329C27.5043 4.35581 27.633 4.50769 27.6711 4.32473C27.9804 4.32459 28.2897 4.32676 28.599 4.32311C28.7157 4.32174 29.0165 4.34696 29 4.49981Z" fill="currentColor"/>
<path d="M26.4565 5.12792C26.4554 5.53781 26.4543 5.94771 26.4531 6.37961C24.5112 6.40218 22.5694 6.3998 20.6277 6.40754C20.4151 6.40838 20.3555 6.34993 20.3596 6.15538C20.3725 5.54306 20.3653 4.93037 20.3663 4.29528C20.8212 4.2757 21.2757 4.28069 21.7302 4.28125C23.2884 4.28319 24.8466 4.28358 26.4283 4.30725C27.5638 6.01428 26.7866 5.27863 26.4565 5.12792Z" fill="currentColor"/>
<path d="M0.925284 8.70751C0.91227 8.70362 0.90885 8.69594 0.910569 8.67676C0.922098 8.67807 0.928489 8.6909 0.925284 8.70751Z" fill="currentColor"/>
<path d="M31.1054 7.53564C31.1308 7.80435 31.1345 8.07315 31.1327 8.36354C31.0761 8.35774 30.9851 8.33533 30.9804 8.30218C30.9497 8.08902 30.929 7.87355 30.9277 7.65872C30.9275 7.61799 31.0291 7.57675 31.1054 7.53564Z" fill="currentColor"/>
<path d="M30.9721 6.89355C30.9842 6.91208 30.9841 6.9305 30.9826 6.94881C30.9825 6.94933 30.9672 6.94874 30.959 6.94867C30.9592 6.93026 30.9594 6.91185 30.9721 6.89355Z" fill="currentColor"/>
<path d="M26.4757 5.12448C26.4561 4.86174 26.4545 4.59575 26.4531 4.30822C26.4534 4.28669 26.4618 4.27112 26.4712 4.271C26.862 4.28873 27.5127 4.29012 27.918 4.30822C27.9037 4.49142 27.5075 4.53181 27.3352 4.49928C27.2178 4.47712 27.0961 4.47093 26.9759 4.46641C26.7732 4.45879 26.6813 4.55755 26.6459 4.74152C26.6207 4.87234 26.5461 4.99495 26.4757 5.12448Z" fill="currentColor"/>
<path d="M30.0332 6.40446C30.0003 6.46703 29.952 6.57088 29.8856 6.58213C29.7301 6.60849 29.564 6.60349 29.4062 6.58365C29.3472 6.57623 28.5534 6.06779 28.5 6C28.7543 5.98051 29.7548 6.40438 30.0332 6.40446Z" fill="currentColor"/>
<path d="M5.60121 27.2139C5.5897 27.2104 5.58693 27.2026 5.58816 27.1831C5.59808 27.1841 5.60402 27.1969 5.60121 27.2139Z" fill="currentColor"/>
</g>
</svg>
