<svg viewBox="0 0 34 39" fill="none" xmlns="http://www.w3.org/2000/svg">
<path d="M8.78843 3.55609C8.78843 3.55609 8.78891 3.57836 8.79445 3.60614C8.79821 3.96111 8.79535 4.28828 8.79587 4.61546C8.79594 4.66137 8.79764 4.71954 8.82382 4.75128C9.12247 5.11341 9.43856 5.33959 9.97956 5.33064C12.453 5.28974 14.9276 5.30832 17.4017 5.3112C19.7572 5.31394 22.1127 5.32804 24.4681 5.31991C24.6138 5.31941 24.759 5.16822 24.92 5.08098C25.2059 4.8573 25.3874 4.61297 25.3131 4.22812C25.2714 4.0124 25.3056 3.78208 25.3056 3.53225C25.5026 3.53225 25.6596 3.53225 25.8346 3.53964C25.9413 3.54525 26.03 3.54347 26.1411 3.55014C26.3896 3.56251 26.6158 3.56759 26.8419 3.57009C27.37 3.57594 27.3682 3.57545 27.3643 3.04329C27.3613 2.63835 27.3637 2.23336 27.3637 1.82781C27.52 1.82051 27.6281 1.81545 27.7587 1.81452C27.9177 1.81618 28.0542 1.81372 28.2132 1.81582C28.5898 1.8361 28.9439 1.85181 29.2936 1.89076C29.2908 2.92522 29.2923 3.93644 29.2871 4.96502C29.2839 5.01906 29.2875 5.05574 29.2853 5.11159C29.2704 5.27054 29.2613 5.41032 29.2287 5.547C29.0709 5.54321 28.9366 5.54035 28.8024 5.54219C28.2972 5.5491 28.2941 5.54983 28.3197 6.0659C28.328 6.23231 28.271 6.31924 28.0967 6.31768C27.9322 6.3162 27.7676 6.3203 27.6031 6.32277C27.3196 6.32702 27.1524 6.5355 27.1912 6.81625C27.2203 7.0268 27.2299 7.24005 27.25 7.47381C26.8457 7.47381 26.4892 7.47381 26.1291 7.47381C26.1291 7.71068 26.1414 7.9036 26.1228 8.09351C26.1158 8.16496 26.0439 8.28168 25.9903 8.28838C25.7055 8.32403 25.417 8.33133 25.1158 8.34927C25.1158 8.65799 25.1158 8.97308 25.1019 9.29976C24.4424 9.31584 23.7968 9.31667 23.1513 9.32989C23.0789 9.33137 23.0079 9.40299 22.9289 9.42298C22.8699 9.37916 22.8186 9.33382 22.7666 9.3331C22.4596 9.32889 22.1521 9.32705 21.8454 9.34045C21.6333 9.34972 21.4172 9.56842 21.4156 9.78709C21.4124 10.228 21.4293 10.6691 21.4286 11.121C21.4019 11.1535 21.3846 11.1752 21.3495 11.1992C20.9789 11.2045 20.6173 11.1616 20.2762 11.2264C20.0398 11.2713 19.8279 11.4852 19.8053 11.755C19.7797 12.0603 19.8155 12.3708 19.8206 12.7014C19.8139 13.3361 19.808 13.9483 19.81 14.5605C19.8112 14.9368 20.0212 15.1099 20.4228 15.0976C20.719 15.0885 21.0158 15.0958 21.3313 15.0958C21.3313 15.638 21.3313 16.1551 21.3313 16.6828C21.8742 16.6828 22.3974 16.6828 22.9541 16.6828C22.9541 16.1341 22.9541 15.6035 22.9541 15.0567C23.2228 15.0567 23.4579 15.0567 23.7127 15.0506C23.9887 15.1038 24.109 14.9596 24.1128 14.7393C24.1229 14.1413 24.113 13.5428 24.0969 12.9449C24.0955 12.8931 23.992 12.805 23.9311 12.8005C23.669 12.7812 23.4047 12.7943 23.1423 12.778C23.0799 12.7742 22.9704 12.7038 22.9695 12.6621C22.9576 12.1353 22.9617 11.6082 22.9617 11.0768C23.0558 11.0629 23.1373 11.051 23.2289 11.0462C23.239 11.0534 23.2638 11.0546 23.2638 11.0546C23.2638 11.0546 23.2869 11.0458 23.3073 11.0498C23.6521 11.0484 23.9766 11.043 24.3218 11.0423C24.4127 11.042 24.4828 11.037 24.576 11.0377C24.8366 11.0378 25.0742 11.0321 25.3283 11.0308C25.367 11.0318 25.3892 11.0285 25.4347 11.0304C26.0953 11.0356 26.7326 11.0356 27.4007 11.0356C27.4007 11.1175 27.4005 11.2079 27.4007 11.2982C27.4023 11.996 27.4083 12.6939 27.4044 13.3917C27.3986 14.4541 27.3882 15.5165 27.3748 16.5788C27.3701 16.9554 27.351 17.3318 27.3258 17.7151C27.3023 17.7377 27.2916 17.7535 27.2584 17.7733C26.631 17.724 26.0258 17.6726 25.4212 17.6153C25.3037 17.6042 25.2124 17.5974 25.2571 17.7817C25.258 17.9405 25.2625 18.0768 25.2626 18.2365C25.2558 18.6144 25.2533 18.9691 25.2424 19.3289C25.2232 19.3425 25.2155 19.3531 25.1929 19.3702C25.0854 19.3733 24.9958 19.372 24.8888 19.3678C24.837 19.358 24.8026 19.3511 24.7541 19.3319C24.3009 19.2727 23.8609 19.2323 23.4231 19.1755C23.26 19.1543 23.2414 19.2212 23.245 19.3554C23.2505 19.5632 23.2387 19.7714 23.2249 19.9846C23.2039 19.9986 23.1953 20.0097 23.1663 20.0287C22.0232 20.0341 20.9035 20.0341 19.7583 20.0341C19.7583 20.6141 19.7583 21.1621 19.7583 21.7445C19.1551 21.7445 18.5766 21.7445 17.9905 21.7445C17.9808 21.9583 17.972 22.15 17.946 22.3523C17.9414 22.4287 17.9541 22.4946 17.9719 22.581C17.977 22.841 17.977 23.0807 17.977 23.346C17.3471 23.346 16.7362 23.346 16.0942 23.346C16.0942 22.8357 16.0942 22.3111 16.0942 21.7504C15.5251 21.7504 14.9866 21.7532 14.4483 21.7457C14.3979 21.745 14.3484 21.6793 14.3066 21.6285C14.3114 21.5907 14.308 21.5682 14.3113 21.5262C14.3121 21.2831 14.3064 21.0594 14.3052 20.816C14.3065 20.7427 14.3033 20.6892 14.3044 20.6161C14.3088 20.4152 14.3088 20.2338 14.3088 20.0659C13.1936 20.0659 12.1011 20.0659 10.9875 20.0679C10.7965 20.0922 10.7997 19.9764 10.7999 19.8622C10.8002 19.639 10.8 19.4157 10.8 19.174C10.4472 19.2116 10.125 19.2485 9.80223 19.2794C9.58376 19.3003 9.36449 19.3129 9.13757 19.3166C9.03344 19.3334 8.93732 19.3628 8.82698 19.3911C8.8034 19.3916 8.79404 19.3931 8.78607 19.3974C8.78748 19.4001 8.79349 19.4008 8.80372 19.3835C8.81178 19.353 8.80962 19.3398 8.81408 19.3036C8.81409 19.0427 8.80748 18.8047 8.8057 18.5435C8.80793 18.3273 8.81202 18.134 8.80021 17.9416C8.79313 17.8263 8.76122 17.7125 8.72054 17.5915C8.64649 17.5976 8.59237 17.6102 8.52119 17.6204C8.48213 17.6243 8.46014 17.6305 8.4255 17.6301C8.38613 17.632 8.35942 17.6404 8.30978 17.6456C7.76346 17.6941 7.24006 17.746 6.71733 17.7878C6.718 17.7778 6.7193 17.7578 6.71428 17.7354C6.68142 17.1556 6.6536 16.5982 6.6299 16.0177C6.62793 15.456 6.62183 14.9174 6.61981 14.3555C6.62255 13.2378 6.62122 12.1434 6.63564 11.0348C7.36466 11.0296 8.07793 11.0386 8.79339 11.0621C8.81134 11.0925 8.8271 11.1083 8.84285 11.1242C8.85931 11.0995 8.87577 11.0748 8.91559 11.0457C9.66678 11.0464 10.3946 11.0515 11.1271 11.0597C11.1318 11.0627 11.1387 11.0539 11.1461 11.0761C11.1515 11.5884 11.1527 12.0786 11.1441 12.5685C11.143 12.6361 11.0936 12.7029 11.0578 12.7574C11.0044 12.7489 10.9597 12.7529 10.8966 12.761C10.5951 12.7791 10.3121 12.7932 9.96448 12.8105C9.96448 13.1513 9.96448 13.4872 9.95413 13.8276C9.95324 13.8632 9.9627 13.8945 9.98273 13.9459C9.98565 14.1538 9.97801 14.3416 9.95726 14.5348C9.94656 14.5871 9.94898 14.6341 9.95306 14.7014C9.97875 14.8156 10.0028 14.9094 10.0345 15.0333C10.3893 15.054 10.7484 15.075 11.1403 15.0979C11.1403 15.5983 11.1403 16.1305 11.1403 16.6808C11.7036 16.6808 12.2358 16.6808 12.8062 16.6808C12.8062 16.4599 12.8062 16.2521 12.8205 16.0393C12.8271 15.9699 12.8193 15.9056 12.8055 15.8186C12.7995 15.5624 12.7995 15.3288 12.7995 15.0826C13.0281 15.0826 13.2294 15.0443 13.4087 15.0909C13.7336 15.1754 13.971 15.0038 14.2427 14.8805C14.2556 14.8465 14.2574 14.8162 14.2582 14.762C14.2594 14.064 14.2616 13.3898 14.2733 12.7185C14.2828 12.7213 14.3015 12.7151 14.3158 12.7122C14.3445 12.6926 14.3589 12.6759 14.3734 12.6592C14.3477 12.6438 14.3221 12.6284 14.2933 12.5896C14.2904 12.356 14.2881 12.1458 14.2915 11.9357C14.2982 11.5288 13.9918 11.2104 13.5782 11.1918C13.2836 11.1786 12.9893 11.1581 12.6771 11.1399C12.6771 10.721 12.6766 10.3283 12.6772 9.93568C12.6777 9.63262 12.447 9.35466 12.1441 9.34508C11.7786 9.33352 11.412 9.35805 11.0256 9.35613C10.3332 9.3258 9.66115 9.30628 8.98648 9.26561C8.96626 8.95566 8.94864 8.66687 8.92901 8.3449C8.80692 8.3367 8.66108 8.32259 8.51494 8.31782C7.79808 8.29438 7.88485 8.35995 7.89006 7.67762C7.89132 7.51169 7.84272 7.45062 7.67739 7.45545C7.39925 7.46358 7.1207 7.45768 6.80831 7.45768C6.82547 7.21422 6.84359 6.99162 6.85626 6.76872C6.87266 6.48027 6.77092 6.37046 6.4766 6.35108C6.32049 6.3408 6.15789 6.29788 6.00962 6.32719C5.71125 6.38617 5.67917 6.23223 5.69813 6.00561C5.70371 5.93885 5.69532 5.87075 5.70278 5.80432C5.72423 5.61332 5.63101 5.55209 5.45215 5.55425C5.24274 5.55677 5.03311 5.54157 4.82014 5.51155C4.81366 5.10626 4.80937 4.72348 4.80787 4.34069C4.80494 3.59151 4.80113 2.84231 4.80388 2.09315C4.80436 1.96275 4.77154 1.7879 5.02568 1.81001C5.60083 1.81301 6.15243 1.81301 6.72887 1.81301C6.72887 2.4129 6.72887 2.97104 6.72887 3.55609C7.43236 3.55609 8.11039 3.55609 8.78843 3.55609ZM15.7035 18.3249C15.847 18.3431 15.9905 18.3613 16.13 18.3789C16.1118 19.1271 16.5312 19.6188 17.0254 20.1027C17.3559 19.7859 17.6385 19.4825 17.8179 19.0599C18.108 18.8826 17.8742 18.5692 18.0027 18.3502C18.2322 18.3371 18.4616 18.324 18.7099 18.3098C18.7099 17.0078 18.7099 15.7285 18.7099 14.449C18.3149 14.449 17.9407 14.449 17.5577 14.449C17.5546 14.4966 17.5506 14.5287 17.5507 14.5608C17.5537 15.1485 17.5497 15.7363 17.5645 16.3237C17.5696 16.5245 17.4486 16.5448 17.3094 16.5567C17.1798 16.5679 17.0489 16.5631 16.9187 16.5676C16.5578 16.58 16.5577 16.5805 16.5577 16.1858C16.5577 15.7488 16.558 15.3119 16.5581 14.8749C16.5582 14.7355 16.5581 14.5961 16.5581 14.4553C16.1422 14.4553 15.7616 14.4553 15.3754 14.4553C15.3754 15.7483 15.3754 17.0206 15.3754 18.3158C15.4834 18.3158 15.5729 18.3158 15.7035 18.3249Z" fill="currentColor"/>
<path d="M30.9748 19.7251C31.5287 19.7291 32.0827 19.7331 32.6596 19.7419C32.6918 20.3441 32.701 20.9416 32.7048 21.5548C32.3179 21.5697 31.9365 21.5706 31.5551 21.5665C31.4832 21.5657 31.4115 21.5446 31.3083 21.5526C31.173 21.5619 31.0691 21.5514 30.9676 21.541C30.9701 21.5411 30.9711 21.546 30.9747 21.5223C30.9751 21.0044 30.9742 20.5101 30.9666 20.016C30.9652 19.9271 30.9359 19.8386 30.9277 19.7437C30.9479 19.7304 30.9609 19.7263 30.9748 19.7251Z" fill="currentColor"/>
<path d="M3.05485 21.5415C2.52127 21.5508 1.98768 21.5602 1.43314 21.5784C1.39862 21.0038 1.38384 20.4203 1.375 19.8367C1.37455 19.8071 1.42521 19.7766 1.48018 19.7291C2.01659 19.717 2.52488 19.7223 3.04366 19.733C3.06722 19.7479 3.07643 19.7603 3.07923 19.7992C3.07202 20.3977 3.06738 20.9725 3.06022 21.5465C3.0577 21.5458 3.05485 21.5415 3.05485 21.5415Z" fill="currentColor"/>
<path d="M3.0424 19.7326C3.03464 19.1752 3.03736 18.6231 3.0386 18.0483C3.50829 17.9878 3.97947 17.9501 4.47583 17.9323C4.65066 18.1603 4.74942 18.0218 4.85078 17.901C5.05366 17.8845 5.25655 17.868 5.49061 17.8663C5.55059 17.873 5.5794 17.865 5.6082 17.857C5.74572 17.844 5.88324 17.8311 6.06398 17.8166C6.31081 17.796 6.51443 17.7769 6.71805 17.7578C6.71805 17.7578 6.71675 17.7778 6.71777 17.8123C6.72022 18.3221 6.72165 18.7974 6.71889 19.2895C6.71834 19.3288 6.72199 19.3513 6.72114 19.3907C6.71243 19.4303 6.70822 19.4531 6.69614 19.481C6.67886 19.495 6.67223 19.5055 6.65631 19.5247C6.63523 19.5341 6.62622 19.5364 6.60218 19.5264C5.82157 19.5672 5.05608 19.6218 4.29036 19.673C4.00479 19.692 3.71869 19.7033 3.43081 19.7041C3.41201 19.6768 3.39523 19.6635 3.37845 19.6501C3.36365 19.6753 3.34884 19.7005 3.31614 19.7327C3.22567 19.7516 3.1531 19.7634 3.08053 19.7752C3.07517 19.7599 3.06595 19.7475 3.0424 19.7326Z" fill="currentColor"/>
<path d="M8.98529 9.26571C8.37461 9.26581 7.7614 9.24228 7.14802 9.22463C6.7788 9.214 6.67238 9.09285 6.67897 8.6975C6.68553 8.30379 6.68041 7.90989 6.68041 7.45604C6.35739 7.45604 6.01736 7.45535 5.67734 7.45642C5.55988 7.4568 5.44244 7.46342 5.32498 7.46399C4.95311 7.46581 4.84752 7.38287 4.82096 6.99081C4.79488 6.60589 4.80517 6.21847 4.80089 5.83213C4.79997 5.74865 4.80499 5.66511 4.81483 5.55788C5.03193 5.54167 5.24155 5.55687 5.45096 5.55435C5.62982 5.55219 5.72304 5.61342 5.70159 5.80442C5.69413 5.87085 5.70252 5.93895 5.69694 6.00571C5.67798 6.23233 5.71006 6.38627 6.00843 6.32729C6.1567 6.29798 6.3193 6.3409 6.47541 6.35118C6.76973 6.37056 6.87147 6.48037 6.85508 6.76882C6.8424 6.99172 6.82428 7.21432 6.80712 7.45778C7.11951 7.45778 7.39806 7.46368 7.6762 7.45555C7.84153 7.45072 7.89013 7.51179 7.88887 7.67772C7.88366 8.36005 7.79689 8.29448 8.51375 8.31792C8.65989 8.32269 8.80573 8.3368 8.92782 8.345C8.94745 8.66697 8.96507 8.95576 8.98529 9.26571Z" fill="currentColor"/>
<path d="M29.1601 7.31623C29.157 7.33857 29.1539 7.36091 29.1271 7.40461C28.6094 7.43204 28.1152 7.43577 27.6212 7.44541C27.4429 7.44889 27.3052 7.47203 27.3275 7.72833C27.3585 8.08653 27.3413 8.44948 27.3344 8.8102C27.3293 9.07701 27.2271 9.22049 26.9525 9.22272C26.3399 9.22769 25.7276 9.26455 25.1152 9.28842C25.1152 8.97333 25.1152 8.65823 25.1152 8.34952C25.4164 8.33158 25.7049 8.32428 25.9897 8.28863C26.0433 8.28193 26.1152 8.16521 26.1222 8.09376C26.1408 7.90385 26.1285 7.71093 26.1285 7.47406C26.4886 7.47406 26.8451 7.47406 27.2494 7.47406C27.2293 7.2403 27.2197 7.02705 27.1906 6.8165C27.1518 6.53575 27.319 6.32727 27.6025 6.32302C27.767 6.32055 27.9316 6.31645 28.0961 6.31792C28.2704 6.31949 28.3274 6.23256 28.3191 6.06615C28.2935 5.55008 28.2966 5.54935 28.8018 5.54244C28.936 5.5406 29.0703 5.54346 29.2329 5.57049C29.2615 6.01956 29.2706 6.44257 29.2574 6.86488C29.2527 7.01619 29.1941 7.16583 29.1601 7.31623Z" fill="currentColor"/>
<path d="M14.2717 12.7186C13.8197 12.7128 13.3772 12.706 12.9347 12.708C12.647 12.7093 12.6331 12.6873 12.6479 12.3925C12.6651 12.0497 12.6586 11.7057 12.6634 11.3622C12.666 11.1782 12.5922 11.0944 12.3927 11.0951C11.9912 11.0965 11.5897 11.0743 11.1627 11.058C11.1372 11.054 11.1303 11.0629 11.1256 11.0598C11.1199 10.5841 11.1216 10.1113 11.1152 9.63865C11.1142 9.56021 11.0774 9.48225 11.0508 9.38559C11.4105 9.35819 11.7771 9.33366 12.1425 9.34522C12.4454 9.3548 12.6761 9.63276 12.6757 9.93582C12.6751 10.3285 12.6755 10.7211 12.6755 11.14C12.9878 11.1583 13.282 11.1787 13.5766 11.1919C13.9903 11.2105 14.2966 11.5289 14.29 11.9358C14.2865 12.1459 14.2889 12.3561 14.2889 12.6068C14.2929 12.6699 14.2964 12.6925 14.3 12.7152C14.3 12.7152 14.2812 12.7215 14.2717 12.7186Z" fill="currentColor"/>
<path d="M8.78628 19.3975C8.78487 19.9121 8.78487 20.4294 8.78487 20.9833C8.13125 21.0558 7.48952 21.1269 6.82731 21.2034C6.80684 21.2087 6.80545 21.2096 6.77181 21.2118C6.73418 21.2361 6.73021 21.2582 6.72248 21.2818C6.71872 21.2834 6.71908 21.2915 6.71851 21.2915C6.71793 21.2915 6.71695 21.2909 6.71882 21.2925C6.7207 21.2942 6.72161 21.2993 6.74961 21.2831C6.7552 21.1297 6.7168 20.9928 6.71336 20.8551C6.70316 20.4455 6.70671 20.0357 6.71401 19.6199C6.72313 19.6138 6.72678 19.5922 6.74548 19.5922C6.90094 19.5807 7.03771 19.5692 7.19239 19.5618C7.28257 19.5549 7.35484 19.544 7.44425 19.5368C7.48369 19.5344 7.50598 19.5283 7.55128 19.5263C7.91988 19.4946 8.26546 19.4589 8.62943 19.4265C8.69644 19.4202 8.74507 19.4106 8.79369 19.4009C8.79369 19.4009 8.78768 19.4001 8.78628 19.3975Z" fill="currentColor"/>
<path d="M22.9397 9.63528C22.9379 9.64383 22.9361 9.65239 22.933 9.69752C22.9323 10.1027 22.9283 10.4714 22.936 10.8399C22.9393 11.0022 22.8774 11.0573 22.7153 11.0602C22.289 11.0681 21.8629 11.0925 21.4368 11.1103C21.4282 10.6692 21.4112 10.2281 21.4145 9.78716C21.4161 9.5685 21.6321 9.3498 21.8442 9.34053C22.1509 9.32713 22.4584 9.32896 22.7654 9.33318C22.8174 9.33389 22.8687 9.37923 22.9283 9.43745C22.9374 9.52572 22.9386 9.5805 22.9397 9.63528Z" fill="currentColor"/>
<path d="M21.3759 12.159C21.3741 12.1969 21.3723 12.2348 21.3699 12.3123C21.3712 12.4221 21.3731 12.4924 21.375 12.5626C21.3738 12.585 21.3727 12.6075 21.3642 12.6566C21.3569 12.6832 21.3481 12.7062 21.3481 12.7062C20.8573 12.7005 20.3664 12.6948 19.8502 12.684C19.8158 12.3708 19.78 12.0604 19.8055 11.7551C19.8281 11.4852 20.0401 11.2713 20.2765 11.2264C20.6176 11.1616 20.9792 11.2045 21.3506 11.2231C21.3714 11.5495 21.3737 11.8543 21.3759 12.159Z" fill="currentColor"/>
<path d="M9.13651 19.3169C9.05459 19.3579 8.96465 19.3862 8.85742 19.4035C8.93625 19.3631 9.03238 19.3337 9.13651 19.3169Z" fill="currentColor"/>
<path d="M12.82 16.0393C12.803 15.9898 12.8004 15.9351 12.8044 15.8608C12.8188 15.9056 12.8265 15.9699 12.82 16.0393Z" fill="currentColor"/>
<path d="M17.9462 22.3525C17.9685 22.405 17.9735 22.468 17.9728 22.5459C17.9544 22.4949 17.9417 22.429 17.9462 22.3525Z" fill="currentColor"/>
<path d="M11.0562 12.7574C11.0214 12.7726 10.9778 12.7752 10.9238 12.7674C10.9581 12.7529 11.0028 12.7488 11.0562 12.7574Z" fill="currentColor"/>
<path d="M9.95577 14.5352C9.9712 14.5734 9.97351 14.6171 9.96286 14.671C9.94749 14.6344 9.94508 14.5875 9.95577 14.5352Z" fill="currentColor"/>
<path d="M8.79297 11.0621C8.81343 11.0452 8.83608 11.0428 8.87527 11.0453C8.87535 11.0749 8.85889 11.0996 8.84243 11.1243C8.82667 11.1084 8.81092 11.0926 8.79297 11.0621Z" fill="currentColor"/>
<path d="M14.3151 12.7121C14.2973 12.6923 14.2937 12.6697 14.293 12.63C14.3214 12.6284 14.347 12.6437 14.3726 12.6591C14.3582 12.6758 14.3438 12.6926 14.3151 12.7121Z" fill="currentColor"/>
<path d="M14.242 14.8809C14.2329 14.8576 14.2348 14.8306 14.2476 14.7949C14.2567 14.8166 14.2548 14.8469 14.242 14.8809Z" fill="currentColor"/>
<path d="M9.95318 13.8276C9.96719 13.8459 9.97086 13.8686 9.97287 13.9086C9.96176 13.8945 9.9523 13.8633 9.95318 13.8276Z" fill="currentColor"/>
<path d="M23.2237 19.9849C23.2274 19.9956 23.2217 20.0116 23.2023 20.0255C23.1941 20.0099 23.2027 19.9988 23.2237 19.9849Z" fill="currentColor"/>
<path d="M27.3257 17.7153C27.3317 17.731 27.3248 17.7535 27.2994 17.7727C27.2916 17.7537 27.3023 17.7379 27.3257 17.7153Z" fill="currentColor"/>
<path d="M25.2423 19.3291C25.2467 19.3406 25.2425 19.3571 25.2244 19.3698C25.2155 19.3533 25.2232 19.3427 25.2423 19.3291Z" fill="currentColor"/>
<path d="M6.81903 22.7599C6.89812 22.7803 6.97865 22.8225 7.05609 22.8175C7.62945 22.7802 8.2022 22.7335 8.79206 22.6884C8.79206 23.0611 8.78937 23.4097 8.79412 23.7581C8.79519 23.8361 8.82231 23.9138 8.86988 24.0116C9.00693 24.0789 9.11193 24.1666 9.2161 24.1656C9.48364 24.1631 9.75041 24.1159 10.0182 24.0962C10.8562 24.0346 11.6945 23.9774 12.5316 23.9162C12.5306 23.9139 12.526 23.9118 12.5276 23.9341C12.5298 24.0601 12.5304 24.1637 12.5172 24.2814C12.5126 24.4209 12.522 24.5464 12.5377 24.693C12.5498 24.8548 12.5555 24.9955 12.5613 25.1363C12.556 25.1552 12.5508 25.1742 12.5471 25.2211C12.5437 25.2916 12.5388 25.334 12.5219 25.3848C12.5224 25.439 12.5349 25.4847 12.5474 25.5304C12.864 25.5289 13.1805 25.5274 13.5251 25.5378C13.5828 25.5403 13.6125 25.5308 13.6422 25.5212C13.762 25.506 13.8819 25.4908 14.0333 25.4902C14.1092 25.49 14.1536 25.4753 14.198 25.4606C14.2282 25.4609 14.2583 25.4612 14.301 25.4945C14.3073 26.0998 14.3009 26.6721 14.2753 27.2503C14.2455 27.5943 14.2345 27.9326 14.2274 28.2709C14.2272 28.2816 14.2683 28.2931 14.2947 28.3275C14.2961 29.4451 14.2929 30.5394 14.2784 31.6347C14.2557 31.6436 14.2443 31.6515 14.2329 31.6594C14.2518 31.6678 14.2708 31.6762 14.2947 31.7078C14.3035 32.9931 14.3075 34.2552 14.3114 35.5174C13.916 35.5763 13.5206 35.6352 13.0993 35.6927C13.058 35.685 13.0458 35.6891 13.0366 35.7036C12.9323 35.718 12.8279 35.7324 12.6984 35.7255C12.6649 35.6898 12.6536 35.6786 12.6391 35.6706C12.6364 35.5174 12.6338 35.3642 12.6543 35.1822C12.6863 34.8321 12.6959 34.5108 12.7014 34.1895C12.7016 34.1788 12.6607 34.1674 12.6389 34.1563C12.5965 34.1405 12.5542 34.1247 12.4826 34.0929C12.409 34.0954 12.3647 34.114 12.3203 34.1325C11.1662 34.2293 10.012 34.3262 8.83295 34.4251C8.83295 34.0587 8.8324 33.6941 8.83318 33.3294C8.83357 33.1487 8.8461 32.9671 8.83067 32.7878C8.82724 32.7479 8.72622 32.6811 8.6755 32.6857C8.02302 32.7448 7.37151 32.8147 6.69165 32.8847C6.69165 32.284 6.69165 31.7008 6.69165 31.0734C6.34352 31.0992 6.02322 31.1144 5.70487 31.1481C4.88269 31.2349 4.06158 31.3317 3.23957 31.4202C3.05174 31.4404 3.02026 31.3136 3.02032 31.162C3.02065 30.406 3.01869 29.6501 3.01773 28.8942C3.01742 28.6433 3.01768 28.3925 3.01768 28.1184C3.61736 28.1184 4.1929 28.1184 4.8169 28.1184C4.8169 27.8823 4.8169 27.6687 4.84018 27.4278C5.06305 27.3947 5.2653 27.4059 5.46095 27.3751C5.54374 27.3621 5.67194 27.2654 5.67701 27.199C5.69382 26.979 5.66396 26.7554 5.652 26.5332C5.78461 26.4983 5.91594 26.4399 6.05006 26.4326C6.67907 26.3984 6.68364 26.4035 6.69638 25.7901C6.70459 25.3948 6.69792 24.9992 6.69792 24.5881C6.05377 24.6689 5.43863 24.7461 4.79929 24.8263C4.79929 24.2295 4.79929 23.6429 4.79929 23.0317C4.22059 23.1107 3.64489 23.1893 3.04526 23.2712C3.04526 22.6933 3.04526 22.1407 3.05011 21.5647C3.05496 21.5413 3.05781 21.5457 3.08449 21.5461C4.04446 21.4554 4.97774 21.3644 5.92947 21.2765C6.0209 21.2695 6.09388 21.2593 6.18949 21.2525C6.36456 21.2509 6.51701 21.2461 6.67481 21.2516C6.69005 21.2747 6.70228 21.2843 6.71685 21.291C6.71685 21.291 6.71784 21.2916 6.71912 21.3042C6.72327 21.3248 6.72614 21.3327 6.7251 21.3641C6.71743 21.7413 6.71367 22.0951 6.69653 22.452C6.6915 22.4877 6.69987 22.5203 6.71358 22.5721C6.75229 22.6475 6.78566 22.7037 6.81903 22.7599Z" fill="currentColor"/>
<path d="M27.3404 22.097C27.3505 21.992 27.3607 21.887 27.3921 21.7603C27.4705 21.5743 27.5275 21.4099 27.5845 21.2456C27.7394 21.2585 27.8942 21.2713 28.073 21.3063C28.162 21.3211 28.2272 21.3139 28.2923 21.3067C28.3006 21.3038 28.309 21.3009 28.3499 21.2994C29.2453 21.3826 30.1083 21.4644 30.9712 21.5462C30.9712 21.5462 30.9702 21.5413 30.9828 21.5567C31.0009 21.6813 31.0064 21.7905 31.0119 21.8997C31.0082 21.9686 31.0046 22.0374 31.0008 22.1447C31.0047 22.324 31.0086 22.4649 31.0125 22.6058C31.0094 22.6426 31.0063 22.6794 31.0015 22.7531C31.0008 22.9295 31.0019 23.0691 31.0031 23.2087C30.8711 23.2074 30.7391 23.206 30.5843 23.1907C30.5286 23.1783 30.4957 23.1798 30.4629 23.1813C30.1746 23.1509 29.8862 23.1206 29.571 23.0688C29.4816 23.0459 29.4192 23.0445 29.3567 23.0431C29.1788 23.0372 29.2266 23.1656 29.2054 23.2947C29.2032 23.4041 29.2202 23.4832 29.2372 23.5622C29.2369 23.5997 29.2365 23.6372 29.2214 23.6961C29.2144 23.75 29.2222 23.7824 29.23 23.8147C29.2353 23.8685 29.2406 23.9222 29.2282 23.9976C29.2128 24.0522 29.2151 24.085 29.2173 24.1179C29.2252 24.3206 29.233 24.5232 29.2197 24.7481C29.1315 24.775 29.0644 24.7798 28.9974 24.7845C28.4602 24.7239 27.9229 24.6633 27.3652 24.6004C27.3652 25.1406 27.3652 25.6897 27.3498 26.2653C27.3241 26.3118 27.3138 26.3316 27.3035 26.3514C27.3299 26.3462 27.3562 26.3409 27.3826 26.3357C27.6939 26.3756 28.0051 26.4155 28.3258 26.4974C28.3372 26.6148 28.3411 26.6902 28.3407 26.7656C28.338 27.337 28.3378 27.3371 28.8994 27.3777C28.9831 27.3838 29.0668 27.3895 29.1527 27.4108C29.1846 27.4499 29.2144 27.4736 29.2442 27.4973C29.2438 27.6683 29.2434 27.8393 29.2317 28.0421C29.2462 28.0882 29.2719 28.1023 29.2977 28.1165C29.8174 28.1149 30.3371 28.1164 30.8566 28.1101C31.038 28.1079 31.0034 28.2328 31.0037 28.3352C31.006 29.1732 31.006 30.0112 31.0067 30.8491C31.0068 30.9664 31.0092 31.0838 31.0062 31.2011C31.0017 31.3723 30.9615 31.4853 30.75 31.3822C30.6806 31.3484 30.5874 31.3634 30.4802 31.3359C30.4255 31.3178 30.3957 31.3199 30.3658 31.3219C30.3268 31.3268 30.2877 31.3316 30.2268 31.3109C30.0647 31.1217 29.9136 31.1342 29.7557 31.2579C29.6994 31.2529 29.6432 31.2479 29.5603 31.2237C29.4898 31.214 29.4461 31.2233 29.4023 31.2326C28.8452 31.1875 28.288 31.1423 27.7003 31.0774C27.6083 31.0624 27.5469 31.0673 27.4855 31.0722C27.4455 31.1339 27.3723 31.1948 27.3707 31.2574C27.3588 31.7278 27.3612 32.1985 27.3585 32.6691C27.3582 32.7268 27.3537 32.7844 27.3497 32.8749C27.0852 32.8496 26.836 32.8256 26.5867 32.802C26.1869 32.7643 25.7873 32.7242 25.387 32.6925C25.3346 32.6883 25.2789 32.7275 25.206 32.7785C25.1799 32.8749 25.1645 32.9396 25.1667 33.0038C25.1811 33.4393 25.1992 33.8747 25.2161 34.3102C25.1657 34.3404 25.114 34.3984 25.0651 34.396C24.8414 34.3852 24.6185 34.3574 24.3685 34.3152C24.3116 34.298 24.2813 34.3013 24.2511 34.3046C23.8104 34.2721 23.3696 34.2397 22.9025 34.1808C22.731 34.0487 22.5845 34.0125 22.4346 34.1458C22.2458 34.1407 22.0569 34.1356 21.84 34.1066C21.7374 34.004 21.6668 33.9548 21.6226 34.1076C21.383 34.0585 21.4192 34.228 21.3983 34.3903C21.3908 34.446 21.4017 34.4781 21.4125 34.5103C21.4169 34.873 21.4259 35.2357 21.4223 35.5984C21.4215 35.6881 21.4136 35.8272 21.2312 35.6913C21.1619 35.6779 21.1149 35.6888 21.0679 35.6998C21.0581 35.7038 21.0484 35.7077 21.0249 35.6897C20.9949 35.644 20.9786 35.6204 20.9622 35.5967C20.9468 35.6222 20.9313 35.6477 20.9158 35.6732C20.7621 35.6608 20.6084 35.6484 20.424 35.6154C20.3327 35.6 20.2719 35.6053 20.2112 35.6106C20.1879 35.6114 20.1647 35.6122 20.1197 35.5911C19.9984 35.5357 19.8989 35.5023 19.7993 35.4689C19.7935 35.282 19.7878 35.0951 19.8028 34.8807C19.9457 34.7419 19.9435 34.643 19.7942 34.5588C19.7888 34.5509 19.7834 34.5431 19.7749 34.5036C19.7678 34.4167 19.7638 34.3614 19.7598 34.3062C19.7649 33.4129 19.7704 32.5196 19.775 31.6263C19.7762 31.3923 19.7744 31.1584 19.7723 30.881C19.7671 30.766 19.7636 30.6945 19.7601 30.623C19.7672 29.9161 19.7742 29.2092 19.8041 28.4726C19.85 28.1781 19.8767 27.9135 19.8913 27.6482C19.893 27.616 19.8288 27.5802 19.7952 27.546C19.7893 27.3938 19.7834 27.2416 19.7759 27.0491C19.7705 26.9705 19.7668 26.9321 19.763 26.8938C19.7696 26.7381 19.7763 26.5824 19.7812 26.3831C19.7801 26.0533 19.7807 25.7671 19.792 25.474C19.8049 25.459 19.8073 25.4509 19.8299 25.4438C19.9174 25.4441 19.9845 25.4433 20.0702 25.4515C20.3704 25.4968 20.6512 25.5411 20.9338 25.5663C21.0774 25.5792 21.224 25.5578 21.3679 25.5502C21.3667 25.5486 21.3692 25.5526 21.3909 25.553C21.4435 25.4674 21.4986 25.3821 21.5013 25.2951C21.5151 24.8521 21.5154 24.4086 21.5309 23.9613C21.5547 23.9495 21.5649 23.9387 21.5848 23.9199C21.6061 23.9112 21.6145 23.9075 21.6458 23.9087C21.8385 23.9277 22.0083 23.9419 22.1857 23.9691C22.256 23.9759 22.3187 23.9697 22.4034 23.9588C22.5453 23.9571 22.6651 23.9601 22.8028 23.9692C22.858 23.9753 22.8954 23.9752 22.9356 23.9825C22.9383 23.9899 22.9404 24.0055 22.9424 24.0231C23.0212 24.1542 23.0862 24.15 23.1606 24.017C23.3865 24.034 23.5907 24.0553 23.7954 24.0948C23.8385 24.1621 23.8811 24.2112 23.9237 24.2603C23.9657 24.2099 24.0078 24.1594 24.0714 24.1065C24.1787 24.114 24.2645 24.124 24.3554 24.1499C24.426 24.1622 24.4916 24.1586 24.5801 24.1543C24.6699 24.1596 24.7367 24.1657 24.8035 24.1718C25.1656 24.2054 25.2803 24.0994 25.2836 23.7327C25.2865 23.4062 25.2921 23.0797 25.3215 22.7533C25.396 22.7474 25.4454 22.7413 25.5157 22.7301C26.0215 22.7668 26.506 22.8135 26.9914 22.8459C27.0756 22.8515 27.1639 22.7969 27.2474 22.7714C27.2445 22.7726 27.2495 22.7763 27.2653 22.7732C27.3142 22.7313 27.3473 22.6923 27.3992 22.6528C27.4548 22.6115 27.4915 22.5708 27.5282 22.5301C27.479 22.4872 27.4298 22.4442 27.3794 22.3847C27.3655 22.3276 27.3528 22.287 27.343 22.2384C27.346 22.2304 27.3377 22.2154 27.346 22.2069C27.3543 22.1984 27.3615 22.1758 27.3615 22.1758C27.3615 22.1758 27.3451 22.1586 27.3463 22.143C27.3452 22.1173 27.3428 22.1071 27.3404 22.097Z" fill="currentColor"/>
<path d="M13.9491 21.7058C14.0362 21.7195 14.1233 21.7333 14.2298 21.7427C14.2717 21.7786 14.2942 21.8188 14.3112 21.8989C14.3103 22.3105 14.3147 22.6823 14.3144 23.0678C14.3117 23.0909 14.3137 23.1003 14.308 23.1272C14.3005 23.1825 14.3007 23.2204 14.3009 23.2582C14.4069 23.392 14.54 23.444 14.7153 23.4401C15.1488 23.4306 15.5827 23.4394 16.0353 23.4685C16.0577 23.5178 16.0613 23.5395 16.0589 23.5803C16.0523 23.7589 16.0424 23.9191 16.0562 24.0772C16.061 24.1332 16.1235 24.1842 16.1585 24.2513C16.1618 24.2827 16.1664 24.3004 16.1683 24.3353C16.2 24.3736 16.2342 24.3948 16.281 24.4225C16.3068 24.4425 16.3201 24.4558 16.3321 24.4854C16.36 24.5259 16.3892 24.5502 16.4247 24.5913C16.6139 24.7857 16.7811 24.9881 16.9917 25.1227C17.0417 25.1545 17.2379 24.9595 17.3658 24.8673C17.406 24.8383 17.4427 24.8044 17.4985 24.7708C17.6137 24.6344 17.7115 24.4998 17.8085 24.3647C17.8077 24.3641 17.8096 24.365 17.8096 24.365C18.1984 24.1389 17.9673 23.7602 18.0533 23.4308C18.2458 23.4308 18.4584 23.4286 18.6709 23.4313C18.931 23.4347 19.191 23.4466 19.451 23.4468C19.6884 23.4469 19.8084 23.3213 19.8094 23.0798C19.8111 22.6461 19.8099 22.2123 19.8099 21.76C19.9029 21.7554 19.9836 21.7514 20.0861 21.7432C21.0037 21.7908 21.8992 21.8432 22.7948 21.8934C22.8608 21.8971 22.9281 21.8772 22.9939 21.8812C23.1803 21.8927 23.2362 21.8273 23.2137 21.6305C23.1846 21.3766 23.2066 21.1168 23.2066 20.8166C23.7644 20.8623 24.2875 20.9051 24.8331 20.9452C24.9779 20.9622 25.1002 20.9818 25.2637 21.0081C25.2637 21.5533 25.2637 22.1092 25.2539 22.6891C25.0085 22.6749 24.7742 22.6178 24.5371 22.602C23.6448 22.5422 22.7518 22.494 21.8588 22.4454C21.4957 22.4256 21.4487 22.4837 21.4581 22.848C21.4669 23.1869 21.46 23.5261 21.46 23.8608C21.2209 23.8608 20.9926 23.8608 20.7552 23.8527C20.7462 23.8446 20.722 23.8439 20.7051 23.8304C20.4668 23.8111 20.2439 23.8189 20.0243 23.7953C19.8387 23.7754 19.7588 23.8394 19.764 24.0203C19.7658 24.0859 19.7699 24.1516 19.7683 24.2364C19.7707 24.2932 19.7779 24.3309 19.7817 24.3896C19.7752 24.6825 19.772 24.9545 19.7648 25.2429C19.7581 25.2817 19.7553 25.3041 19.7292 25.3293C19.4986 25.3341 19.291 25.3282 19.0844 25.3403C18.8831 25.3521 18.6829 25.3824 18.4822 25.4045C18.2503 25.547 18.1114 25.7241 18.1284 26.0264C18.1537 26.4764 18.135 26.9289 18.135 27.4117C17.4217 27.4117 16.7296 27.4117 15.9769 27.4117C15.9769 26.9008 15.981 26.4003 15.9753 25.9C15.9722 25.6296 15.667 25.3426 15.3951 25.3414C15.044 25.34 14.6928 25.3411 14.3088 25.3411C14.3088 24.8223 14.3088 24.3262 14.3088 23.7886C13.7373 23.8231 13.2009 23.8555 12.6302 23.9003C12.5726 23.9123 12.5494 23.912 12.5262 23.9117C12.5262 23.9117 12.5307 23.9138 12.5333 23.8922C12.5353 23.4691 12.5321 23.0675 12.5353 22.666C12.5369 22.4621 12.4562 22.3921 12.2435 22.4065C11.5787 22.4515 10.9113 22.4605 10.2472 22.513C9.79357 22.5488 9.34389 22.6341 8.89245 22.6972C8.87239 22.6553 8.8352 22.6134 8.83487 22.5713C8.83088 22.0521 8.83226 21.5329 8.83226 20.9723C9.50182 20.9206 10.1665 20.8693 10.8642 20.8154C10.8642 21.1158 10.8727 21.3812 10.861 21.6458C10.854 21.8028 10.9093 21.8765 11.0649 21.8805C11.1233 21.882 11.1821 21.8992 11.2397 21.8953C11.8428 21.8541 12.4457 21.8101 13.0683 21.7599C13.2238 21.7536 13.3598 21.7543 13.5396 21.7544C13.7052 21.7378 13.8271 21.7218 13.9491 21.7058Z" fill="currentColor"/>
<path d="M18.1769 33.4506C18.175 34.2398 18.1744 35.0038 18.1689 35.7678C18.1683 35.8466 18.1359 35.9248 18.1215 36.0038C18.0704 36.2843 17.8262 36.3088 17.6299 36.3133C17.1798 36.3236 16.7279 36.2953 16.2781 36.2646C16.0286 36.2476 15.8921 36.0298 15.8877 35.8378C15.8637 34.807 15.8764 33.7754 15.8764 32.7261C16.6409 32.7261 17.3905 32.7261 18.1768 32.7261C18.1768 32.961 18.1768 33.1933 18.1769 33.4506Z" fill="currentColor"/>
<path d="M17.0259 29.1184C17.4031 29.1192 17.755 29.1192 18.1286 29.1192C18.1286 29.759 18.1286 30.3912 18.1286 31.0453C17.3795 31.0453 16.6594 31.0453 15.9121 31.0453C15.9121 30.4155 15.9121 29.7836 15.9121 29.1177C16.2708 29.1177 16.6357 29.1177 17.0259 29.1184Z" fill="currentColor"/>
<path d="M29.1502 27.3953C29.0664 27.3894 28.9827 27.3836 28.899 27.3776C28.3374 27.3369 28.3377 27.3369 28.3404 26.7654C28.3407 26.69 28.3368 26.6146 28.3359 26.5159C28.5876 26.5102 28.8409 26.5129 29.0874 26.5547C29.1622 26.5674 29.2642 26.6827 29.2743 26.7612C29.2998 26.9584 29.2798 27.1614 29.2489 27.3755C29.1965 27.391 29.1733 27.3931 29.1502 27.3953Z" fill="currentColor"/>
<path d="M5.62748 26.5322C5.66252 26.7555 5.69238 26.979 5.67558 27.1991C5.6705 27.2655 5.54231 27.3622 5.45951 27.3752C5.26387 27.4059 5.06161 27.3947 4.84016 27.4052C4.81045 27.1946 4.80602 26.9793 4.79362 26.7644C4.78475 26.6109 4.86728 26.5539 5.00332 26.5486C5.2036 26.5408 5.40403 26.5368 5.62748 26.5322Z" fill="currentColor"/>
<path d="M25.2251 34.291C25.1988 33.8744 25.1806 33.4389 25.1662 33.0034C25.1641 32.9392 25.1795 32.8745 25.1982 32.8018C25.2235 33.1377 25.241 33.4819 25.25 33.8263C25.2539 33.9747 25.2403 34.1235 25.2251 34.291Z" fill="currentColor"/>
<path d="M19.7874 27.562C19.8286 27.58 19.8928 27.6158 19.891 27.648C19.8765 27.9133 19.8497 28.1779 19.8106 28.4498C19.7879 28.4343 19.7813 28.4117 19.7726 28.3498C19.7669 28.089 19.7633 27.8674 19.7598 27.6459C19.7665 27.6233 19.7732 27.6008 19.7874 27.562Z" fill="currentColor"/>
<path d="M12.6368 34.1798C12.6605 34.1673 12.7014 34.1787 12.7012 34.1894C12.6957 34.5107 12.6862 34.832 12.6584 35.1595C12.638 34.845 12.6364 34.5242 12.6368 34.1798Z" fill="currentColor"/>
<path d="M29.7754 31.2637C29.9131 31.134 30.0642 31.1215 30.2079 31.3037C30.0727 31.3046 29.9341 31.2871 29.7754 31.2637Z" fill="currentColor"/>
<path d="M22.4512 34.1577C22.585 34.0123 22.7316 34.0485 22.8821 34.1703C22.7474 34.1808 22.6073 34.1753 22.4512 34.1577Z" fill="currentColor"/>
<path d="M19.7856 34.5796C19.9423 34.6429 19.9444 34.7417 19.8081 34.8588C19.7887 34.7766 19.7834 34.6886 19.7856 34.5796Z" fill="currentColor"/>
<path d="M19.8008 35.4868C19.8988 35.5021 19.9984 35.5356 20.103 35.5854C20.0062 35.5695 19.9043 35.5372 19.8008 35.4868Z" fill="currentColor"/>
<path d="M21.6328 34.1192C21.6666 33.9546 21.7373 34.0037 21.8197 34.098C21.7661 34.1194 21.7046 34.1252 21.6328 34.1192Z" fill="currentColor"/>
<path d="M29.2442 23.5437C29.2202 23.4829 29.2032 23.4039 29.2012 23.314C29.2278 23.3772 29.2395 23.4513 29.2442 23.5437Z" fill="currentColor"/>
<path d="M20.2246 35.6196C20.2709 35.6049 20.3316 35.5996 20.4011 35.6052C20.353 35.6205 20.296 35.6248 20.2246 35.6196Z" fill="currentColor"/>
<path d="M29.3691 23.0559C29.4197 23.0445 29.4822 23.0459 29.5506 23.0609C29.498 23.0726 29.4395 23.0707 29.3691 23.0559Z" fill="currentColor"/>
<path d="M27.498 31.0854C27.5472 31.0669 27.6086 31.062 27.6783 31.0689C27.6278 31.0867 27.569 31.0928 27.498 31.0854Z" fill="currentColor"/>
<path d="M29.0176 24.7853C29.0644 24.7795 29.1315 24.7748 29.2137 24.7705C29.1651 24.7761 29.1014 24.7812 29.0176 24.7853Z" fill="currentColor"/>
<path d="M12.5215 25.3848C12.5466 25.3852 12.553 25.3976 12.5589 25.4222C12.5589 25.4526 12.5527 25.4742 12.5467 25.5131C12.5345 25.4846 12.522 25.439 12.5215 25.3848Z" fill="currentColor"/>
<path d="M14.1817 25.4556C14.1525 25.4754 14.1081 25.4901 14.0547 25.4938C14.086 25.472 14.1263 25.4613 14.1817 25.4556Z" fill="currentColor"/>
<path d="M29.4121 31.2408C29.4452 31.2232 29.489 31.2139 29.5427 31.2162C29.5094 31.2349 29.4661 31.242 29.4121 31.2408Z" fill="currentColor"/>
<path d="M12.334 34.136C12.3646 34.1141 12.409 34.0955 12.4653 34.0889C12.434 34.1136 12.3908 34.1265 12.334 34.136Z" fill="currentColor"/>
<path d="M21.082 35.7056C21.1136 35.6884 21.1606 35.6774 21.2129 35.6815C21.178 35.7017 21.1377 35.7068 21.082 35.7056Z" fill="currentColor"/>
<path d="M29.2881 28.1057C29.2716 28.1023 29.2458 28.0882 29.2285 28.0654C29.2509 28.0696 29.2649 28.0823 29.2881 28.1057Z" fill="currentColor"/>
<path d="M30.375 31.331C30.3947 31.3197 30.4246 31.3176 30.4593 31.3256C30.4378 31.3372 30.4115 31.3388 30.375 31.331Z" fill="currentColor"/>
<path d="M29.2376 23.7984C29.2212 23.7823 29.2134 23.7499 29.2182 23.7148C29.2359 23.7355 29.241 23.7588 29.2376 23.7984Z" fill="currentColor"/>
<path d="M30.4785 23.1875C30.4946 23.1794 30.5275 23.1779 30.5622 23.1896C30.5412 23.1999 30.5182 23.197 30.4785 23.1875Z" fill="currentColor"/>
<path d="M24.2598 34.3115C24.281 34.3013 24.3112 34.298 24.3481 34.3069C24.3261 34.3189 24.2974 34.3187 24.2598 34.3115Z" fill="currentColor"/>
<path d="M21.417 34.4933C21.4013 34.4781 21.3904 34.446 21.3929 34.4111C21.4115 34.4311 21.4166 34.4537 21.417 34.4933Z" fill="currentColor"/>
<path d="M20.9316 35.6782C20.9314 35.6477 20.9469 35.6222 20.9623 35.5967C20.9787 35.6203 20.995 35.644 21.0101 35.6844C20.9883 35.6952 20.9678 35.6892 20.9316 35.6782Z" fill="currentColor"/>
<path d="M29.2253 24.1015C29.2155 24.0849 29.2133 24.0521 29.2233 24.0171C29.2346 24.0384 29.2337 24.0618 29.2253 24.1015Z" fill="currentColor"/>
<path d="M27.3801 26.3211C27.3555 26.3407 27.3291 26.346 27.3027 26.3512C27.313 26.3314 27.3233 26.3116 27.3461 26.2886C27.3651 26.2925 27.3718 26.2995 27.3801 26.3211Z" fill="currentColor"/>
<path d="M13.6297 25.5156C13.6125 25.5308 13.5829 25.5403 13.5469 25.54C13.5661 25.5234 13.5917 25.5167 13.6297 25.5156Z" fill="currentColor"/>
<path d="M29.1523 27.4107C29.1733 27.3932 29.1965 27.391 29.2369 27.3925C29.2543 27.4189 29.2546 27.4417 29.2494 27.4809C29.2141 27.4735 29.1843 27.4498 29.1523 27.4107Z" fill="currentColor"/>
<path d="M13.0473 35.7137C13.0443 35.6891 13.0575 35.6847 13.0793 35.6971C13.0765 35.7095 13.0683 35.7162 13.0473 35.7137Z" fill="currentColor"/>
<path d="M12.6367 35.6855C12.6534 35.6788 12.6648 35.69 12.6773 35.7156C12.6659 35.718 12.6502 35.7091 12.6367 35.6855Z" fill="currentColor"/>
<path d="M4.83175 17.895C4.74925 18.0219 4.65049 18.1604 4.49805 17.9353C4.60113 17.9086 4.70701 17.8988 4.83175 17.895Z" fill="currentColor"/>
<path d="M5.59866 17.8517C5.57925 17.8654 5.55044 17.8734 5.51367 17.8706C5.53356 17.8552 5.56142 17.8506 5.59866 17.8517Z" fill="currentColor"/>
<path d="M27.434 17.7944C27.6205 17.8008 27.807 17.8071 28.0165 17.8096C28.1431 17.8163 28.2467 17.827 28.3764 17.8562C28.4332 17.8694 28.4639 17.8641 28.4947 17.8587C29.288 17.9099 30.0814 17.961 30.9033 18.0261C30.9422 18.0511 30.9545 18.0584 30.9691 18.0622C30.97 18.6007 30.971 19.1393 30.9736 19.7015C30.9614 19.7264 30.9485 19.7305 30.9115 19.7393C30.8754 19.738 30.8642 19.7349 30.8434 19.7298C30.8123 19.7394 30.7907 19.7511 30.7507 19.7601C30.6839 19.7613 30.6355 19.7651 30.5736 19.7526C30.4778 19.7333 30.3953 19.7303 30.2965 19.7258C30.258 19.7232 30.236 19.7222 30.1992 19.707C30.0588 19.6883 29.9332 19.6839 29.7911 19.6752C29.7519 19.6728 29.7293 19.6745 29.7068 19.6763C29.3675 19.6412 29.0283 19.6062 28.6651 19.5525C28.6087 19.5415 28.5764 19.5492 28.544 19.5569C28.1872 19.5438 27.8303 19.5307 27.4438 19.5083C27.4052 19.5017 27.3963 19.5045 27.3873 19.5073C27.3788 19.3262 27.3703 19.1451 27.3871 18.9412C27.4512 18.8782 27.49 18.838 27.5289 18.7978C27.4705 18.7541 27.4122 18.7103 27.3538 18.6665C27.3508 18.4112 27.3477 18.156 27.3666 17.8747C27.4037 17.8307 27.4188 17.8125 27.434 17.7944Z" fill="currentColor"/>
<path d="M28.4819 17.8527C28.4632 17.864 28.4325 17.8694 28.3965 17.8641C28.4174 17.8513 28.4436 17.849 28.4819 17.8527Z" fill="currentColor"/>
<path d="M30.9703 18.0478C30.9544 18.0585 30.942 18.0511 30.9258 18.031C30.937 18.0257 30.9543 18.0295 30.9703 18.0478Z" fill="currentColor"/>
<path d="M3.43174 19.7044C3.40538 19.7285 3.377 19.7386 3.3418 19.7373C3.34978 19.7007 3.36458 19.6756 3.37939 19.6504C3.39617 19.6637 3.41294 19.6771 3.43174 19.7044Z" fill="currentColor"/>
<path d="M6.71538 19.5065C6.71603 19.5173 6.69275 19.5231 6.68102 19.5205C6.67315 19.5058 6.67978 19.4953 6.69705 19.4813C6.70492 19.4762 6.71473 19.4956 6.71538 19.5065Z" fill="currentColor"/>
<path d="M25.6937 19.4678C25.7524 19.4718 25.79 19.478 25.8465 19.481C26.2956 19.515 26.7256 19.5547 27.1561 19.5875C27.2601 19.5954 27.3631 19.5837 27.3497 19.7809C27.3554 20.2461 27.3598 20.6663 27.3642 21.0865C27.3056 21.1238 27.2433 21.1981 27.1889 21.1928C26.5603 21.1312 25.9328 21.0576 25.2871 20.9852C25.2871 20.4565 25.2871 19.9502 25.2871 19.4263C25.413 19.4406 25.5427 19.4553 25.6937 19.4678Z" fill="currentColor"/>
<path d="M27.5607 21.2389C27.5265 21.4095 27.4695 21.5739 27.3938 21.7414C27.3687 21.6225 27.366 21.5001 27.3549 21.3783C27.3416 21.2322 27.4222 21.2126 27.5607 21.2389Z" fill="currentColor"/>
<path d="M27.3477 18.6841C27.4107 18.71 27.469 18.7538 27.5274 18.7975C27.4886 18.8377 27.4497 18.8779 27.3916 18.9185C27.3626 18.8466 27.3528 18.7743 27.3477 18.6841Z" fill="currentColor"/>
<path d="M28.2712 21.3006C28.2258 21.3136 28.1607 21.3208 28.0918 21.3118C28.1425 21.2953 28.197 21.2951 28.2712 21.3006Z" fill="currentColor"/>
<path d="M28.5586 19.5674C28.5752 19.549 28.6075 19.5414 28.6425 19.5465C28.6215 19.5656 28.5979 19.5719 28.5586 19.5674Z" fill="currentColor"/>
<path d="M25.3422 22.6992C25.3839 22.6989 25.4065 22.7031 25.4543 22.7124C25.4797 22.7176 25.4947 22.735 25.4947 22.735C25.4452 22.7411 25.3958 22.7472 25.3213 22.7531C25.2892 22.7457 25.282 22.7383 25.2793 22.7162C25.2968 22.7023 25.31 22.703 25.3422 22.6992Z" fill="currentColor"/>
<path d="M27.4108 17.7881C27.4178 17.8123 27.4026 17.8304 27.3704 17.8543C27.3651 17.8341 27.3769 17.808 27.4108 17.7881Z" fill="currentColor"/>
<path d="M6.67383 21.2517C6.68198 21.2466 6.69549 21.252 6.71476 21.2784C6.72053 21.2995 6.71963 21.2945 6.71775 21.2928C6.70129 21.2844 6.68906 21.2748 6.67383 21.2517Z" fill="currentColor"/>
<path d="M14.2744 27.25C14.2956 27.582 14.2974 27.9199 14.2943 28.2809C14.2674 28.2929 14.2263 28.2813 14.2266 28.2706C14.2336 27.9323 14.2447 27.5941 14.2744 27.25Z" fill="currentColor"/>
<path d="M12.5168 24.2812C12.5361 24.3909 12.5415 24.5145 12.5389 24.655C12.5216 24.5463 12.5122 24.4207 12.5168 24.2812Z" fill="currentColor"/>
<path d="M6.69484 22.4521C6.71054 22.4722 6.71284 22.4955 6.71085 22.5358C6.69818 22.5204 6.68982 22.4879 6.69484 22.4521Z" fill="currentColor"/>
<path d="M14.2779 31.6348C14.2923 31.6423 14.2954 31.6508 14.2939 31.672C14.2704 31.6763 14.2514 31.6679 14.2324 31.6595C14.2438 31.6516 14.2552 31.6437 14.2779 31.6348Z" fill="currentColor"/>
<path d="M23.7949 24.0944C23.8695 24.0793 23.9447 24.0824 24.0346 24.097C24.0074 24.159 23.9653 24.2095 23.9232 24.2599C23.8806 24.2108 23.838 24.1617 23.7949 24.0944Z" fill="currentColor"/>
<path d="M27.3983 22.6524C27.373 22.582 27.3666 22.5109 27.3699 22.4204C27.4289 22.4439 27.4781 22.4868 27.5273 22.5297C27.4907 22.5704 27.454 22.6111 27.3983 22.6524Z" fill="currentColor"/>
<path d="M22.1855 23.9689C22.1865 23.9509 22.1951 23.9459 22.2164 23.9331C22.2705 23.9331 22.3119 23.9408 22.3672 23.9559C22.3185 23.9695 22.2559 23.9757 22.1855 23.9689Z" fill="currentColor"/>
<path d="M22.9414 24.0228C22.9928 24.006 23.0462 24.0069 23.1187 24.0144C23.0852 24.1497 23.0202 24.1539 22.9414 24.0228Z" fill="currentColor"/>
<path d="M24.3555 24.1496C24.4092 24.1346 24.4681 24.1356 24.5421 24.1456C24.4917 24.1584 24.4261 24.162 24.3555 24.1496Z" fill="currentColor"/>
<path d="M21.5301 23.9609C21.5154 23.9565 21.5112 23.9482 21.5078 23.9258C21.5192 23.9132 21.5298 23.9145 21.5557 23.9202C21.5641 23.9383 21.5539 23.949 21.5301 23.9609Z" fill="currentColor"/>
<path d="M30.8435 19.73C30.8358 19.7465 30.8185 19.761 30.7852 19.7692C30.7908 19.7512 30.8124 19.7396 30.8435 19.73Z" fill="currentColor"/>
</svg>
