<svg width="500" height="500" viewBox="0 0 500 500" fill="none" xmlns="http://www.w3.org/2000/svg">
<rect width="500" height="500" fill="#171617"/>
<path fill-rule="evenodd" clip-rule="evenodd" d="M136.924 150.684H121V230.772H128.962V213.443H136.924V176.911H150.506V213.911H137.392V264.025H123.81V298.215H126.62V300.089H128.494V302.43H130.835V304.304H132.241V305.241H134.114V308.051H135.987V309.924H137.392V321.165H190.316V338.962H202.962V383.456H189.848V369.873H176.734V334.747H163.152V382.987H176.734V390.013H190.316V401.722H203.43V413.43H216.544V428.418H284.456V413.43H297.57V401.722H310.684V390.481H324.266V383.456H337.848V334.747H324.734V369.873H311.152V383.456H298.038V338.494H310.684V320.696H363.139V309.924H364.076V308.051H365.949V306.646H367.354V304.772H370.165V301.962H372.975V299.62H374.38V297.747H376.722V264.025H363.139V213.911H350.494L350.025 176.911H363.608V213.443H371.57V230.772H380V150.684H364.076V124.924H350.494V111.81H336.911V98.6962H323.797V85.1139H297.57V72H203.43V85.1139H177.203V98.6962H163.62V111.81H150.506V124.924H136.924V150.684ZM150.975 226.089V264.025H164.089V276.671H216.544V264.025H229.658V226.557H216.544V213.443H164.089V226.089H150.975ZM271.342 226.089V264.025H284.456V276.671H336.911V264.025H349.557V226.089H336.911V213.443H284.456V226.089H271.342ZM243.241 263.089V275.734H229.658V315.076H271.342V275.734H257.759V263.089H243.241ZM230.127 338.494H216.076V383.456H230.127V338.494ZM243.241 383.456V338.494H257.759V383.456H243.241ZM270.873 338.494L271.342 383.456H284.456V338.494H270.873Z" fill="#E4E4E4"/>
</svg>
